<svg width="20" height="20" fill="none" xmlns="http://www.w3.org/2000/svg"><path fill-rule="evenodd" clip-rule="evenodd" d="M1.81 1.01L1.719 1a.674.674 0 00-.689.56l-.009.09a.674.674 0 00.559.689l1.356.234.823 9.795.017.147a2.295 2.295 0 002.27 1.957h9.81l.147-.005a2.296 2.296 0 002.124-1.962l.853-5.896.015-.135A1.88 1.88 0 0017.12 4.46H4.448l-.211-2.518-.016-.1a.674.674 0 00-.541-.508L1.81 1.01zm4.132 12.108a.946.946 0 01-.84-.862l-.541-6.447h12.56l.078.005a.531.531 0 01.447.602l-.853 5.895-.022.106a.947.947 0 01-.916.707h-9.81l-.103-.006zm-1.408 4.14a1.362 1.362 0 112.724 0 1.362 1.362 0 01-2.724 0zm10.115 0a1.362 1.362 0 112.725.001 1.362 1.362 0 01-2.725 0zm.44-8.801a.674.674 0 00-.675-.674H11.92l-.091.006a.674.674 0 00.091 1.342h2.493l.091-.006a.674.674 0 00.583-.668z" fill="#fff"/></svg>