<svg width="91" height="76" fill="none" xmlns="http://www.w3.org/2000/svg"><g clip-path="url(#clip0_497:1347)" fill="#B777BE"><path d="M46.001 74.8c-16.6 0-31-11.2-35.1-27.2-.2-.7.2-1.4.9-1.5.7-.2 1.4.2 1.5.9 3.9 14.9 17.3 25.3 32.7 25.3 18.6 0 33.8-15.1 33.8-33.8 0-.7.6-1.3 1.3-1.3.7 0 1.3.6 1.3 1.3-.1 20-16.4 36.3-36.4 36.3zm-35-36.3c-.7 0-1.3-.6-1.3-1.3.1-19.9 16.3-36.2 36.3-36.2 16.6 0 31 11.2 35.1 27.2.2.7-.2 1.4-.9 1.5-.7.2-1.3-.2-1.5-.9-3.8-14.9-17.3-25.3-32.7-25.3-18.6 0-33.7 15.1-33.7 33.8 0 .7-.6 1.2-1.3 1.2z"/><path d="M11 38.5c-.3 0-.6-.1-.9-.4l-3.8-3.8c-.5-.5-.5-1.3 0-1.8s1.3-.5 1.8 0l3.8 3.8c.5.5.5 1.3 0 1.8-.3.3-.6.4-.9.4z"/><path d="M11.002 38.5c-.3 0-.6-.1-.9-.4-.5-.5-.5-1.3 0-1.8l3.8-3.8c.5-.5 1.3-.5 1.8 0s.5 1.3 0 1.8l-3.8 3.8c-.3.3-.6.4-.9.4zm73.8 3.8c-.3 0-.6-.1-.9-.4l-3.8-3.8c-.5-.5-.5-1.3 0-1.8s1.3-.5 1.8 0l3.8 3.8c.5.5.5 1.3 0 1.8-.3.2-.6.4-.9.4z"/><path d="M77.3 42.3c-.3 0-.6-.1-.9-.4-.5-.5-.5-1.3 0-1.8l3.8-3.8c.5-.5 1.3-.5 1.8 0s.5 1.3 0 1.8l-3.8 3.8c-.3.2-.6.4-.9.4zM23.501 66.6c-.7 0-1.3-.6-1.3-1.3V33.5c0-.7.6-1.3 1.3-1.3.7 0 1.3.6 1.3 1.3v31.8c0 .7-.6 1.3-1.3 1.3zm45 0c-.7 0-1.3-.6-1.3-1.3V33.5c0-.7.6-1.3 1.3-1.3.7 0 1.3.6 1.3 1.3v31.8c0 .7-.6 1.3-1.3 1.3z"/><path d="M68.501 34.8h-45c-.7 0-1.3-.6-1.3-1.3 0-.7.6-1.3 1.3-1.3h45c.7 0 1.3.6 1.3 1.3 0 .7-.6 1.3-1.3 1.3z"/><path d="M23.501 34.8c-.2 0-.4-.1-.6-.2-.6-.4-.8-1.1-.4-1.7l3.8-6.3c.4-.6 1.1-.8 1.7-.4.6.4.8 1.1.4 1.7l-3.8 6.3c-.3.3-.7.6-1.1.6zm44.999 0c-.4 0-.8-.2-1.1-.6l-3.8-6.3c-.4-.6-.2-1.4.4-1.7.6-.4 1.4-.2 1.7.4l3.8 6.3c.4.6.2 1.4-.4 1.7-.1.1-.4.2-.6.2z"/><path d="M64.8 28.5H27.3c-.7 0-1.3-.6-1.3-1.3 0-.7.6-1.3 1.3-1.3h37.5c.7 0 1.3.6 1.3 1.3-.1.7-.6 1.3-1.3 1.3z"/><path d="M41 34.8h-.2c-.7-.1-1.1-.8-1-1.5L41 27c.1-.7.8-1.1 1.5-1 .7.1 1.1.8 1 1.5l-1.3 6.3c-.1.5-.6 1-1.2 1zm10.002 0c-.6 0-1.1-.4-1.2-1l-1.3-6.3c-.1-.7.3-1.3 1-1.5.7-.1 1.3.3 1.5 1l1.3 6.3c.1.7-.3 1.3-1 1.5-.1-.1-.2 0-.3 0z"/><path d="M41.001 42.3c-.7 0-1.3-.6-1.3-1.3v-7.5c0-.7.6-1.3 1.3-1.3.7 0 1.3.6 1.3 1.3V41c0 .7-.6 1.3-1.3 1.3zm10 0c-.7 0-1.3-.6-1.3-1.3v-7.5c0-.7.6-1.3 1.3-1.3.7 0 1.3.6 1.3 1.3V41c0 .7-.6 1.3-1.3 1.3z"/><path d="M51.002 42.3h-.3l-5-1.3c-.7-.2-1.1-.8-.9-1.5.2-.7.8-1.1 1.5-.9l5 1.3c.7.2 1.1.8.9 1.5-.1.5-.6.9-1.2.9z"/><path d="M41.002 42.3c-.6 0-1.1-.4-1.2-.9-.2-.7.2-1.3.9-1.5l5-1.3c.7-.2 1.3.2 1.5.9.2.7-.2 1.3-.9 1.5l-5 1.3c-.1-.1-.2 0-.3 0zm16.298 15H34.8c-.7 0-1.3-.6-1.3-1.3 0-.7.6-1.3 1.3-1.3h22.5c.7 0 1.3.6 1.3 1.3-.1.7-.6 1.3-1.3 1.3zm0-5H34.8c-.7 0-1.3-.6-1.3-1.3 0-.7.6-1.3 1.3-1.3h22.5c.7 0 1.3.6 1.3 1.3-.1.7-.6 1.3-1.3 1.3zm-6.299 10h-10c-.7 0-1.3-.6-1.3-1.3 0-.7.6-1.3 1.3-1.3h10c.7 0 1.3.6 1.3 1.3 0 .7-.6 1.3-1.3 1.3z"/></g><defs><clipPath id="clip0_497:1347"><path fill="#fff" transform="translate(6 1)" d="M0 0h80v73.8H0z"/></clipPath></defs></svg>