<svg width="63" height="76" fill="none" xmlns="http://www.w3.org/2000/svg"><path d="M61.26 30.761l-4.244-4.542a6.291 6.291 0 00.826-4.478c-.322-1.713-1.315-3.201-2.794-4.191l-6.124-4.099a6.305 6.305 0 00-.546-2.823c-.71-1.599-2.021-2.835-3.693-3.48L31.143 1.924a6.89 6.89 0 00-5.037.021A6.823 6.823 0 0021.315 0H6.734C3.021 0 0 2.923 0 6.517V62.43C0 69.912 6.292 76 14.024 76c3.519 0 6.74-1.26 9.204-3.34.035-.025.07-.05.103-.08l26.255-22.864a1.092 1.092 0 00.086-1.577 1.18 1.18 0 00-1.629-.083l-1.081.942-3.515-3.761 5.518-7.72 5.016 5.368-2.282 1.988a1.09 1.09 0 00-.086 1.576c.228.245.542.37.857.37.275 0 .55-.094.771-.287l7.541-6.567c1.334-1.167 2.118-2.768 2.21-4.506a6.351 6.351 0 00-1.731-4.698zm-5.687-8.62a4.146 4.146 0 01-.715 3.205l-3.13 4.382-7.13-4.771 3.774-9.16 5.364 3.589a4.246 4.246 0 011.837 2.755zM44.611 39.685l-4.767-3.19 3.877-9.41 6.694 4.479-5.804 8.12zm-7.116 9.956l-2.404-1.609 3.877-9.41 4.331 2.898-5.804 8.121zM39.27 31.86l-3.342-1.29c-.591-.228-1.262.05-1.498.623a1.105 1.105 0 00.644 1.45l3.342 1.29-3.962 9.615-6.406-2.472V29.933l2.44.941c.14.054.285.08.427.08.458 0 .892-.266 1.072-.703.236-.573-.052-1.221-.644-1.45l-3.295-1.271V16.385l15.184 5.86-3.962 9.615zm-13.529-6.966H12.678c-.637 0-1.153.5-1.153 1.117 0 .616.516 1.115 1.152 1.115h13.064v10.352H2.307V27.126h5.456c.636 0 1.153-.5 1.153-1.115 0-.616-.517-1.117-1.153-1.117H2.307V14.543H25.74v10.351zM2.307 39.71H25.74v10.351H2.307v-10.35zm25.74 3.77l5.553 2.14-5.552 13.476V43.48zm7.187 13.25l1.28 1.368-5.978 5.205 4.698-6.574zm-4.983 3.049l3.963-9.62 1.97 1.318-5.933 8.302zm.038-55.782L43.83 9.222a4.338 4.338 0 012.428 2.287c.322.723.43 1.5.323 2.26l-.005.026c-.048.337-.14.67-.273.993l-2.218 5.383-16.038-6.189V6.517c0-.95-.213-1.851-.591-2.665a4.53 4.53 0 012.832.145zM6.734 2.232h14.58c2.44 0 4.427 1.922 4.427 4.285v5.794H2.307V6.517c0-2.363 1.986-4.285 4.427-4.285zM2.307 62.43V52.293H25.74V62.43c0 6.252-5.256 11.338-11.717 11.338S2.307 68.682 2.307 62.43zm42.94-11.938l-7.02 6.113-1.645-1.761 5.517-7.72 3.148 3.368zm15.44-15.145a4.203 4.203 0 01-1.45 2.962l-3.541 3.084-5.384-5.762 5.369-7.512 3.869 4.14a4.171 4.171 0 011.137 3.088z" fill="#B777BE"/><path d="M13.763 57.118c-3.05 0-5.53 2.401-5.53 5.353 0 2.95 2.48 5.351 5.53 5.351 3.05 0 5.53-2.4 5.53-5.351s-2.48-5.353-5.53-5.353zm0 8.472c-1.778 0-3.224-1.4-3.224-3.12 0-1.72 1.446-3.12 3.224-3.12 1.777 0 3.224 1.4 3.224 3.12 0 1.72-1.447 3.12-3.224 3.12z" fill="#B777BE"/></svg>