<svg width="99" height="76" fill="none" xmlns="http://www.w3.org/2000/svg"><g clip-path="url(#clip0_497:1343)" fill="#B777BE"><path d="M0 28.3c.6-.2 1.2-.5 1.9-.6 3.1-.1 6.2 0 9.3 0 1.2 0 1.8.5 1.8 1.5 0 .9-.6 1.5-1.7 1.5H1.7c-.5 0-1.1-.4-1.6-.7-.1-.6-.1-1.2-.1-1.7z"/><path d="M70.9 25c3.5 0 6.8.1 10.1 0 2.1 0 3.5.8 4.4 2.6 2.4 4.4 4.9 8.8 7.3 13.2.9 1.7 1.4 3.4 1.4 5.4v7.5c0 1.8-1 2.9-2.9 2.8-1.5-.1-2.4.2-3 1.9-1.1 3.1-4.4 5-7.6 4.8-3.5-.2-6.3-2.4-7.3-5.6l-.3-.9H46.5c-.5 1.1-.9 2.2-1.5 3.1-2 2.7-4.7 3.9-8 3.3-3.2-.6-5.3-2.5-6.3-5.6-.2-.7-.5-.8-1.1-.8H18.5c-1.9 0-2.3-.4-2.3-2.2v-9.1H4.5c-.7-.1-1.1-.6-1.2-1.3-.1-.7.3-1.3 1-1.5.3-.1.7-.1 1.1-.1h18.2c.8.1 1.3.7 1.3 1.5s-.6 1.4-1.4 1.4h-4.3v8.3c.1 0 .3.1.4.1h10.1c.5 0 .7-.2.9-.7 1-3.5 4.1-5.9 7.7-5.9 3.6 0 6.7 2.3 7.8 5.8.2.5.3.8 1 .8h20.8V15.3C51.7 15 35.5 15 19.2 15v4.5h7.9c.3 0 .7 0 1 .1.7.2 1.1.6 1.1 1.3.1.7-.3 1.3-1 1.5-.3.1-.7.1-1 .1H9.9c-.9-.1-1.5-.7-1.5-1.5 0-.9.6-1.4 1.6-1.4h6.3v-4.5c0-1.9 1-3 2.9-3H68c2 0 3 1.1 3 3v8.8c-.1.3-.1.6-.1 1.1zm20.4 28.5v-7.3c0-1.4-.3-2.7-1-4-2.5-4.5-5-8.9-7.5-13.4-.4-.6-.8-.9-1.5-.9h-9.4c-.3 0-.5 0-.8.1v25.5c1.9.2 1.9.2 2.5-1.4 1.2-3.1 4.2-5.2 7.5-5.2 3.4 0 6.4 2 7.6 5.2.6 1.5.6 1.5 2.2 1.5 0-.1.1-.1.4-.1zm-47.8 1.6c0-2.9-2.2-5.2-5.1-5.2-2.8 0-5 2.2-5.1 4.9-.1 2.6 1.8 5.3 5.1 5.4 2.8 0 5.1-2.3 5.1-5.1zm42.6-.1c0-2.9-2.2-5.2-5.1-5.2-2.8 0-5.1 2.3-5.1 5.1 0 2.9 2.2 5.2 5.1 5.2 2.8.1 5.1-2.2 5.1-5.1z"/><path d="M19.2 35.5h19.4c.8.1 1.3.6 1.3 1.4 0 .8-.4 1.3-1.2 1.5-.3.1-.6 0-.8 0H12.4c-.9-.1-1.4-.7-1.4-1.5s.6-1.4 1.5-1.4h3.9v-7.8c0-1.3.5-2 1.4-2 1 0 1.5.7 1.5 2.1v6.8c-.1.2-.1.5-.1.9z"/></g><defs><clipPath id="clip0_497:1343"><path fill="#fff" transform="translate(0 12)" d="M0 0h94.2v51.1H0z"/></clipPath></defs></svg>