<svg width="24" height="24" fill="none" xmlns="http://www.w3.org/2000/svg"><path fill-rule="evenodd" clip-rule="evenodd" d="M16.525 3H7.456C4.286 3 2 5.562 2 8.859v6.282C2 18.439 4.287 21 7.456 21h9.06a5.522 5.522 0 003.997-1.773 5.6 5.6 0 001.476-4.131l.002-6.237a5.568 5.568 0 00-1.478-4.086A5.517 5.517 0 0016.525 3zM7.456 4.528h9.052a4.005 4.005 0 012.895 1.288 4.064 4.064 0 011.072 2.998l-.002 6.327a4.097 4.097 0 01-1.07 3.043 4.005 4.005 0 01-2.895 1.288H7.456c-2.293 0-3.939-1.844-3.939-4.331V8.859c0-2.487 1.646-4.33 3.94-4.33zm10.568 4.11a.755.755 0 00-1.066-.119l-4.1 3.305-.117.083a1.38 1.38 0 01-1.581-.089l-4.13-3.3-.092-.064a.755.755 0 00-.973.187.768.768 0 00.122 1.074l4.135 3.305.161.117a2.89 2.89 0 003.416-.113l4.107-3.311.082-.077a.768.768 0 00.036-.998z" fill="#C6C6C6"/></svg>