<svg width="44" height="50" fill="none" xmlns="http://www.w3.org/2000/svg"><g clip-path="url(#clip0)" fill="#B777BE"><path d="M28.307 27.362a14.848 14.848 0 011.503 5.801h-5.979a8.457 8.457 0 00-1.865-4.622l.805-.826a.78.78 0 000-1.083.732.732 0 00-1.054 0l-1.837 1.885.454.465c1.197 1.229 1.947 2.86 2.031 4.595.202 4.148-3.194 7.555-7.261 7.216-3.264-.272-5.889-2.982-6.135-6.333-.297-4.037 2.82-7.42 6.693-7.42h.745v-7.63c1.852.1 3.672.57 5.336 1.382a.733.733 0 00.969-.332.777.777 0 00-.345-1.059 15.371 15.371 0 00-6.706-1.544c-8.84 0-15.994 7.557-15.649 16.707.315 8.342 6.902 15.102 15.03 15.425 8.917.354 16.281-6.987 16.281-16.06 0-2.533-.583-5.031-1.693-7.274a.734.734 0 00-1.032-.31.78.78 0 00-.29 1.018zm-4.477 7.332h5.982a14.682 14.682 0 01-3.622 8.956l-4.228-4.338a8.496 8.496 0 001.868-4.618zm-2.922 5.7l4.227 4.338c-2.34 2.163-5.382 3.539-8.728 3.717v-6.138a8.058 8.058 0 004.5-1.916zm-5.992 1.917v6.138c-3.347-.178-6.389-1.554-8.728-3.717l4.227-4.337a8.058 8.058 0 004.5 1.916zM9.36 39.312L5.133 43.65a14.682 14.682 0 01-3.622-8.956h5.982a8.497 8.497 0 001.867 4.618zm-1.868-6.149h-5.98a14.682 14.682 0 013.621-8.956l4.227 4.337a8.497 8.497 0 00-1.868 4.619zm2.923-5.701l-4.227-4.338c2.34-2.162 5.381-3.538 8.728-3.717v6.137a8.058 8.058 0 00-4.501 1.918zM43.2.82a2.689 2.689 0 00-3.867 0l-2.988 3.067-.879-.902-1.054 1.083.879.902-7.208 7.396c-.883.906-1.034 2.284-.453 3.352l-.777.797a.78.78 0 000 1.082.732.732 0 001.054 0l.777-.797a2.682 2.682 0 003.266-.466l7.208-7.396.879.902 1.054-1.082-.879-.902L43.2 4.79a2.862 2.862 0 000-3.97zM30.896 15.253a1.222 1.222 0 01-1.758 0 1.3 1.3 0 010-1.804l7.207-7.396 1.758 1.804-7.207 7.396zm11.25-11.545l-2.988 3.067L37.4 4.97l2.988-3.067a1.223 1.223 0 011.758 0 1.3 1.3 0 010 1.804z"/><path d="M25.56 26.53c1.508 0 2.735-1.259 2.735-2.806 0-.39-.114-1.111-1.096-2.848a27.95 27.95 0 00-1.025-1.669l-.614-.911-.614.911c-.02.031-.52.774-1.025 1.67-.982 1.736-1.096 2.456-1.096 2.847 0 1.547 1.227 2.806 2.735 2.806zm0-5.487c.672 1.118 1.243 2.272 1.243 2.681 0 .703-.558 1.276-1.243 1.276s-1.243-.573-1.243-1.276c0-.409.57-1.563 1.243-2.68z"/></g><defs><clipPath id="clip0"><path fill="#fff" d="M0 0h44v50H0z"/></clipPath></defs></svg>