<svg width="33" height="40" fill="none" xmlns="http://www.w3.org/2000/svg"><g clip-path="url(#clip0)" fill="#B777BE"><path d="M32.089 16.19l-2.223-2.39c.432-.71.586-1.538.432-2.357a3.401 3.401 0 00-1.464-2.206L25.627 7.08a3.334 3.334 0 00-.286-1.486 3.46 3.46 0 00-1.934-1.832l-7.094-2.75a3.593 3.593 0 00-2.638.012A3.565 3.565 0 0011.165 0H3.526C1.582 0 0 1.54 0 3.43v29.428C0 36.796 3.296 40 7.346 40c1.843 0 3.53-.663 4.821-1.758a.646.646 0 00.054-.041l13.753-12.035a.577.577 0 00.044-.83.616.616 0 00-.852-.043l-.567.496-1.841-1.98 2.89-4.063 2.628 2.826-1.196 1.046a.576.576 0 00-.045.83.61.61 0 00.45.194.61.61 0 00.403-.151l3.95-3.456a3.372 3.372 0 001.157-2.372 3.352 3.352 0 00-.906-2.473zm-2.98-4.537a2.19 2.19 0 01-.374 1.688l-1.64 2.305-3.734-2.51 1.977-4.822 2.81 1.89c.509.342.85.857.962 1.45zm-5.741 9.234l-2.497-1.68 2.03-4.952 3.507 2.358-3.04 4.274zm-3.728 5.24l-1.26-.847 2.032-4.953 2.269 1.526-3.04 4.274zm.93-9.358l-1.75-.68a.61.61 0 00-.785.329.582.582 0 00.337.763l1.75.678-2.074 5.061-3.356-1.3v-5.866l1.278.496a.612.612 0 00.785-.328.582.582 0 00-.337-.763l-1.726-.67V8.625l7.953 3.084-2.075 5.06zm-7.086-3.667H6.64a.596.596 0 00-.604.588c0 .324.27.587.604.587h6.843v5.449H1.208v-5.449h2.858a.596.596 0 00.604-.587.596.596 0 00-.604-.588H1.208V7.654h12.275v5.448zM1.208 20.9h12.275v5.448H1.208V20.9zm13.484 1.984l2.908 1.128-2.908 7.092v-8.22zm3.764 6.974l.67.72-3.131 2.74 2.461-3.46zm-2.61 1.605l2.076-5.063 1.031.693-3.107 4.37zm.02-29.36l7.093 2.75a2.278 2.278 0 011.272 1.205c.168.38.225.789.17 1.189a2.213 2.213 0 01-.146.537l-1.162 2.833-8.401-3.258V3.43c0-.5-.112-.974-.31-1.403a2.362 2.362 0 011.484.077zM3.527 1.176h7.637c1.279 0 2.32 1.011 2.32 2.255v3.05H1.208V3.43c0-1.244 1.04-2.255 2.32-2.255zM1.208 32.858v-5.335h12.275v5.335c0 3.29-2.753 5.968-6.137 5.968-3.385 0-6.138-2.678-6.138-5.968zm22.493-6.283l-3.677 3.217-.862-.927 2.89-4.063 1.649 1.773zm8.087-7.97a2.216 2.216 0 01-.76 1.558l-1.854 1.623-2.82-3.033 2.812-3.953 2.027 2.179c.415.446.627 1.023.595 1.625z"/><path d="M7.209 30.063c-1.598 0-2.897 1.263-2.897 2.817 0 1.553 1.3 2.816 2.897 2.816 1.597 0 2.897-1.263 2.897-2.816 0-1.554-1.3-2.818-2.897-2.818zm0 4.458c-.931 0-1.689-.736-1.689-1.642 0-.905.758-1.642 1.689-1.642.93 0 1.689.737 1.689 1.643 0 .905-.758 1.641-1.69 1.641z"/></g><defs><clipPath id="clip0"><path fill="#fff" d="M0 0h33v40H0z"/></clipPath></defs></svg>