<svg width="40" height="37" fill="none" xmlns="http://www.w3.org/2000/svg"><g clip-path="url(#clip0)" fill="#B777BE"><path d="M39.888 20.338c.036-.257.073-.513.112-.77v-2.225c-.03-.21-.059-.418-.087-.628a23.305 23.305 0 00-.217-1.403c-1.015-5.153-3.933-9.273-8.673-12.247-2.789-1.75-5.975-2.76-9.47-3.006A2.134 2.134 0 0121.2 0h-2.445l-.69.084c-.515.061-1.048.125-1.562.203C8.691 1.474 2.103 7.298.483 14.45a21.158 21.158 0 00-.293 1.746c-.04.29-.083.588-.13.885-.016.1-.037.192-.056.273L0 17.37v2.25l.006.026c.023.098.052.22.063.358.232 2.748 1.109 5.356 2.607 7.749 4.485 7.163 13.351 10.664 22.061 8.711a20.697 20.697 0 005.567-2.118c.31-.173.456-.444.401-.743-.052-.286-.287-.505-.613-.573-.19-.04-.392.016-.769.214-4.718 2.475-9.692 3-14.784 1.561-4.616-1.304-8.437-4.194-10.76-8.136-2.318-3.938-2.876-8.475-1.57-12.773C3.423 9.893 6.166 6.44 9.93 4.174c3.769-2.269 8.293-3.186 12.74-2.582 4.577.62 8.412 2.59 11.398 5.855 3.373 3.687 4.818 8.02 4.298 12.877-.284 2.651-1.282 5.202-2.965 7.582-.15.213-.208.44-.162.638.04.17.156.314.334.418.385.225.818.11 1.104-.294 1.473-2.08 2.459-4.298 2.929-6.593a28.68 28.68 0 00.282-1.737z"/><path d="M23.877 15.19a.81.81 0 00-1.076-.005.67.67 0 00-.225.494.67.67 0 00.219.497c.142.13.333.207.537.208a.785.785 0 00.538-.201.663.663 0 00.009-.992l-.002-.001zm-3.101 2.867a.81.81 0 00-1.076-.005.67.67 0 00-.006.992.8.8 0 00.537.207.785.785 0 00.538-.201.664.664 0 00.009-.991l-.002-.002zm6.202-5.734a.81.81 0 00-1.076-.006.67.67 0 00-.225.494.67.67 0 00.219.498c.142.13.332.206.537.207a.784.784 0 00.537-.2.663.663 0 00.007-.993zm-9.303 8.602a.81.81 0 00-1.076-.005.67.67 0 00-.224.493.67.67 0 00.218.498.8.8 0 00.537.207.785.785 0 00.538-.2.664.664 0 00.009-.991l-.002-.002zm-3.101 2.867a.81.81 0 00-1.076-.005.67.67 0 00-.224.494.67.67 0 00.218.498.8.8 0 00.537.207.785.785 0 00.538-.201.663.663 0 00.007-.993z"/><path d="M30.689 15.657c-.39 0-.707-.292-.707-.653V10.09c0-.305-.268-.553-.598-.553H24.07c-.39 0-.706-.292-.706-.653 0-.361.316-.654.706-.654h5.314c1.11 0 2.011.835 2.011 1.86v4.914c0 .36-.316.653-.706.653zM15.937 29.298h-5.314c-1.109 0-2.01-.834-2.01-1.86v-4.913c0-.361.316-.653.706-.653.39 0 .706.292.706.653v4.914c0 .305.269.553.598.553h5.314c.39 0 .707.292.707.653 0 .36-.316.653-.707.653z"/></g><defs><clipPath id="clip0"><path fill="#fff" d="M0 0h40v37H0z"/></clipPath></defs></svg>