<svg width="20" height="20" fill="none" xmlns="http://www.w3.org/2000/svg"><path d="M17.981 11.205c-.49 4.06-3.4 4.32-3.93 4.5-.23.07-2.35.61-5.01.44l-2.89 3.2v-3.69l-.02-.01c-3.88-1.1-3.75-5.24-3.7-7.41.04-2.17.43-3.94 1.62-5.14 2.12-1.97 6.5-1.68 6.5-1.68 3.7.02 5.47 1.16 5.88 1.54 1.36 1.2 2.05 4.06 1.55 8.25zm-.55-9.26c-.49-.46-2.45-1.92-6.82-1.93 0 0-5.15-.32-7.66 2.04-1.4 1.43-1.89 3.53-1.94 6.12-.05 2.6-.12 7.47 4.46 8.79v2.01s-.03.82.49.98c.63.2 1.01-.42 1.61-1.09.33-.37.79-.91 1.14-1.32 3.13.27 5.55-.35 5.82-.44.63-.21 4.21-.68 4.8-5.55.61-5.01-.28-8.18-1.9-9.61z" fill="#B777BE"/><path d="M14.641 11.815s-.59-.5-.87-.72c-.27-.2-.7-.48-.94-.61-.43-.25-.87-.09-1.05.15l-.38.49c-.19.25-.49.21-.57.19-.56-.14-1.15-.49-1.76-1.08-.63-.6-1-1.22-1.13-1.87l-.01-.04c-.04-.27.01-.39.12-.57l.02-.02c.26-.24.73-.53.79-.8.19-.48-.62-1.48-.74-1.65 0 0-.59-.78-.8-.93-.22-.18-.57-.29-.92-.07l-.02.01c-1.01.68-1.38 1.08-1.28 1.67l.05.23c.51 1.62 1.51 3.35 2.98 4.88 1.46 1.52 3.05 2.43 4.6 3.06.41.13.83.02 1.26-.35h.01c.33-.31.59-.64.79-.99v-.01c.19-.38.13-.73-.15-.97zm-2.43-3.55c-.06 0-.11-.05-.12-.11-.02-.42-.13-.74-.34-.96-.2-.21-.5-.33-.9-.35-.06 0-.11-.06-.11-.13s.06-.12.12-.11c.45.03.81.17 1.05.43s.38.63.4 1.11c.02.06-.03.12-.1.12z" fill="#B777BE"/><path d="M13.371 8.665c-.07 0-.12-.06-.12-.12.02-.81-.22-1.49-.7-2.03-.24-.27-.53-.48-.87-.63-.34-.15-.73-.24-1.16-.28-.06 0-.11-.06-.11-.13s.06-.12.12-.11c.93.07 1.67.4 2.19.98s.78 1.32.76 2.19c0 .08-.05.13-.11.13z" fill="#B777BE"/><path d="M14.551 9.135c-.06 0-.12-.05-.12-.12-.01-.71-.11-1.36-.32-1.92-.21-.55-.52-1.04-.92-1.45-.41-.41-.87-.72-1.38-.92-.51-.2-1.07-.31-1.68-.31-.06 0-.12-.05-.12-.12 0-.07.05-.12.12-.12 1.28.01 2.36.45 3.22 1.31.43.43.76.95.98 1.54.22.58.33 1.26.34 2-.01.06-.06.11-.12.11z" fill="#B777BE"/></svg>