<svg width="20" height="20" fill="none" xmlns="http://www.w3.org/2000/svg"><path d="M16.378 3.619A8.895 8.895 0 0010.041 1C5.095 1 1.08 5.005 1.072 9.919c0 1.575.416 3.105 1.194 4.455L1 19l4.755-1.242a8.994 8.994 0 004.286 1.089c4.936 0 8.959-4.005 8.959-8.919a8.843 8.843 0 00-2.622-6.309zm-6.337 13.716A7.495 7.495 0 016.244 16.3l-.272-.162-2.82.738.75-2.736-.18-.279a7.413 7.413 0 01-1.14-3.942c0-4.086 3.345-7.416 7.45-7.416 1.989 0 3.86.774 5.27 2.178a7.349 7.349 0 012.18 5.247c0 4.086-3.337 7.407-7.441 7.407zm4.086-5.544c-.226-.108-1.329-.648-1.528-.729-.208-.072-.352-.108-.506.108-.154.225-.579.729-.705.873-.127.153-.262.171-.489.054-.225-.108-.949-.351-1.799-1.107-.669-.594-1.112-1.323-1.247-1.548-.136-.216-.018-.333.09-.441.109-.099.226-.261.344-.396.108-.126.144-.225.217-.369.072-.153.036-.279-.018-.387-.055-.117-.498-1.215-.687-1.656-.181-.432-.371-.378-.507-.387-.126-.009-.28-.009-.425-.009a.814.814 0 00-.596.279c-.208.225-.787.765-.787 1.863 0 1.098.805 2.16.913 2.304.109.153 1.582 2.403 3.825 3.366.533.234.949.369 1.274.468.534.171 1.022.144 1.41.09.434-.063 1.33-.54 1.51-1.062.19-.522.19-.963.127-1.062-.045-.09-.199-.144-.416-.252z" fill="#B777BE"/></svg>