<svg width="26" height="24" fill="none" xmlns="http://www.w3.org/2000/svg"><path d="M13 2.16c3.473 0 3.885.015 5.25.071 1.27.052 1.956.249 2.413.413a4.068 4.068 0 011.493.895c.457.422.736.82.97 1.378.177.422.39 1.06.447 2.227.06 1.265.076 1.645.076 4.847 0 3.206-.015 3.586-.076 4.846-.056 1.172-.27 1.805-.447 2.227a3.697 3.697 0 01-.97 1.378c-.457.422-.889.68-1.493.895-.457.165-1.148.361-2.412.413-1.371.056-1.783.07-5.251.07-3.473 0-3.885-.014-5.25-.07-1.27-.052-1.956-.248-2.413-.413a4.067 4.067 0 01-1.493-.895 3.677 3.677 0 01-.97-1.378c-.178-.422-.39-1.06-.447-2.227-.06-1.265-.076-1.645-.076-4.846 0-3.207.015-3.586.076-4.847.056-1.172.27-1.805.447-2.227.234-.558.518-.96.97-1.378.457-.422.889-.68 1.493-.895.457-.164 1.148-.361 2.412-.413 1.366-.056 1.778-.07 5.251-.07zM13 0C9.47 0 9.029.014 7.643.07 6.26.127 5.312.333 4.489.628c-.858.31-1.584.717-2.305 1.388A5.857 5.857 0 00.68 4.139C.36 4.903.137 5.775.076 7.05.016 8.334 0 8.742 0 12s.015 3.666.076 4.945c.061 1.275.285 2.152.604 2.911a5.834 5.834 0 001.504 2.128 6.432 6.432 0 002.3 1.383c.828.296 1.772.502 3.154.558 1.386.056 1.828.07 5.357.07 3.53 0 3.971-.014 5.357-.07 1.382-.056 2.331-.262 3.154-.558a6.432 6.432 0 002.3-1.383 5.842 5.842 0 001.498-2.123c.32-.764.544-1.636.605-2.911.06-1.28.076-1.688.076-4.945 0-3.258-.015-3.666-.076-4.946-.061-1.275-.285-2.151-.605-2.91a5.578 5.578 0 00-1.488-2.133 6.432 6.432 0 00-2.3-1.383C20.688.338 19.744.13 18.363.075 16.97.015 16.529 0 13 0z" fill="#B777BE"/><path d="M13 5.836c-3.687 0-6.678 2.76-6.678 6.164 0 3.403 2.991 6.164 6.678 6.164s6.678-2.76 6.678-6.164c0-3.403-2.991-6.164-6.678-6.164zm0 10.162c-2.392 0-4.332-1.79-4.332-3.998S10.608 8.002 13 8.002s4.332 1.79 4.332 3.998-1.94 3.998-4.332 3.998zm8.5-10.406c0 .797-.7 1.44-1.558 1.44-.864 0-1.56-.647-1.56-1.44 0-.796.702-1.439 1.56-1.439.858 0 1.559.647 1.559 1.44z" fill="#B777BE"/></svg>