<svg width="216" height="84" fill="none" xmlns="http://www.w3.org/2000/svg"><g clip-path="url(#clip0)" fill="#1D1D1B"><path d="M113.496 22.647a185.62 185.62 0 00-15.612 19.356c-4.909 6.834-9.633 13.958-13.298 21.554l2.099-.884c-3.244-3.03-8.095-3.903-12.316-4.577-7.384-1.163-14.97-1.163-22.417-.93A287.018 287.018 0 001.648 63.26l-.492.884C46.835 40.863 93.86 21.158 143.626 8.771c.578-.14 2.238-1.402.804-1.047C94.294 20.21 46.835 40.054.867 63.51c-.225.123-1.486 1.1-.485.89a293.72 293.72 0 0148.32-6.014 140.427 140.427 0 0121.614.582c4.683.541 10.644 1.332 14.275 4.717.463.436 1.874-.413 2.094-.878 3.63-7.555 8.331-14.535 13.165-21.333a180.075 180.075 0 0115.612-19.356c.399-.424-1.596.146-1.96.53h-.006zm-3.435 25.423a9.77 9.77 0 00-7.516.912c-1.371.727-3.643 2.594-3.36 4.415.284 1.82 3.25.918 4.337.546a16.02 16.02 0 007.297-4.984c.41-.506-1.637.174-1.96.53-1.018 1.098-2.787 2.907-2.313 4.594.387 1.384 3.093.616 3.92.413.578-.14 2.238-1.402.804-1.041-4.418 1.105-2.041-2.78-.451-4.496l-1.96.53a11.068 11.068 0 01-4.626 3.43c-.728.286-2.313.797-2.845-.087-.433-.732.295-1.826.7-2.367 1.44-1.937 3.966-1.86 6.059-1.28.631.175 2.198-1.046 1.943-1.116h-.029zm38.648 1.302c-1.272.954-2.44 2.1-2.313 3.81.092 1.162 1.486 1.162 2.313 1.075 3.399-.238 6.793-2.75 8.869-5.298.411-.506-1.63.174-1.954.53-.416.453-3.556 3.983-2.024 4.745s3.631-.977 4.684-1.745c1.185-.884-.85-.395-1.307-.046-.879.657-1.833 1.023-1.475-.39.301-1.163 1.284-2.21 2.076-3.07l-1.954.528c-1.44 1.745-3.331 3.31-5.643 3.63-2.637.366-1.087-2.873 0-3.694 1.185-.884-.845-.395-1.307-.052l.035-.023z"/><path d="M118.15 48.854c-2.127-.081-7.06 4.176-3.671 5.531 1.387.582 3.232-.988 4.099-1.896 1.96-2.047 3.429-4.6 4.932-6.979 2.394-3.786 4.747-7.56 7.239-11.306 6.494-9.684 13.987-18.873 23.377-25.852a58.283 58.283 0 018.147-5.048 50.758 50.758 0 014.441-1.99c-.341.134-.041-.476-.312-.029-.885 1.443-1.949 2.792-2.949 4.153-9.957 13.551-20.237 26.864-30.183 40.427-4.388 5.984-8.811 11.98-12.824 18.227a23.568 23.568 0 00-2.55 4.537c-.578 1.645 1.694.453 2.22-.117 5.459-5.862 8.442-13.958 15.207-18.68 3.33-2.327 2.932 2.523 4.47 3.815 2.59 2.18 8.297-2.792 10.049-4.112 1.156-.89-.85-.396-1.313-.047-1.324.995-5.441 4.961-6.996 2.757-.636-.902-.665-2.146-1.214-3.112-1.301-2.291-4.823-.314-6.308.646-6.8 4.391-10.68 12.632-15.52 18.873-.705.913 1.388.21 1.4-.373.021-.185.067-.367.139-.54.296-.739.66-1.447 1.087-2.117 1.376-2.367 2.937-4.624 4.486-6.88 4.817-6.98 9.882-13.831 14.947-20.653 9.003-12.12 18.456-23.962 27.129-36.344.168-.239 1.562-1.937.503-1.745-4.937.983-10.118 4.595-14.195 7.421-9.21 6.398-16.646 15.087-23.087 24.2-3.55 5.031-6.748 10.3-10.055 15.5a55.73 55.73 0 01-3.423 4.955 5.882 5.882 0 01-1.29 1.338c.451-.28.532-.081.185-.221-1.035-.413-.884-3.245.168-3.205.526 0 2.313-1.163 1.665-1.163v.03zm41.047-1.89c-1.804 4.833 6.025 3.873 8.326 2.28l-1.636.244c-1.734 1.948-3.301 6.113.879 4.7 2.793-.949 4.932-3.293 7.193-5.066.913-.71 1.249.14 1.463 1.163.335 1.588.196 4.292 2.359 4.437 4.354.285 9.309-5.688 11.911-8.287l-1.827.39c-10.009 10.805-17.925 23.996-24.863 36.92l2.018-.949c-4.186-2.367-11.084-6.182-11.102-11.783 0-4.28 5.493-6.363 8.569-7.887 3.996-1.977 8.026-3.896 12.114-5.693a141.959 141.959 0 0111.783-4.554c2.146-.727 4.32-1.35 6.505-1.943.995-.267 2.001-.511 3.001-.75 1.324-.32 2.423-.582 1.521.954-1.197 2.134-3.134 3.931-3.712 6.374-.336 1.448 2.099.093 2.44-.215.908-.814 1.26-2.263 1.867-3.28a16.094 16.094 0 013.019-3.525c2.07-1.907 5.348-4.17 8.297-4.07 1.382.034.971 1.133.185 1.587a27.635 27.635 0 01-3.735 1.61c-2.111.832-4.661 1.548-6.413 3.06-1.752 1.512.937 2.012 2.14 2.216 4.151.71 8.505.581 12.72.64.532 0 2.278-1.163 1.666-1.163a102.07 102.07 0 01-12.287-.582c-.214 0-3.741-.582-2.481-1.39 2.822-1.786 6.308-2.449 9.251-4.071.683-.367 1.984-1.059 2.053-1.96.127-1.745-2.949-1.03-3.793-.826-2.689.64-5.233 2.146-7.465 3.74a23.51 23.51 0 00-3.417 3.059 16.688 16.688 0 00-1.671 2.192c-.439.663-.908 2.536-1.48 2.908l1.393-.384c-.971-.529 3.718-6.7 4.048-7.735.543-1.605-5.828.471-6.314.582-8.945 2.326-17.502 5.92-25.852 9.887-3.926 1.855-7.996 3.6-11.65 5.926-2.151 1.379-4.111 3.42-4.377 6.067-.579 5.548 7.337 9.887 11.257 12.12.532.302 1.781-.494 2.024-.948 6.881-12.83 14.756-25.94 24.701-36.67.428-.465-1.515.082-1.822.384-1.156 1.163-7.909 9.067-9.69 6.118-.833-1.378-.411-3.204-1.157-4.617-.873-1.635-3.608.22-4.504.878-1.041.768-5.62 5.467-6.516 3.943-.7-1.163 1.023-3.292 1.734-4.071.492-.547-1.439.105-1.63.238-2.082 1.443-5.909-.337-4.909-3.012.104-.285-1.879.174-2.105.78l-.029.034z"/></g><defs><clipPath id="clip0"><path fill="#fff" d="M0 0h216v84H0z"/></clipPath></defs></svg>