<svg width="65" height="65" fill="none" xmlns="http://www.w3.org/2000/svg"><g clip-path="url(#clip0_663:1525)" fill="#fff"><path d="M53.7 40.1c.3 0 .7-.1.9-.4l9.7-11.1c.3-.4.4-1 .1-1.4L54 11.4c-.2-.3-.6-.5-1-.5H11.6c-.4 0-.8.2-1 .5L.2 27.1c0 .1-.1.1-.1.2-.2.4-.1.9.2 1.2l5.3 6c.2.3.4.5.7.5.3 0 .6-.1.8-.3.5-.4.5-1.2.1-1.6L3.7 29H21v.1l8.7 29.6-.3-.4-9.7-11c-.2-.2-.5-.4-.8-.4h-.1c-.3 0-.5.1-.8.3-.2.2-.4.5-.4.8 0 .3.1.6.3.8l13.4 15.3c.2.3.5.4.9.4.3 0 .7-.1.9-.4l14.2-16.3c.2-.2.3-.5.3-.8 0-.3-.2-.6-.4-.8-.2-.2-.5-.3-.8-.3-.3 0-.6.2-.8.4L34.8 58.7 43.5 29h17.3l-8 9.2c-.4.5-.4 1.2.1 1.6.2.2.5.3.8.3zM32.3 14.3l8.1 12.4H24l8.2-12.5.1.1zm-29 12.4l8.3-12.5 8.2 12.5H3.3zm18.5-1.1l-8.1-12.4h16.4l-8.2 12.5-.1-.1zm10.5 33.5l-.1-.3L23.4 29H41l-8.7 30.1zm10.3-33.4l-.1-.1-8.1-12.4h16.4l-8.2 12.5zm2.2 1L53 14.1l.1.1 8.1 12.4H44.8v.1z"/><path d="M19.8 41.3c-3.3 0-6-2.7-6-6 0-.6-.5-1.2-1.2-1.2-.6 0-1.2.5-1.2 1.2 0 3.3-2.7 6-6 6-.6 0-1.2.5-1.2 1.2 0 .6.5 1.2 1.2 1.2 3.3 0 6 2.7 6 6 0 .6.5 1.2 1.2 1.2.6 0 1.2-.5 1.2-1.2 0-3.3 2.7-6 6-6 .6 0 1.2-.5 1.2-1.2-.1-.6-.6-1.2-1.2-1.2zm-4.4 1.3c-1.1.7-2 1.6-2.7 2.7l-.1.1-.1-.1c-.7-1.1-1.6-2-2.7-2.7l-.1-.1.1-.1c1.1-.7 2-1.6 2.7-2.7l.1-.1.1.1c.7 1.1 1.6 2 2.7 2.7l.1.1-.1.1zm48-37.5c-2.1 0-3.9-1.7-3.9-3.9C59.5.6 59 0 58.3 0c-.6 0-1.2.5-1.2 1.2 0 2.1-1.7 3.9-3.9 3.9-.6 0-1.2.5-1.2 1.2 0 .6.5 1.2 1.2 1.2 2.1 0 3.9 1.7 3.9 3.9 0 .6.5 1.2 1.2 1.2.6 0 1.2-.5 1.2-1.2 0-2.1 1.7-3.9 3.9-3.9.6 0 1.2-.5 1.2-1.2-.1-.7-.6-1.2-1.2-1.2zm-3.8 1.2c-.5.4-.9.8-1.2 1.2l-.1.1-.1-.1c-.4-.5-.8-.9-1.2-1.2l-.1-.1.1-.1c.5-.4.9-.8 1.2-1.2l.1-.1.1.1c.4.5.8.9 1.2 1.2l.1.1-.1.1zM49.9 42c-.3 0-.6.1-.8.3-.2.2-.3.5-.3.8 0 .3.1.6.3.8.2.2.5.3.8.3.3 0 .6-.1.8-.3.2-.2.3-.5.3-.8 0-.3-.1-.6-.3-.8-.2-.2-.5-.3-.8-.3z"/></g><defs><clipPath id="clip0_663:1525"><path fill="#fff" d="M0 0h64.5v64.5H0z"/></clipPath></defs></svg>