<svg width="59" height="61" fill="none" xmlns="http://www.w3.org/2000/svg"><g clip-path="url(#clip0_663:1540)" fill="#fff"><path d="M56.7 35.5h-.9v-8.2c0-1.3-.6-2.4-1.6-3.1v-1.1c0-1.6-1.3-2.9-2.9-2.9h-.7l2.6-3.8c.9-1.3.5-3-.7-3.9L34.9.5c-.6-.4-1.4-.6-2.1-.4-.8.1-1.4.5-1.8 1.1L15.8 23.5h-4.2l1-10.3c0-.1.1-.2.2-.3 1.3-.5 2.4-1.4 3.2-2.6.1-.1.2-.1.3-.1l6.6.7c.5 0 .9-.3.9-.8s-.3-.9-.8-.9l-6.6-.7c-.8-.1-1.5.3-1.9.9-.6.9-1.4 1.5-2.4 1.9-.7.3-1.2.9-1.3 1.7l-1 10.5h-1l1.6-16.3c.1-.6.6-1 1.2-1L25 7.5c.5 0 .9-.3.9-.8s-.3-.9-.8-.9L11.7 4.5c-1.5-.2-2.9 1-3.1 2.5L7.4 20.1H5.2c-1.6 0-2.9 1.3-2.9 2.9v.8c-1.4.6-2.3 2-2.3 3.5v29.4c0 2.1 1.7 3.8 3.8 3.8H52c2.1 0 3.8-1.7 3.8-3.8v-8.2h.9c1.1 0 1.9-.9 1.9-1.9v-9.2c0-1.1-.8-1.9-1.9-1.9zm-5.5-13.6c.7 0 1.2.5 1.2 1.2v.4h-4.2l1.1-1.6h1.9zM32.4 2.2c.2-.2.4-.4.7-.4h.2c.2 0 .4.1.6.2l17.6 12c.5.3.6 1 .3 1.5l-5.5 8.1H45l2.7-4c.4-.6.5-1.5.1-2.1-.5-.9-.7-2-.6-3 .1-.8-.2-1.5-.9-1.9l-9.1-6.2c-.6-.4-1.5-.5-2.1-.1-.9.5-2 .7-3 .6-.8-.1-1.5.2-2 .9L19.2 23.5h-1.3L32.4 2.2zm.4 14.6c-3.8 0-6.8 2.9-7.1 6.6h-4.4L31.5 8.5c.1-.1.2-.1.3-.1 1.4.2 2.8-.1 4.1-.7.1-.1.2 0 .3 0l9.1 6.2c.1.1.1.2.1.3-.2 1.4.1 2.8.8 4 .1.1 0 .2 0 .3l-3.4 4.9h-2.9c-.3-3.6-3.4-6.6-7.1-6.6zm5.3 6.7H27.4c.2-2.7 2.6-4.9 5.4-4.9 2.8 0 5.1 2.1 5.3 4.9zM4 23.1c0-.7.5-1.2 1.2-1.2h2L7 23.5H4v-.4zm-2.3 4.2c0-1.2.9-2.1 2.1-2.1H52c1.2 0 2.1.9 2.1 2.1v2.4H1.7v-2.4zm52.4 25.3H11.9c-.5 0-.9.4-.9.9s.4.9.9.9h42.2v2.4c0 1.2-.9 2.1-2.1 2.1H3.8c-1.2 0-2.1-.9-2.1-2.1v-2.4h4.7c.5 0 .9-.4.9-.9s-.4-.9-.9-.9H1.7V31.4H54v4h-8.2c-2.6 0-4.8 1.5-5.9 3.7v.1c-.1.3-.2.5-.3.8-.2.6-.3 1.3-.3 1.9 0 3.6 2.9 6.5 6.5 6.5H54l.1 4.2zm2.8-6c0 .1-.1.2-.2.2H45.9c-1.8 0-3.4-1-4.2-2.5 0-.1-.1-.1-.1-.2-.1-.1-.1-.3-.2-.4-.2-.5-.3-1.1-.3-1.7 0-.6.1-1.1.3-1.7.1-.1.1-.3.2-.4 0-.1.1-.1.1-.2.8-1.5 2.4-2.5 4.2-2.5h10.8c.1 0 .2.1.2.2v9.2z"/><path d="M46.1 38.5c-1.9 0-3.5 1.6-3.5 3.5s1.6 3.5 3.5 3.5 3.5-1.6 3.5-3.5-1.6-3.5-3.5-3.5zm0 5.3c-1 0-1.8-.8-1.8-1.8s.8-1.8 1.8-1.8 1.8.8 1.8 1.8-.8 1.8-1.8 1.8z"/></g><defs><clipPath id="clip0_663:1540"><path fill="#fff" d="M0 0h58.6v60.5H0z"/></clipPath></defs></svg>