<svg width="47" height="67" fill="none" xmlns="http://www.w3.org/2000/svg"><g clip-path="url(#clip0_663:1538)"><path d="M45.632 33.8c-.2-1.5-1.5-2.8-3.1-3-1-.1-2.1-.2-3.2-.2-1.2-.1-2.1.4-2.7 1.5-.1.2-.3.5-.6.5s-.6-.2-.7-.4c-.3-.4-.5-.8-.7-1.2-.1-.1-.2-.3-.2-.4-1.3-2.4-2.7-4.8-3.9-7.1l-.5-.9v-.1c.3-.4.5-.8.8-1.2.6-.8 1.1-1.6 1.6-2.5 1.2-2.3 1.1-4.9 1.1-7.3-.1-1.8-1.5-3.3-3.4-3.5-1.8-.1-3.5 1.2-3.8 3-.1.6-.1 1.3-.1 1.9v1c0 .2 0 .4-.1.7v.7l-.2-.2c-1.2-1.2-2.4-1.5-3.7-.8-1.3.7-1.8 1.8-1.5 3.5l.1.3-.2-.1c-.8-.5-1.3-1.1-1.5-2-.3-1.4.4-2.6 1.7-3.3 2.7-1.4 4.3-3.6 4.7-6.5.1-1 .1-2.1.1-3.1V1.4c0-.6-.1-1-.5-1.4h-6.3c-.4.3-.6.7-.6 1.3v3.4c0 .7-.3 1.2-.9 1.6-.8.5-1.7 1.1-2.5 1.8-.3.2-.5.5-.5.8 0 .2.1.4.2.6.5.2.9.2 1.5-.3l.3-.2c.5-.4 1-.8 1.6-1.1 1.5-.8 2.2-1.9 2.1-3.7V1.7h3.9v3c-.1 2.9-1.4 5-3.9 6.3-2 1-3 2.9-2.6 5.1.3 2 2 3.5 4.1 3.8.1 0 .5.1.6.3.5.8.9 1.6 1.4 2.5l.5.9h-.2c-3.7 1-8-1.1-9.6-4.8-.9-2-1-4-.3-6.1l.1-.2c.2-.5.2-1.1-.5-1.3-.2-.1-.4-.1-.6 0-.2.1-.4.4-.6.8-1.1 3.2-.7 6.2 1.1 8.9.5.8 1.1 1.4 1.8 2.1.3.3.6.7.9 1l.1.1-.1.1c0 .1-.1.2-.2.4-.4.7-.7 1.3-1.1 2-.9 1.7-1.8 3.4-2.8 5.1-.4.8-.9 1.1-1.6 1h-.5v-.1c-.5-1.3-1.4-1.9-2.8-1.9-.2 0-.5 0-.7.1-.5.1-1.1.1-1.6.1-.3 0-.6 0-.9.1-1.6.1-2.9 1.4-3.1 3-.3 3.2-.5 6.1-.7 9.1-.3 6.1-.1 12.6.7 19.7.2 1.7 1.4 3 3 3.1 1.1.1 2.2.2 3.4.2 1.2 0 2-.5 2.5-1.5.2-.4.4-.5.8-.5 8.4.3 16.9.3 25.4 0 .4 0 .6.1.8.5.5 1 1.3 1.5 2.4 1.5h.1c1.1 0 2.3-.1 3.4-.2 1.5-.2 2.8-1.3 3-2.8.1-.6.1-1.2.2-1.8 0-.5-.3-.9-.7-1-.5 0-.9.3-.9.9 0 .3-.1.6-.1.9v.4c-.1 1.1-.7 1.7-1.7 1.8-.6.1-1.3.1-2 .1h-.6c-.7 0-1 0-1.3-.3-.2-.2-.3-.6-.3-1.3 0-1.1.1-2.1.2-3.2.1-2.3.2-4.7.3-7.1 0-4 0-8-.1-11.9v-1.1c0-1.2-.1-2.5-.2-3.7 0-.8-.1-1.5-.1-2.3 0-.4.1-.7.3-1 .2-.2.5-.3.9-.3 1.1.1 2.1.1 3 .2.9.1 1.5.7 1.6 1.6 0 .4.1.8.1 1.2 0 .2 0 .4.1.6.5 5.4.7 10.8.5 16 0 .9-.1 1.9-.1 2.8 0 .8-.1 1.6-.1 2.5 0 .6.3.9.8.9s.8-.3.9-.8v-.6l.1-1.5c0-1 .1-2.1.1-3.1 0-5.6-.2-11.5-.9-18.2zm-38.3 30.6s-.1 0 0 0c-1 0-2.1-.1-3.3-.2-.8-.1-1.4-.7-1.5-1.6-.8-7.3-1-14.5-.6-21.4.1-1.9.3-3.8.4-5.7l.1-1.4c.1-1 .7-1.6 1.7-1.7.7-.1 1.4-.1 2.1-.1h.7c.5 0 .8.1 1.1.3.2.2.3.5.3 1 0 .8-.1 1.6-.1 2.3-.1 1.1-.2 2.2-.2 3.3-.1 2.6-.1 5.2-.2 7.9 0 1.1-.1 2.2-.1 3.3l.6 12.5v.6c0 .6-.4.9-1 .9zm19.9-47.5c.7-1.3.8-2.7.7-4v-1.2c.1-1.1.9-1.9 2-1.9s1.9.9 1.9 2v.9c0 1.4 0 2.8-.4 4.2-.5 1.5-1.2 2.7-2.2 3.8l-.1.1-.5-.9c-.5-.8-.9-1.7-1.4-2.5-.1-.1-.1-.3 0-.5zm-4.7.7c-.4-.7-.3-1.4.4-1.7.3-.2.6-.2.9-.1.3.1.6.3.8.7 2.3 4.1 4.5 8.2 6.8 12.2l2 3.6v.3h-2.2c-.2 0-.5-.2-.6-.4-2.4-4.4-4.9-9-8.1-14.6zm1 7.8h.3c1 0 1.1 0 1.7 1.1l.7 1.3c.7 1.2 1.4 2.5 2.1 3.7.1.1.1.2.2.4l.2.4h-10.4l.1-.2c.3-.5.6-1.1.9-1.6.7-1.2 1.4-2.4 2-3.6.4-.8.9-1.4 2.2-1.5zm-5.7-.6l2.3.7-1.7 3.1c-.2.3-.3.6-.5.8-.4.8-.9 1.7-1.4 2.5-.1.2-.5.5-.8.5h-2.2l4.3-7.6zm-7.9 9.7c2.3-.5 23.3-.5 26.5-.1h.1l.4 7.7h-27.3l.3-7.6zm26.9 20.9c0 .6-.1 1.2-.1 1.9-.1 1.4-.1 2.9-.2 4.4 0 .7-.4.8-.9.8-2.3 0-4.5 0-6.8.1-3.6 0-7.3.1-11 .1h-.3c-1.6 0-3.2-.1-4.7-.1-.8 0-1.5-.1-2.3-.1-.3 0-.7 0-.7-.6-.1-1.6-.1-3.1-.2-4.7v-2.6h27.1v.3c.1.2.1.4.1.5zm.1-2.5h-27.3v-9.1h27.3v9.1z" fill="#fff"/></g><defs><clipPath id="clip0_663:1538"><path fill="#fff" d="M0 0h46.4v66.1H0z"/></clipPath></defs></svg>