<svg width="60" height="60" fill="none" xmlns="http://www.w3.org/2000/svg"><path d="M53.943 33.614c-1.47 12.18-10.2 12.96-11.79 13.5-.69.21-7.05 1.83-15.03 1.32l-8.67 9.6v-11.07l-.06-.03c-11.64-3.3-11.25-15.72-11.1-22.23.12-6.51 1.29-11.82 4.86-15.42 6.36-5.91 19.5-5.04 19.5-5.04 11.1.06 16.41 3.48 17.64 4.62 4.08 3.6 6.15 12.18 4.65 24.75zm-1.65-27.78c-1.47-1.38-7.35-5.76-20.46-5.79 0 0-15.45-.96-22.98 6.12-4.2 4.29-5.67 10.59-5.82 18.36-.15 7.8-.36 22.41 13.38 26.37v6.03s-.09 2.46 1.47 2.94c1.89.6 3.03-1.26 4.83-3.27.99-1.11 2.37-2.73 3.42-3.96 9.39.81 16.65-1.05 17.46-1.32 1.89-.63 12.63-2.04 14.4-16.65 1.83-15.03-.84-24.54-5.7-28.83z" fill="#B777BE"/><path d="M43.922 35.444s-1.77-1.5-2.61-2.16c-.81-.6-2.1-1.44-2.82-1.83-1.29-.75-2.61-.27-3.15.45l-1.14 1.47c-.57.75-1.47.63-1.71.57-1.68-.42-3.45-1.47-5.28-3.24-1.89-1.8-3-3.66-3.39-5.61l-.03-.12c-.12-.81.03-1.17.36-1.71l.06-.06c.78-.72 2.19-1.59 2.37-2.4.57-1.44-1.86-4.44-2.22-4.95 0 0-1.77-2.34-2.4-2.79-.66-.54-1.71-.87-2.76-.21l-.06.03c-3.03 2.04-4.14 3.24-3.84 5.01l.15.69c1.53 4.86 4.53 10.05 8.94 14.64 4.38 4.56 9.15 7.29 13.8 9.18 1.23.39 2.49.06 3.78-1.05h.03c.99-.93 1.77-1.92 2.37-2.97v-.03c.57-1.14.39-2.19-.45-2.91zm-7.288-10.65c-.18 0-.33-.15-.36-.33-.06-1.26-.39-2.22-1.02-2.88-.6-.63-1.5-.99-2.7-1.05-.18 0-.33-.18-.33-.39 0-.21.18-.36.36-.33 1.35.09 2.43.51 3.15 1.29.72.78 1.14 1.89 1.2 3.33.06.18-.09.36-.3.36z" fill="#B777BE"/><path d="M40.113 25.994c-.21 0-.36-.18-.36-.36.06-2.43-.66-4.47-2.1-6.09a7.49 7.49 0 00-2.61-1.89c-1.02-.45-2.19-.72-3.48-.84-.18 0-.33-.18-.33-.39 0-.21.18-.36.36-.33 2.79.21 5.01 1.2 6.57 2.94 1.56 1.74 2.34 3.96 2.28 6.57 0 .24-.15.39-.33.39z" fill="#B777BE"/><path d="M43.652 27.404c-.18 0-.36-.15-.36-.36-.03-2.13-.33-4.08-.96-5.76-.63-1.65-1.56-3.12-2.76-4.35-1.23-1.23-2.61-2.16-4.14-2.76-1.53-.6-3.21-.93-5.04-.93-.18 0-.36-.15-.36-.36s.15-.36.36-.36c3.84.03 7.08 1.35 9.66 3.93 1.29 1.29 2.28 2.85 2.94 4.62.66 1.74.99 3.78 1.02 6-.03.18-.18.33-.36.33z" fill="#B777BE"/></svg>