<svg width="40" height="39" fill="none" xmlns="http://www.w3.org/2000/svg"><path d="M5.79 14.249h2.84c.405 0 .59-.309.59-.596 0-.286-.185-.594-.59-.594H5.79a.596.596 0 000 1.19zm0-2.222h2.838c.406 0 .591-.308.591-.595 0-.286-.185-.595-.59-.595h-2.84c-.405 0-.59.309-.59.596 0 .286.185.594.59.594zm2.838 15.985H5.79c-.406 0-.59.31-.59.596 0 .287.184.595.59.595h2.838c.406 0 .591-.309.591-.596 0-.286-.185-.595-.59-.595zM5.2 26.387c0 .286.184.595.59.595h2.838c.406 0 .591-.309.591-.596 0-.286-.185-.595-.59-.595h-2.84c-.405 0-.59.309-.59.596zm19.847 1.625h-2.839c-.406 0-.59.31-.59.596 0 .287.184.595.59.595h2.839c.405 0 .59-.309.59-.595 0-.287-.185-.596-.59-.596zm0-2.221h-2.839c-.406 0-.59.309-.59.596 0 .286.184.595.59.595h2.839c.405 0 .59-.309.59-.596 0-.286-.185-.595-.59-.595z" fill="#B777BE"/><path d="M36.97 30.893h-.292V25.45c0-.406-.309-.59-.596-.59-.155 0-.3.052-.408.147a.571.571 0 00-.187.443v5.443H20.26V17.144h4.726v4.054c0 .392.2.746.538.948.585.35 1.073.06 1.639-.275.223-.133.454-.27.71-.38.385.195.657.348.875.47.43.242.609.342.91.342.608 0 1.103-.496 1.103-1.105v-4.054h4.52c.114 0 .206.093.206.207v5.795c0 .406.31.59.596.59s.595-.184.595-.59V17.35c0-.77-.627-1.397-1.397-1.397H20.26V2.397A1.4 1.4 0 0018.862 1H4.048c-.77 0-1.397.627-1.397 1.397v5.776c0 .406.309.591.596.591.286 0 .594-.185.594-.59.039-2.274.012-3.712-.004-4.571-.017-.927-.024-1.274.073-1.372.028-.03.067-.04.138-.04h4.52v4.053c0 .392.2.746.537.948.586.35 1.074.06 1.64-.275a6.13 6.13 0 01.71-.38c.385.195.656.348.875.47.43.242.609.342.91.342.608 0 1.103-.496 1.103-1.105V2.19a74.42 74.42 0 003.497-.005c.77-.017 1.088-.024 1.186.072.03.03.043.07.043.14v13.556H3.842V10.49c0-.406-.31-.59-.596-.59-.287 0-.595.184-.595.59v20.403H2.36A2.362 2.362 0 000 33.253a2.362 2.362 0 002.36 2.36h.167v2.025c0 .737.6 1.337 1.336 1.337h.884c.737 0 1.336-.6 1.336-1.337v-2.026h27.163v2.026c0 .737.599 1.337 1.336 1.337h.884c.737 0 1.336-.6 1.336-1.337v-2.026h.167a2.362 2.362 0 002.36-2.36 2.362 2.362 0 00-2.36-2.36zm-1.358 6.745c0 .08-.066.147-.146.147h-.884a.146.146 0 01-.146-.147v-2.026h1.176v2.026zm-30.718-.537c.012.389.018.584-.048.651-.021.023-.052.032-.098.032a4.798 4.798 0 00-.564 0c-.214.01-.368.016-.432-.045-.023-.023-.035-.056-.035-.1v-2.027h1.175c-.022.677-.007 1.165.002 1.49zm4.212-14.955c.336.2.743.21 1.089.024l1.26-.678 1.26.678c.346.186.754.177 1.09-.025.337-.2.538-.555.538-.947v-4.054h4.726v13.749H3.842V17.144h4.726v4.054c0 .392.2.747.538.948zm4.047-1.092l-1.175-.632c-.57-.307-1.031-.033-1.567.284a6.136 6.136 0 01-.653.35v-3.912h3.395v3.91zm23.816 13.368H2.36a1.17 1.17 0 01-1.169-1.17c0-.644.525-1.169 1.17-1.169h34.61a1.17 1.17 0 010 2.339zM26.176 21.054v-3.91h3.395v3.912c-.235-.103-.448-.229-.653-.35-.37-.22-.706-.418-1.066-.418-.16 0-.326.04-.501.134l-1.175.632zM10.932 5.468L9.758 6.1V2.19h3.395v3.912c-.235-.103-.448-.229-.653-.35-.37-.22-.706-.418-1.066-.418-.16 0-.326.04-.502.134z" fill="#B777BE"/></svg>