<svg width="44" height="50" fill="none" xmlns="http://www.w3.org/2000/svg"><path d="M41.451 21.091l-14.29-9.286a.582.582 0 00-.635 0l-2.047 1.33-6.22-4.041a.582.582 0 00-.634 0L3.473 18.289a.582.582 0 00.634.976l.762-.495v12.07H2.814a.815.815 0 00-.814.814v8.98c0 .449.365.814.814.814H39.07a.97.97 0 00.97-.97v-2.765a.582.582 0 00-1.164 0v2.571h-1.348V29.512a.815.815 0 00-.814-.815h-19.74a.815.815 0 00-.814.815v10.772h-1.35v-19.48l12.032-7.817 12.032 7.818v14.193a.582.582 0 101.164 0V21.56l.778.506a.582.582 0 10.634-.976zm-14.026 8.77h8.939v.94h-8.94v-.94zm0 2.182h8.939v1.018h-8.94v-1.018zm0 2.182h8.939v6.06h-8.94v-6.06zM17.322 29.86h8.94v.94h-8.94v-.94zm0 4.364h3.683a.582.582 0 000-1.164h-3.683v-1.018h8.94v1.018H23.72a.582.582 0 000 1.164h2.541v6.06h-8.939v-6.06zm-10.589 6.06h-3.57v-3.56h3.57v3.56zm0-4.723h-3.57v-3.56h3.57v3.56zm5.502-14.471a.582.582 0 00.634.976l.778-.506v18.723H12.63v-.4a.582.582 0 00-1.164 0v.4h-3.57v-3.559h3.57v.445a.582.582 0 001.164 0v-.794a.816.816 0 00-.815-.814H7.897v-3.908a.815.815 0 00-.815-.815h-1.05V18.014l11.91-7.738 5.469 3.553-11.176 7.262z" fill="#B777BE"/><path d="M24.847 19.135h3.993a.582.582 0 000-1.164h-3.993a.582.582 0 000 1.164zm-7.874 3.377a.815.815 0 00-.815.814v1.523c0 .45.365.815.815.815h5.025a.815.815 0 00.814-.815v-1.523a.815.815 0 00-.814-.814h-5.025zm4.676 1.988h-4.327v-.825h4.327v.825zm1.867-1.174v1.523c0 .45.365.815.814.815h5.025c.45 0 .815-.365.815-.815v-1.523a.815.815 0 00-.815-.814H24.33a.815.815 0 00-.814.814zm1.163.35h4.327v.825H24.68v-.826zm7.009-1.164a.815.815 0 00-.815.814v1.523c0 .45.365.815.814.815h5.026a.815.815 0 00.814-.815v-1.523a.815.815 0 00-.814-.814h-5.026zm4.676 1.988h-4.327v-.825h4.327v.825z" fill="#B777BE"/></svg>