<svg width="33" height="40" fill="none" xmlns="http://www.w3.org/2000/svg"><path d="M32.089 16.19l-2.223-2.39c.432-.71.586-1.538.432-2.357a3.401 3.401 0 00-1.464-2.206L25.627 7.08a3.334 3.334 0 00-.286-1.486 3.46 3.46 0 00-1.934-1.832l-7.094-2.75a3.593 3.593 0 00-2.638.012A3.565 3.565 0 0011.165 0H3.526C1.582 0 0 1.539 0 3.43v29.428C0 36.796 3.296 40 7.346 40c1.843 0 3.53-.664 4.821-1.758a.647.647 0 00.054-.042l13.753-12.034a.577.577 0 00.044-.83.616.616 0 00-.852-.043l-.567.495-1.841-1.979 2.89-4.063 2.628 2.825-1.196 1.046a.576.576 0 00-.045.83.61.61 0 00.45.195.61.61 0 00.403-.151l3.95-3.457a3.372 3.372 0 001.157-2.371 3.352 3.352 0 00-.906-2.473zm-2.98-4.537a2.19 2.19 0 01-.374 1.687l-1.64 2.306-3.734-2.51 1.977-4.822 2.81 1.889c.509.343.85.857.962 1.45zm-5.741 9.234l-2.497-1.68 2.03-4.952 3.507 2.357-3.04 4.275zm-3.728 5.24l-1.26-.847 2.032-4.953 2.269 1.526-3.04 4.274zm.93-9.359l-1.75-.678a.61.61 0 00-.785.328.582.582 0 00.337.763l1.75.678-2.074 5.06-3.356-1.3v-5.865l1.278.496a.614.614 0 00.785-.328.582.582 0 00-.337-.764l-1.726-.669V8.624l7.953 3.084-2.075 5.06zm-7.086-3.666H6.64a.596.596 0 00-.604.588c0 .324.27.587.604.587h6.843v5.448H1.208v-5.448h2.858a.596.596 0 00.604-.587.596.596 0 00-.604-.588H1.208V7.654h12.275v5.448zM1.208 20.9h12.275v5.448H1.208V20.9zm13.484 1.984L17.6 24.01l-2.908 7.093v-8.22zm3.764 6.974l.67.72-3.131 2.74 2.461-3.46zm-2.61 1.604l2.076-5.063 1.031.694-3.107 4.37zm.02-29.358l7.093 2.75c.576.223 1.027.65 1.272 1.204.168.38.225.789.17 1.188l-.003.014a2.212 2.212 0 01-.143.523l-1.162 2.833-8.401-3.257V3.43c0-.499-.112-.973-.31-1.402a2.362 2.362 0 011.484.077zm-12.339-.93h7.637c1.279 0 2.32 1.012 2.32 2.256v3.05H1.208V3.43c0-1.244 1.04-2.255 2.32-2.255zM1.208 32.859v-5.335h12.275v5.335c0 3.29-2.753 5.967-6.137 5.967-3.385 0-6.138-2.677-6.138-5.967zm22.493-6.283l-3.677 3.217-.862-.927 2.89-4.063 1.649 1.773zm8.087-7.971a2.216 2.216 0 01-.76 1.558l-1.854 1.623-2.82-3.032 2.812-3.954 2.027 2.18c.415.446.627 1.023.595 1.625z" fill="#B777BE"/><path d="M7.21 30.062c-1.598 0-2.897 1.264-2.897 2.817 0 1.553 1.299 2.817 2.896 2.817 1.598 0 2.897-1.264 2.897-2.817 0-1.553-1.3-2.817-2.897-2.817zm0 4.459c-.932 0-1.69-.736-1.69-1.642 0-.905.758-1.642 1.69-1.642.93 0 1.688.737 1.688 1.642 0 .906-.758 1.642-1.689 1.642z" fill="#B777BE"/></svg>