<svg width="91" height="58" fill="none" xmlns="http://www.w3.org/2000/svg"><g clip-path="url(#clip0)" fill="#B777BE"><path d="M84.63 24.67l-2.362-9.339a1.42 1.42 0 001.13-1.375v-1.511c0-3.267-2.684-5.927-5.984-5.927H66.678V3.414c0-1.61-1.323-2.914-2.941-2.914H9.027C7.398.5 6.084 1.812 6.084 3.414v25.59c0 .779.634 1.412 1.425 1.412.79 0 1.425-.633 1.425-1.412V3.415a.09.09 0 01.091-.09h54.71c.056 0 .093.045.093.09v25.59c0 .779.634 1.412 1.424 1.412.79 0 1.425-.633 1.425-1.412v-1.601H83.49a4.668 4.668 0 014.43 3.194h-4.43c-.79 0-1.424.634-1.424 1.412v3.013c0 2.434 2.003 4.425 4.467 4.425h1.617v6.208h-3.722c-1.223-3.502-4.587-6.018-8.53-6.018-3.944 0-7.308 2.525-8.53 6.018h-.69V35.022c0-.778-.634-1.411-1.425-1.411-.79 0-1.424.633-1.424 1.411v10.633H34.267c-1.222-3.502-4.586-6.018-8.53-6.018a9.042 9.042 0 00-8.53 6.018h-8.18a.091.091 0 01-.092-.09V42.46h6.176c.791 0 1.425-.634 1.425-1.412 0-.778-.634-1.412-1.425-1.412H1.425A1.403 1.403 0 000 41.04c0 .778.634 1.411 1.425 1.411h4.65v3.104c0 1.611 1.324 2.914 2.942 2.914h7.694v.09c0 4.932 4.044 8.941 9.026 8.941s9.027-4.009 9.027-8.94v-.091H66.87v.09c0 4.932 4.045 8.941 9.027 8.941 4.973 0 9.026-4.009 9.026-8.94v-.091h4.66c.79 0 1.425-.633 1.425-1.412V32.01c-.009-3.71-2.776-6.796-6.379-7.339zM66.678 9.34h10.736c1.728 0 3.135 1.395 3.135 3.105v.09h-13.87V9.341zm0 15.24v-9.221h12.657l2.326 9.22H66.678zm-40.94 30.106c-3.402 0-6.178-2.742-6.178-6.117 0-3.376 2.767-6.118 6.177-6.118 3.401 0 6.177 2.742 6.177 6.118 0 3.375-2.766 6.117-6.177 6.117zm50.16 0c-3.401 0-6.177-2.742-6.177-6.117 0-3.376 2.766-6.118 6.177-6.118 3.4 0 6.177 2.742 6.177 6.118-.01 3.375-2.776 6.117-6.177 6.117zM88.15 36.624h-1.617a1.61 1.61 0 01-1.618-1.602V33.42h3.226l.01 3.204z"/><path d="M25.737 45.655c-1.627 0-2.941 1.312-2.941 2.914 0 1.61 1.323 2.913 2.941 2.913 1.627 0 2.942-1.312 2.942-2.913.009-1.611-1.315-2.914-2.942-2.914zm50.161 0c-1.627 0-2.942 1.312-2.942 2.914 0 1.61 1.324 2.913 2.942 2.913 1.627 0 2.941-1.312 2.941-2.913 0-1.611-1.323-2.914-2.941-2.914zm-16.72-6.027h-21.28c-.79 0-1.424.634-1.424 1.412 0 .778.634 1.412 1.424 1.412h21.28c.79 0 1.424-.634 1.424-1.412 0-.778-.634-1.412-1.424-1.412zM22.704 33.61H4.467c-.79 0-1.425.634-1.425 1.412 0 .779.635 1.412 1.425 1.412h18.237c.79 0 1.425-.633 1.425-1.412 0-.778-.644-1.411-1.425-1.411z"/></g><defs><clipPath id="clip0"><path fill="#fff" transform="translate(0 .5)" d="M0 0h91v57H0z"/></clipPath></defs></svg>