<svg width="24" height="24" fill="none" xmlns="http://www.w3.org/2000/svg"><path d="M19.93 11.865s3.158-4.571 3.474-6.075c.107-.538-.125-.837-.668-.837h-2.741c-.626 0-.858.28-1.049.684 0 0-1.484 3.24-3.29 5.281-.578.66-.876.862-1.192.862-.256 0-.375-.22-.375-.82V5.742c0-.727-.084-.941-.668-.941H9.023c-.334 0-.542.202-.542.47 0 .685 1.025.844 1.025 2.708v3.845c0 .77-.042 1.075-.4 1.075-.941 0-3.182-3.33-4.44-7.108-.25-.776-.518-.99-1.233-.99H.69C.292 4.8 0 5.08 0 5.484c0 .752.858 4.23 4.231 8.887 2.26 3.136 5.233 4.829 7.915 4.829 1.633 0 2.032-.281 2.032-.99V15.8c0-.598.233-.855.566-.855.376 0 1.043.122 2.599 1.699 1.841 1.803 1.967 2.555 2.974 2.555h3.075c.316 0 .608-.153.608-.685 0-.709-.9-1.974-2.283-3.478-.566-.776-1.484-1.607-1.782-1.998-.423-.446-.298-.703-.005-1.174z" fill="#B777BE"/></svg>