<svg width="76" height="86" fill="none" xmlns="http://www.w3.org/2000/svg"><path d="M75.455 46.84l-.03-.48c-.01-.18-.02-1.16-.04-1.33l-.01-.08a1.43 1.43 0 00-1.59-1.25c-.78.09-1.35.8-1.25 1.58l.22 1.86-2.01-.01c-.79 0-1.43.64-1.43 1.42 0 .79.64 1.43 1.43 1.43l1.91.01c-.25 6.1-2.08 11.79-5.1 16.68h-9.85c1.5-4.56 2.41-9.62 2.67-14.89-.35-.49-.67-1-.99-1.52-.81-.97-1.59-2-2.32-3.1h-17.65v-16.7h8.14l2.42.01c.79 0 1.43-.63 1.43-1.41 0-.78-.64-1.41-1.43-1.41l-3.1-.01v.01h-7.47V14.02c3.9.5 7.6 3.05 10.69 7.35h-.01l1.66 2.61a1.426 1.426 0 102.41-1.53l-.36-.56c-.31-.51-.62-1-.95-1.48l-.34-.56-.02.02c-1.15-1.61-2.38-3.02-3.68-4.21 2.69.88 5.24 2.1 7.6 3.58l1.46 1.05c.64.46 1.53.32 2-.32.46-.64.32-1.53-.32-1.99 0 0-1.27-.93-2.8-1.77-.01 0-.01-.01-.02-.01-5.49-3.14-11.97-5.08-18.71-5.08-.78 0-1.41.63-1.41 1.41v15.11h-7.61c-.78 0-1.41.63-1.41 1.41 0 .78.63 1.41 1.41 1.41h7.61v16.7h-18.23c.05-2 .19-3.99.43-5.93.1-.77-.45-1.47-1.23-1.57a1.4 1.4 0 00-1.57 1.22c-.25 2.05-.4 4.16-.45 6.27h-12.2c.02-.54.06-1.07.1-1.6.01-.08.01-.16.02-.24.1-1.09.25-2.16.45-3.21v-.02c.1-.55.22-1.09.35-1.62.94-3.91 2.56-7.65 4.82-11.04.43-.65.25-1.52-.39-1.95-.65-.43-1.52-.25-1.95.39a37.192 37.192 0 00-5.74 14.55l-.06.38c-.04.24-.07.49-.1.73-.03.19-.05.38-.07.57-.03.22-.05.43-.07.65l-.06.68c-.02.19-.03.38-.05.57-.02.27-.03.55-.04.82-.01.15-.02.3-.02.46-.03.43-.04.86-.04 1.29 0 1.94.15 3.84.43 5.69 2.66 17.33 17.27 30.79 35.14 31.7.64.03 1.28.05 1.93.05.65 0 1.29-.02 1.93-.05 17.87-.91 32.48-14.37 35.14-31.7.28-1.86.43-3.76.43-5.69-.01-.58-.02-1.15-.05-1.72zm-72.1 3.13h12.2c.13 5.93 1.08 11.63 2.75 16.7h-9.85c-3.02-4.9-4.85-10.6-5.1-16.7zm22.9 31.16c-.1-.03-.19-.07-.29-.1-.32-.12-.63-.24-.94-.37-.1-.04-.2-.07-.29-.11-.31-.13-.62-.27-.93-.4-.09-.04-.19-.08-.28-.13-.3-.14-.6-.29-.9-.44-.09-.05-.19-.09-.28-.14-.3-.15-.59-.31-.89-.47-.09-.05-.18-.1-.27-.14-.3-.16-.59-.34-.88-.51-.08-.05-.17-.1-.26-.15a15.2 15.2 0 01-.85-.54l-.26-.17c-.29-.19-.58-.4-.87-.6-.07-.05-.14-.09-.2-.14-.31-.22-.61-.45-.91-.68-.05-.03-.09-.07-.14-.1-.32-.25-.63-.5-.94-.75-.03-.02-.05-.04-.08-.06-2-1.67-3.82-3.57-5.4-5.64h8.94c.75 1.86 1.61 3.63 2.56 5.26.32.55.65 1.07.98 1.58.01.01.01.02.02.03l.06.09c.31.47.63.92.95 1.35 0 .01.01.01.02.02 1.03 1.38 2.12 2.6 3.27 3.64-.31-.1-.63-.21-.94-.33zm10.34 1.96c-3.84-.5-7.54-3.02-10.61-7.25-.06-.08-.12-.16-.17-.24-.14-.19-.27-.38-.4-.58-.37-.54-.72-1.1-1.07-1.7-.71-1.21-1.35-2.5-1.94-3.84h14.2v13.61h-.01zm0-16.42h-15.31c-1.77-5.01-2.77-10.72-2.91-16.7h18.21v16.7h.01zm2.82-16.7h18.21c-.14 5.98-1.14 11.7-2.91 16.7h-15.3v-16.7zm0 33.12v-13.6h14.2c-.59 1.35-1.24 2.63-1.94 3.84-.35.59-.71 1.16-1.07 1.7-.13.2-.26.39-.4.58-.06.08-.12.16-.17.24-3.09 4.22-6.78 6.75-10.62 7.24zm20.8-7.96c-.03.02-.05.04-.08.06-.31.25-.62.51-.94.75-.04.03-.09.07-.14.1-.3.23-.6.46-.91.68-.07.05-.14.09-.2.14-.29.2-.58.41-.87.6l-.26.17c-.28.18-.56.36-.85.54-.08.05-.17.1-.26.15-.29.17-.58.35-.88.51-.09.05-.18.1-.27.14-.29.16-.59.32-.89.47-.09.05-.19.09-.28.14-.3.15-.6.3-.9.44-.09.04-.19.08-.28.13-.31.14-.61.28-.93.4-.1.04-.19.08-.29.11-.31.13-.63.25-.94.37-.1.04-.19.07-.29.1-.31.11-.63.22-.94.33 1.15-1.04 2.24-2.26 3.27-3.64l.02-.02c.32-.43.64-.89.95-1.35l.06-.09c.01-.01.01-.02.02-.03.34-.51.67-1.03.99-1.58.96-1.64 1.81-3.4 2.56-5.26h8.94c-1.6 2.07-3.41 3.97-5.41 5.64z" fill="#B777BE"/><path d="M18.225 38.19l.99-1.24c.52-.65 12.74-16 12.74-23.23 0-7.57-6.16-13.72-13.73-13.72-7.58 0-13.74 6.15-13.74 13.71 0 7.23 12.22 22.58 12.74 23.23l1 1.25zm0-35.65c6.17 0 11.19 5.01 11.19 11.17 0 4.81-7.34 15.36-11.19 20.38-3.86-5.01-11.2-15.56-11.2-20.38 0-6.16 5.03-11.17 11.2-11.17z" fill="#B777BE"/><path d="M24.535 13.67c0-3.48-2.83-6.31-6.32-6.31s-6.32 2.83-6.32 6.31c0 3.48 2.83 6.31 6.32 6.31s6.32-2.83 6.32-6.31zm-10.09 0a3.781 3.781 0 017.56 0 3.781 3.781 0 01-7.56 0zm38.1 18.42c0 5.86 9.33 17.69 10.4 19.02l.99 1.24.99-1.24c1.06-1.33 10.4-13.16 10.4-19.02 0-6.27-5.11-11.37-11.39-11.37s-11.39 5.1-11.39 11.37zm11.39-8.83c4.88 0 8.85 3.96 8.85 8.84 0 3.77-5.69 12.02-8.85 16.16-3.16-4.14-8.85-12.39-8.85-16.16 0-4.88 3.97-8.84 8.85-8.84z" fill="#B777BE"/><path d="M63.935 37.42c2.96 0 5.37-2.41 5.37-5.36 0-2.96-2.41-5.36-5.37-5.36s-5.37 2.41-5.37 5.36c0 2.96 2.41 5.36 5.37 5.36zm0-8.18c1.56 0 2.83 1.27 2.83 2.82 0 1.56-1.27 2.82-2.83 2.82s-2.83-1.27-2.83-2.82a2.832 2.832 0 012.83-2.82z" fill="#B777BE"/></svg>