<svg width="20" height="20" viewBox="0 0 20 20" fill="none" xmlns="http://www.w3.org/2000/svg">
<path fill-rule="evenodd" clip-rule="evenodd" d="M1.80982 1.00999L1.71863 1.00045C1.38674 0.988317 1.08871 1.22302 1.0305 1.55935L1.02096 1.65055C1.00882 1.98243 1.24353 2.28047 1.57986 2.33868L2.9364 2.57329L3.75852 12.3681L3.77554 12.5154C3.94095 13.6323 4.90162 14.472 6.04582 14.472H15.8553L16.003 14.4673C17.0785 14.3986 17.9702 13.5853 18.1272 12.5049L18.9803 6.60911L18.9951 6.47368C19.0736 5.39576 18.2196 4.46022 17.1201 4.46022H4.44755L4.23654 1.94157L4.22064 1.84191C4.15911 1.58272 3.94841 1.38013 3.67966 1.33361L1.80982 1.00999ZM5.94161 13.1178C5.49638 13.0691 5.14031 12.7116 5.10228 12.2557L4.56083 5.80866H17.1201L17.1994 5.81449C17.4832 5.85669 17.6883 6.12213 17.6458 6.41605L16.7927 12.3114L16.7713 12.4168C16.6631 12.829 16.2896 13.1235 15.8553 13.1235H6.04583L5.94161 13.1178ZM4.53415 17.2581C4.53415 16.5065 5.14335 15.8962 5.89518 15.8962C6.64691 15.8962 7.25711 16.5064 7.25711 17.2581C7.25711 18.0099 6.6468 18.6192 5.89518 18.6192C5.14346 18.6192 4.53415 18.0098 4.53415 17.2581ZM14.6487 17.2581C14.6487 16.5064 15.2589 15.8962 16.0106 15.8962C16.7624 15.8962 17.3726 16.5064 17.3726 17.2581C17.3726 18.0099 16.7623 18.6192 16.0106 18.6192C15.259 18.6192 14.6487 18.0099 14.6487 17.2581ZM15.0881 8.45699C15.0881 8.08463 14.7862 7.78277 14.4138 7.78277H11.921L11.8295 7.78893C11.5004 7.83357 11.2468 8.11566 11.2468 8.45699C11.2468 8.82935 11.5486 9.13121 11.921 9.13121H14.4138L14.5053 9.12506C14.8344 9.08041 15.0881 8.79832 15.0881 8.45699Z" fill="white"/>
</svg>
