<svg width="91" height="76" viewBox="0 0 91 76" fill="none" xmlns="http://www.w3.org/2000/svg">
<g clip-path="url(#clip0_497:1347)">
<path d="M46.0011 74.8C29.4011 74.8 15.0011 63.6 10.9011 47.6C10.7011 46.9 11.1011 46.2 11.8011 46.1C12.5011 45.9 13.2011 46.3 13.3011 47C17.2011 61.9 30.6011 72.3 46.0011 72.3C64.6011 72.3 79.8011 57.2 79.8011 38.5C79.8011 37.8 80.4011 37.2 81.1011 37.2C81.8011 37.2 82.4011 37.8 82.4011 38.5C82.3011 58.5 66.0011 74.8 46.0011 74.8Z" fill="#B777BE"/>
<path d="M11.0012 38.5C10.3012 38.5 9.70117 37.9 9.70117 37.2C9.80117 17.3 26.0012 1 46.0012 1C62.6012 1 77.0012 12.2 81.1012 28.2C81.3012 28.9 80.9012 29.6 80.2012 29.7C79.5012 29.9 78.9012 29.5 78.7012 28.8C74.9012 13.9 61.4012 3.5 46.0012 3.5C27.4012 3.5 12.3012 18.6 12.3012 37.3C12.3012 38 11.7012 38.5 11.0012 38.5Z" fill="#B777BE"/>
<path d="M11.0008 38.5C10.7008 38.5 10.4008 38.4 10.1008 38.1L6.30078 34.3C5.80078 33.8 5.80078 33 6.30078 32.5C6.80078 32 7.60078 32 8.10078 32.5L11.9008 36.3C12.4008 36.8 12.4008 37.6 11.9008 38.1C11.6008 38.4 11.3008 38.5 11.0008 38.5Z" fill="#B777BE"/>
<path d="M11.0016 38.5C10.7016 38.5 10.4016 38.4 10.1016 38.1C9.60156 37.6 9.60156 36.8 10.1016 36.3L13.9016 32.5C14.4016 32 15.2016 32 15.7016 32.5C16.2016 33 16.2016 33.8 15.7016 34.3L11.9016 38.1C11.6016 38.4 11.3016 38.5 11.0016 38.5Z" fill="#B777BE"/>
<path d="M84.8016 42.3C84.5016 42.3 84.2016 42.2 83.9016 41.9L80.1016 38.1C79.6016 37.6 79.6016 36.8 80.1016 36.3C80.6016 35.8 81.4016 35.8 81.9016 36.3L85.7016 40.1C86.2016 40.6 86.2016 41.4 85.7016 41.9C85.4016 42.1 85.1016 42.3 84.8016 42.3Z" fill="#B777BE"/>
<path d="M77.3004 42.3C77.0004 42.3 76.7004 42.2 76.4004 41.9C75.9004 41.4 75.9004 40.6 76.4004 40.1L80.2004 36.3C80.7004 35.8 81.5004 35.8 82.0004 36.3C82.5004 36.8 82.5004 37.6 82.0004 38.1L78.2004 41.9C77.9004 42.1 77.6004 42.3 77.3004 42.3Z" fill="#B777BE"/>
<path d="M23.5012 66.6C22.8012 66.6 22.2012 66 22.2012 65.3V33.5C22.2012 32.8 22.8012 32.2 23.5012 32.2C24.2012 32.2 24.8012 32.8 24.8012 33.5V65.3C24.8012 66 24.2012 66.6 23.5012 66.6Z" fill="#B777BE"/>
<path d="M68.5012 66.6C67.8012 66.6 67.2012 66 67.2012 65.3V33.5C67.2012 32.8 67.8012 32.2 68.5012 32.2C69.2012 32.2 69.8012 32.8 69.8012 33.5V65.3C69.8012 66 69.2012 66.6 68.5012 66.6Z" fill="#B777BE"/>
<path d="M68.5012 34.8H23.5012C22.8012 34.8 22.2012 34.2 22.2012 33.5C22.2012 32.8 22.8012 32.2 23.5012 32.2H68.5012C69.2012 32.2 69.8012 32.8 69.8012 33.5C69.8012 34.2 69.2012 34.8 68.5012 34.8Z" fill="#B777BE"/>
<path d="M23.5011 34.8C23.3011 34.8 23.1011 34.7 22.9011 34.6C22.3011 34.2 22.1011 33.5 22.5011 32.9L26.3011 26.6C26.7011 26 27.4011 25.8 28.0011 26.2C28.6011 26.6 28.8011 27.3 28.4011 27.9L24.6011 34.2C24.3011 34.5 23.9011 34.8 23.5011 34.8Z" fill="#B777BE"/>
<path d="M68.5007 34.8C68.1007 34.8 67.7007 34.6 67.4007 34.2L63.6007 27.9C63.2007 27.3 63.4007 26.5 64.0007 26.2C64.6007 25.8 65.4007 26 65.7007 26.6L69.5007 32.9C69.9007 33.5 69.7007 34.3 69.1007 34.6C69.0007 34.7 68.7007 34.8 68.5007 34.8Z" fill="#B777BE"/>
<path d="M64.8 28.5H27.3C26.6 28.5 26 27.9 26 27.2C26 26.5 26.6 25.9 27.3 25.9H64.8C65.5 25.9 66.1 26.5 66.1 27.2C66 27.9 65.5 28.5 64.8 28.5Z" fill="#B777BE"/>
<path d="M41.0004 34.8C40.9004 34.8 40.8004 34.8 40.8004 34.8C40.1004 34.7 39.7004 34 39.8004 33.3L41.0004 27C41.1004 26.3 41.8004 25.9 42.5004 26C43.2004 26.1 43.6004 26.8 43.5004 27.5L42.2004 33.8C42.1004 34.3 41.6004 34.8 41.0004 34.8Z" fill="#B777BE"/>
<path d="M51.0015 34.8C50.4015 34.8 49.9015 34.4 49.8015 33.8L48.5015 27.5C48.4015 26.8 48.8015 26.2 49.5015 26C50.2015 25.9 50.8015 26.3 51.0015 27L52.3015 33.3C52.4015 34 52.0015 34.6 51.3015 34.8C51.2015 34.7 51.1015 34.8 51.0015 34.8Z" fill="#B777BE"/>
<path d="M41.0012 42.3C40.3012 42.3 39.7012 41.7 39.7012 41V33.5C39.7012 32.8 40.3012 32.2 41.0012 32.2C41.7012 32.2 42.3012 32.8 42.3012 33.5V41C42.3012 41.7 41.7012 42.3 41.0012 42.3Z" fill="#B777BE"/>
<path d="M51.0012 42.3C50.3012 42.3 49.7012 41.7 49.7012 41V33.5C49.7012 32.8 50.3012 32.2 51.0012 32.2C51.7012 32.2 52.3012 32.8 52.3012 33.5V41C52.3012 41.7 51.7012 42.3 51.0012 42.3Z" fill="#B777BE"/>
<path d="M51.0015 42.3C50.9015 42.3 50.8015 42.3 50.7015 42.3L45.7015 41C45.0015 40.8 44.6015 40.2 44.8015 39.5C45.0015 38.8 45.6015 38.4 46.3015 38.6L51.3015 39.9C52.0015 40.1 52.4015 40.7 52.2015 41.4C52.1015 41.9 51.6015 42.3 51.0015 42.3Z" fill="#B777BE"/>
<path d="M41.0015 42.3C40.4015 42.3 39.9015 41.9 39.8015 41.4C39.6015 40.7 40.0015 40.1 40.7015 39.9L45.7015 38.6C46.4015 38.4 47.0015 38.8 47.2015 39.5C47.4015 40.2 47.0015 40.8 46.3015 41L41.3015 42.3C41.2015 42.2 41.1015 42.3 41.0015 42.3Z" fill="#B777BE"/>
<path d="M57.3 57.3H34.8C34.1 57.3 33.5 56.7 33.5 56C33.5 55.3 34.1 54.7 34.8 54.7H57.3C58 54.7 58.6 55.3 58.6 56C58.5 56.7 58 57.3 57.3 57.3Z" fill="#B777BE"/>
<path d="M57.3 52.3H34.8C34.1 52.3 33.5 51.7 33.5 51C33.5 50.3 34.1 49.7 34.8 49.7H57.3C58 49.7 58.6 50.3 58.6 51C58.5 51.7 58 52.3 57.3 52.3Z" fill="#B777BE"/>
<path d="M51.0012 62.3H41.0012C40.3012 62.3 39.7012 61.7 39.7012 61C39.7012 60.3 40.3012 59.7 41.0012 59.7H51.0012C51.7012 59.7 52.3012 60.3 52.3012 61C52.3012 61.7 51.7012 62.3 51.0012 62.3Z" fill="#B777BE"/>
</g>
<defs>
<clipPath id="clip0_497:1347">
<rect width="80" height="73.8" fill="white" transform="translate(6 1)"/>
</clipPath>
</defs>
</svg>
