<svg width="99" height="76" viewBox="0 0 99 76" fill="none" xmlns="http://www.w3.org/2000/svg">
<g clip-path="url(#clip0_497:1343)">
<path d="M0 28.3C0.6 28.1 1.2 27.8 1.9 27.7C5 27.6 8.1 27.7 11.2 27.7C12.4 27.7 13 28.2 13 29.2C13 30.1 12.4 30.7 11.3 30.7C8.1 30.7 4.9 30.7 1.7 30.7C1.2 30.7 0.6 30.3 0.1 30C0 29.4 0 28.8 0 28.3Z" fill="#B777BE"/>
<path d="M70.9004 25C74.4004 25 77.7004 25.1 81.0004 25C83.1004 25 84.5004 25.8 85.4004 27.6C87.8004 32 90.3004 36.4 92.7004 40.8C93.6004 42.5 94.1004 44.2 94.1004 46.2C94.1004 48.7 94.1004 51.2 94.1004 53.7C94.1004 55.5 93.1004 56.6 91.2004 56.5C89.7004 56.4 88.8004 56.7 88.2004 58.4C87.1004 61.5 83.8004 63.4 80.6004 63.2C77.1004 63 74.3004 60.8 73.3004 57.6C73.2004 57.3 73.1004 57 73.0004 56.7C64.1004 56.7 55.3004 56.7 46.5004 56.7C46.0004 57.8 45.6004 58.9 45.0004 59.8C43.0004 62.5 40.3004 63.7 37.0004 63.1C33.8004 62.5 31.7004 60.6 30.7004 57.5C30.5004 56.8 30.2004 56.7 29.6004 56.7C25.9004 56.7 22.2004 56.7 18.5004 56.7C16.6004 56.7 16.2004 56.3 16.2004 54.5C16.2004 51.8 16.2004 49.2 16.2004 46.5C16.2004 46.2 16.2004 45.8 16.2004 45.4C15.8004 45.4 15.5004 45.4 15.1004 45.4C11.9004 45.4 8.60036 45.4 5.40036 45.4C5.10036 45.4 4.80036 45.4 4.50036 45.4C3.80036 45.3 3.40036 44.8 3.30036 44.1C3.20036 43.4 3.60036 42.8 4.30036 42.6C4.60036 42.5 5.00036 42.5 5.40036 42.5C11.2004 42.5 17.1004 42.5 22.9004 42.5C23.1004 42.5 23.4004 42.5 23.6004 42.5C24.4004 42.6 24.9004 43.2 24.9004 44C24.9004 44.8 24.3004 45.4 23.5004 45.4C22.1004 45.4 20.7004 45.4 19.2004 45.4C19.2004 48.2 19.2004 50.9 19.2004 53.7C19.3004 53.7 19.5004 53.8 19.6004 53.8C23.0004 53.8 26.4004 53.8 29.7004 53.8C30.2004 53.8 30.4004 53.6 30.6004 53.1C31.6004 49.6 34.7004 47.2 38.3004 47.2C41.9004 47.2 45.0004 49.5 46.1004 53C46.3004 53.5 46.4004 53.8 47.1004 53.8C53.9004 53.8 60.6004 53.8 67.4004 53.8C67.5004 53.8 67.6004 53.8 67.9004 53.8C67.9004 41 67.9004 28.2 67.9004 15.3C51.7004 15 35.5004 15 19.2004 15C19.2004 16.4 19.2004 17.9 19.2004 19.5C19.5004 19.5 19.8004 19.5 20.1004 19.5C22.4004 19.5 24.8004 19.5 27.1004 19.5C27.4004 19.5 27.8004 19.5 28.1004 19.6C28.8004 19.8 29.2004 20.2 29.2004 20.9C29.3004 21.6 28.9004 22.2 28.2004 22.4C27.9004 22.5 27.5004 22.5 27.2004 22.5C21.7004 22.5 16.1004 22.5 10.6004 22.5C10.4004 22.5 10.1004 22.5 9.90036 22.5C9.00036 22.4 8.40036 21.8 8.40036 21C8.40036 20.1 9.00036 19.6 10.0004 19.6C11.7004 19.6 13.4004 19.6 15.2004 19.6C15.5004 19.6 15.9004 19.6 16.3004 19.6C16.3004 18 16.3004 16.5 16.3004 15.1C16.3004 13.2 17.3004 12.1 19.2004 12.1C35.5004 12.1 51.7004 12.1 68.0004 12.1C70.0004 12.1 71.0004 13.2 71.0004 15.1C71.0004 18 71.0004 21 71.0004 23.9C70.9004 24.2 70.9004 24.5 70.9004 25ZM91.3004 53.5C91.3004 51 91.3004 48.6 91.3004 46.2C91.3004 44.8 91.0004 43.5 90.3004 42.2C87.8004 37.7 85.3004 33.3 82.8004 28.8C82.4004 28.2 82.0004 27.9 81.3004 27.9C78.2004 27.9 75.0004 27.9 71.9004 27.9C71.6004 27.9 71.4004 27.9 71.1004 28C71.1004 36.5 71.1004 45 71.1004 53.5C73.0004 53.7 73.0004 53.7 73.6004 52.1C74.8004 49 77.8004 46.9 81.1004 46.9C84.5004 46.9 87.5004 48.9 88.7004 52.1C89.3004 53.6 89.3004 53.6 90.9004 53.6C90.9004 53.5 91.0004 53.5 91.3004 53.5ZM43.5004 55.1C43.5004 52.2 41.3004 49.9 38.4004 49.9C35.6004 49.9 33.4004 52.1 33.3004 54.8C33.2004 57.4 35.1004 60.1 38.4004 60.2C41.2004 60.2 43.5004 57.9 43.5004 55.1ZM86.1004 55C86.1004 52.1 83.9004 49.8 81.0004 49.8C78.2004 49.8 75.9004 52.1 75.9004 54.9C75.9004 57.8 78.1004 60.1 81.0004 60.1C83.8004 60.2 86.1004 57.9 86.1004 55Z" fill="#B777BE"/>
<path d="M19.2 35.5C25.5 35.5 31.6 35.5 37.7 35.5C38 35.5 38.3 35.5 38.6 35.5C39.4 35.6 39.9 36.1 39.9 36.9C39.9 37.7 39.5 38.2 38.7 38.4C38.4 38.5 38.1 38.4 37.9 38.4C29.6 38.4 21.3 38.4 13 38.4C12.8 38.4 12.6 38.4 12.4 38.4C11.5 38.3 11 37.7 11 36.9C11 36.1 11.6 35.5 12.5 35.5C13.8 35.5 15 35.5 16.4 35.5C16.4 35 16.4 34.6 16.4 34.2C16.4 32 16.4 29.8 16.4 27.7C16.4 26.4 16.9 25.7 17.8 25.7C18.8 25.7 19.3 26.4 19.3 27.8C19.3 30.1 19.3 32.3 19.3 34.6C19.2 34.8 19.2 35.1 19.2 35.5Z" fill="#B777BE"/>
</g>
<defs>
<clipPath id="clip0_497:1343">
<rect width="94.2" height="51.1" fill="white" transform="translate(0 12)"/>
</clipPath>
</defs>
</svg>
