<svg width="63" height="76" viewBox="0 0 63 76" fill="none" xmlns="http://www.w3.org/2000/svg">
<path d="M61.2608 30.7614L57.0161 26.2194C57.8414 24.8702 58.1353 23.2978 57.8422 21.7407C57.5195 20.0282 56.5271 18.54 55.0476 17.5497L48.9237 13.4514C48.9622 12.4943 48.7807 11.5332 48.378 10.6279C47.6679 9.02916 46.3569 7.79297 44.6855 7.14816L31.143 1.92355C29.5012 1.29041 27.7131 1.30724 26.1065 1.94512C24.8849 0.745352 23.188 0 21.3137 0H6.73418C3.02083 0 0 2.92323 0 6.5166V62.4296C0 69.9125 6.29158 76 14.0236 76C17.5429 76 20.7633 74.7391 23.2281 72.6594C23.2632 72.6354 23.2976 72.6091 23.3311 72.5806L49.5862 49.7157C50.059 49.3036 50.0975 48.5978 49.6717 48.1393C49.2458 47.6817 48.5155 47.6445 48.0434 48.0565L46.9617 48.9982L43.4471 45.237L48.9646 37.5169L53.981 42.8854L51.6985 44.8731C51.2254 45.2857 51.1864 45.9909 51.613 46.4493C51.8406 46.6945 52.1546 46.819 52.4702 46.819C52.745 46.819 53.0207 46.7246 53.2412 46.532L60.7822 39.9653C62.1164 38.7978 62.9001 37.1974 62.9913 35.4595C63.0815 33.7216 62.4671 32.0524 61.2608 30.7614ZM55.5732 22.1411C55.7849 23.2669 55.5317 24.4049 54.8582 25.3464L51.7271 29.7277L44.5976 24.9569L48.3717 15.7961L53.7358 19.3857C54.7089 20.0367 55.3607 21.0148 55.5732 22.1411ZM44.6111 39.6847L39.844 36.4941L43.7212 27.0845L50.4145 31.5637L44.6111 39.6847ZM37.4951 49.6415L35.0905 48.032L38.9677 38.6217L43.2993 41.5199L37.4951 49.6415ZM39.2704 31.86L35.9284 30.5704C35.3365 30.3416 34.6661 30.6207 34.4297 31.1934C34.1941 31.7656 34.4824 32.415 35.0737 32.6432L38.4163 33.9326L34.4544 43.5478L28.0479 41.0762V29.9325L30.4887 30.8742C30.6284 30.9284 30.773 30.9538 30.9153 30.9538C31.373 30.9538 31.8068 30.688 31.9866 30.2512C32.223 29.6782 31.9347 29.0296 31.3426 28.8008L28.0479 27.5298V16.3853L43.2322 22.2448L39.2704 31.86ZM25.7415 24.8942H12.6775C12.0406 24.8942 11.5246 25.3945 11.5246 26.0106C11.5246 26.6267 12.0406 27.1263 12.6775 27.1263H25.7415V37.4781H2.30663V27.1263H7.76253C8.39921 27.1263 8.91605 26.6267 8.91605 26.0106C8.91605 25.3945 8.39921 24.8942 7.76253 24.8942H2.30663V14.5429H25.7406V24.8941H25.7415V24.8942ZM2.30663 39.7102H25.7406V50.0612H2.30663V39.7102ZM28.0479 43.4791L33.6005 45.6214L28.0479 59.0975V43.4791ZM35.2343 56.7294L36.5134 58.0978L30.5357 63.3032L35.2343 56.7294ZM30.2506 59.7785L34.2141 50.1588L36.1833 51.4769L30.2506 59.7785ZM30.2889 3.99693L43.8315 9.22173C44.93 9.64606 45.792 10.4579 46.2594 11.5093C46.5805 12.2322 46.6885 13.0085 46.5821 13.7683C46.5797 13.7768 46.579 13.7861 46.5774 13.7946C46.5285 14.1316 46.4375 14.4641 46.3042 14.7881L44.0863 20.1713L28.0479 13.9824V6.5166C28.0479 5.5672 27.8354 4.66569 27.4566 3.85165C28.3819 3.59891 29.3701 3.64206 30.2889 3.99693ZM6.73418 2.23191H21.3137C23.7545 2.23191 25.7415 4.15388 25.7415 6.5166V12.311H2.30663V6.5166C2.30663 4.15388 4.29277 2.23191 6.73418 2.23191ZM2.30663 62.4296V52.2933H25.7406V62.4296C25.7406 68.6816 20.4846 73.7681 14.0236 73.7681C7.5627 73.7681 2.30663 68.6816 2.30663 62.4296ZM45.2472 50.4919L38.2279 56.605L36.5821 54.8437L42.0993 47.1236L45.2472 50.4919ZM60.6871 35.3475C60.628 36.4901 60.112 37.5424 59.2371 38.3086L55.6955 41.3925L50.3122 35.6311L55.681 28.1188L59.5496 32.2588C60.3427 33.1077 60.7471 34.204 60.6871 35.3475Z" fill="#B777BE"/>
<path d="M13.7626 57.1183C10.7131 57.1183 8.23242 59.5195 8.23242 62.4706C8.23242 65.4215 10.7131 67.8221 13.7626 67.8221C16.8122 67.8221 19.2935 65.4215 19.2935 62.4706C19.2935 59.5195 16.8122 57.1183 13.7626 57.1183ZM13.7626 65.59C11.985 65.59 10.539 64.1907 10.539 62.4706C10.539 60.7503 11.985 59.3503 13.7626 59.3503C15.5403 59.3503 16.9871 60.7503 16.9871 62.4706C16.9871 64.1907 15.5403 65.59 13.7626 65.59Z" fill="#B777BE"/>
</svg>
