<svg width="40" height="37" viewBox="0 0 40 37" fill="none" xmlns="http://www.w3.org/2000/svg">
<g clip-path="url(#clip0)">
<path d="M39.8879 20.3382C39.9243 20.0814 39.9607 19.8246 40 19.5684V17.3427C39.9695 17.1339 39.9414 16.9247 39.9133 16.7155C39.8479 16.2289 39.7861 15.7693 39.6961 15.3123C38.681 10.1591 35.7629 6.03853 31.0231 3.065C28.2343 1.31555 25.0481 0.304286 21.5528 0.0592854C21.4106 0.0493226 21.2898 0.0216423 21.1996 0.000244141H18.7545C18.525 0.0289546 18.2952 0.0563414 18.0653 0.0836779C17.5499 0.145075 17.0169 0.208534 16.5032 0.286617C8.69098 1.47417 2.10332 7.29842 0.483186 14.4501C0.355065 15.0156 0.274711 15.589 0.189686 16.1961C0.149137 16.4852 0.107209 16.7842 0.0598663 17.0808C0.0439446 17.1807 0.0227141 17.2727 0.00403261 17.3537C0.00265326 17.3595 0.00138043 17.3653 0 17.371V19.6202C0.00212283 19.629 0.00414022 19.6379 0.00626304 19.6468C0.0291913 19.7445 0.0576391 19.8662 0.0693152 20.0047C0.300612 22.7535 1.17771 25.3607 2.67589 27.7536C7.16128 34.9172 16.0271 38.4176 24.7372 36.4652C26.7023 36.0246 28.5752 35.3119 30.3038 34.3468C30.6133 34.174 30.7597 33.9033 30.7054 33.6042C30.6534 33.3184 30.4184 33.0987 30.0921 33.031C29.9011 32.9914 29.6997 33.0472 29.3231 33.2447C24.6051 35.7199 19.6307 36.2453 14.5389 34.8062C9.92262 33.5019 6.10171 30.6123 3.77993 26.6697C1.46081 22.7316 0.902578 18.1954 2.2082 13.8971C3.42444 9.89291 6.16699 6.43979 9.93079 4.17374C13.6987 1.90523 18.2232 0.987902 22.6699 1.59162C27.2475 2.21271 31.0824 4.18287 34.0683 7.44733C37.4406 11.1344 38.8864 15.4667 38.3657 20.324C38.0816 22.975 37.084 25.5261 35.4007 27.9064C35.2501 28.1194 35.1929 28.3458 35.2395 28.5437C35.2794 28.7136 35.3948 28.8583 35.573 28.9624C35.9578 29.1871 36.3912 29.0713 36.677 28.6675C38.1502 26.5878 39.1355 24.3698 39.6058 22.0753C39.722 21.508 39.8026 20.9398 39.8879 20.3382Z" fill="#B777BE"/>
<path d="M23.8768 15.1898C23.5805 14.9159 23.0983 14.9134 22.8008 15.1847C22.6572 15.3155 22.5774 15.4909 22.5762 15.6786C22.5749 15.8666 22.6526 16.0434 22.7949 16.1764C22.9368 16.306 23.1276 16.3826 23.3319 16.3836C23.5361 16.3847 23.727 16.3132 23.8696 16.1826C24.0147 16.0497 24.0949 15.8725 24.0956 15.6836C24.0964 15.497 24.0192 15.3222 23.8782 15.1911C23.8777 15.1906 23.8772 15.1902 23.8768 15.1898Z" fill="#B777BE"/>
<path d="M20.776 18.0572C20.4797 17.7833 19.9975 17.7809 19.6999 18.0521C19.5563 18.1829 19.4766 18.3583 19.4754 18.546C19.4741 18.734 19.5517 18.9109 19.694 19.0438C19.836 19.1734 20.0268 19.2501 20.2311 19.251C20.4352 19.2521 20.6261 19.1807 20.7688 19.05C20.9138 18.9171 20.9941 18.7399 20.9948 18.551C20.9955 18.3645 20.9183 18.1896 20.7774 18.0586C20.7769 18.0581 20.7764 18.0577 20.776 18.0572Z" fill="#B777BE"/>
<path d="M26.9776 12.3226C26.6814 12.0486 26.1991 12.0462 25.9016 12.3174C25.758 12.4483 25.6782 12.6237 25.677 12.8113C25.6757 12.9994 25.7534 13.1762 25.8957 13.3092C26.0377 13.4387 26.2284 13.5154 26.4327 13.5163C26.6369 13.5175 26.8278 13.446 26.9704 13.3153C27.1155 13.1825 27.1957 13.0053 27.1964 12.8164C27.1972 12.6298 27.12 12.4549 26.979 12.3239C26.9785 12.3234 26.9781 12.323 26.9776 12.3226Z" fill="#B777BE"/>
<path d="M17.6751 20.9247C17.3789 20.6508 16.8966 20.6484 16.5991 20.9196C16.4555 21.0504 16.3757 21.2258 16.3745 21.4135C16.3733 21.6015 16.4509 21.7783 16.5932 21.9113C16.7352 22.0409 16.9259 22.1175 17.1303 22.1185C17.3344 22.1196 17.5253 22.0482 17.668 21.9175C17.813 21.7846 17.8933 21.6074 17.894 21.4185C17.8947 21.232 17.8175 21.0571 17.6766 20.9261C17.676 20.9256 17.6756 20.9252 17.6751 20.9247Z" fill="#B777BE"/>
<path d="M14.5743 23.792C14.2781 23.518 13.7958 23.5156 13.4983 23.7869C13.3547 23.9177 13.2749 24.0931 13.2737 24.2808C13.2724 24.4688 13.3501 24.6456 13.4924 24.7786C13.6344 24.9081 13.8251 24.9848 14.0294 24.9858C14.2336 24.9869 14.4245 24.9154 14.5671 24.7848C14.7122 24.6519 14.7924 24.4747 14.7931 24.2858C14.7939 24.0992 14.7167 23.9243 14.5757 23.7933C14.5752 23.7928 14.5748 23.7924 14.5743 23.792Z" fill="#B777BE"/>
<path d="M30.6889 15.6571C30.2987 15.6571 29.9823 15.3646 29.9823 15.0038V10.0898C29.9823 9.78501 29.7141 9.53701 29.3845 9.53701H24.0705C23.6803 9.53701 23.364 9.24451 23.364 8.88368C23.364 8.52286 23.6803 8.23035 24.0705 8.23035H29.3845C30.4933 8.23035 31.3954 9.06453 31.3954 10.0898V15.0038C31.3954 15.3646 31.0791 15.6571 30.6889 15.6571Z" fill="#B777BE"/>
<path d="M15.9374 29.2983L10.6233 29.2982C9.51446 29.2982 8.61241 28.4641 8.61241 27.4387L8.6123 22.5248C8.6123 22.164 8.92863 21.8715 9.31883 21.8715C9.70903 21.8715 10.0253 22.164 10.0253 22.5248L10.0255 27.4387C10.0255 27.7435 10.2937 27.9916 10.6233 27.9916L15.9374 27.9917C16.3276 27.9917 16.6439 28.2842 16.6439 28.645C16.6439 29.0058 16.3276 29.2983 15.9374 29.2983Z" fill="#B777BE"/>
</g>
<defs>
<clipPath id="clip0">
<rect width="40" height="37" fill="white" transform="translate(0 0.000244141)"/>
</clipPath>
</defs>
</svg>
