<svg width="33" height="40" viewBox="0 0 33 40" fill="none" xmlns="http://www.w3.org/2000/svg">
<g clip-path="url(#clip0)">
<path d="M32.089 16.1905L29.8656 13.7999C30.2979 13.0898 30.4518 12.2622 30.2983 11.4427C30.1292 10.5414 29.6094 9.75816 28.8344 9.23691L25.6267 7.07993C25.6468 6.57618 25.5518 6.07035 25.3409 5.59389C24.9689 4.75243 24.2822 4.10181 23.4067 3.76243L16.313 1.01264C15.453 0.679409 14.5164 0.688266 13.6749 1.02399C13.035 0.392535 12.1461 0.000244141 11.1643 0.000244141H3.52743C1.58234 0.000244141 0 1.53878 0 3.43003V32.8579C0 36.7963 3.29559 40.0002 7.34572 40.0002C9.18913 40.0002 10.876 39.3366 12.1671 38.242C12.1855 38.2294 12.2035 38.2156 12.2211 38.2006L25.9737 26.1664C26.2214 25.9495 26.2415 25.5781 26.0185 25.3367C25.7954 25.0959 25.4129 25.0763 25.1656 25.2932L24.599 25.7888L22.758 23.8092L25.6481 19.746L28.2758 22.5715L27.0802 23.6176C26.8324 23.8348 26.8119 24.206 27.0354 24.4472C27.1546 24.5763 27.3191 24.6418 27.4844 24.6418C27.6284 24.6418 27.7728 24.5921 27.8883 24.4908L31.8383 21.0346C32.5371 20.4201 32.9477 19.5778 32.9954 18.6632C33.0427 17.7485 32.7209 16.8699 32.089 16.1905ZM29.1098 11.6535C29.2207 12.246 29.088 12.8449 28.7352 13.3405L27.0952 15.6464L23.3606 13.1355L25.3376 8.31399L28.1473 10.2033C28.657 10.5459 28.9985 11.0607 29.1098 11.6535ZM23.3677 20.8869L20.8707 19.2076L22.9016 14.2552L26.4076 16.6127L23.3677 20.8869ZM19.6403 26.1273L18.3807 25.2802L20.4116 20.3274L22.6806 21.8528L19.6403 26.1273ZM20.5702 16.7687L18.8196 16.0899C18.5096 15.9695 18.1584 16.1164 18.0346 16.4178C17.9112 16.719 18.0622 17.0608 18.3719 17.1809L20.1228 17.8595L18.0476 22.9201L14.6918 21.6193V15.7542L15.9703 16.2498C16.0434 16.2784 16.1192 16.2917 16.1937 16.2917C16.4335 16.2917 16.6607 16.1518 16.7549 15.9219C16.8787 15.6203 16.7277 15.279 16.4175 15.1586L14.6918 14.4896V8.6241L22.6454 11.7081L20.5702 16.7687ZM13.4836 13.1024H6.64057C6.30696 13.1024 6.03667 13.3658 6.03667 13.69C6.03667 14.0143 6.30696 14.2772 6.64057 14.2772H13.4836V19.7256H1.20824V14.2772H4.06609C4.39959 14.2772 4.67031 14.0143 4.67031 13.69C4.67031 13.3658 4.39959 13.1024 4.06609 13.1024H1.20824V7.65441H13.4832V13.1024H13.4836V13.1024ZM1.20824 20.9003H13.4832V26.3483H1.20824V20.9003ZM14.6918 22.884L17.6003 24.0115L14.6918 31.1042V22.884ZM18.456 29.8578L19.126 30.5781L15.9949 33.3177L18.456 29.8578ZM15.8456 31.4626L17.9217 26.3996L18.9531 27.0934L15.8456 31.4626ZM15.8656 2.10389L22.9593 4.85379C23.5347 5.07712 23.9863 5.50441 24.2311 6.05774C24.3993 6.43826 24.4559 6.84681 24.4002 7.2467C24.3989 7.25118 24.3985 7.25608 24.3977 7.26056C24.3721 7.43795 24.3244 7.61295 24.2546 7.78347L23.0928 10.6167L14.6918 7.35941V3.43003C14.6918 2.93035 14.5804 2.45587 14.382 2.02743C14.8667 1.89441 15.3844 1.91712 15.8656 2.10389ZM3.52743 1.17493H11.1643C12.4428 1.17493 13.4836 2.18649 13.4836 3.43004V6.47972H1.20824V3.43003C1.20824 2.1865 2.24859 1.17493 3.52743 1.17493ZM1.20824 32.8579V27.5231H13.4832V32.8579C13.4832 36.1485 10.73 38.8256 7.34571 38.8256C3.96142 38.8256 1.20824 36.1485 1.20824 32.8579ZM23.7009 26.5749L20.0241 29.7923L19.162 28.8653L22.052 24.8021L23.7009 26.5749ZM31.7885 18.6042C31.7575 19.2056 31.4872 19.7594 31.0289 20.1626L29.1738 21.7858L26.354 18.7535L29.1662 14.7996L31.1926 16.9786C31.6081 17.4253 31.8199 18.0023 31.7885 18.6042Z" fill="#B777BE"/>
<path d="M7.20875 30.0625C5.61141 30.0625 4.31201 31.3263 4.31201 32.8795C4.31201 34.4326 5.61141 35.696 7.20875 35.696C8.80619 35.696 10.1059 34.4326 10.1059 32.8795C10.1059 31.3263 8.80619 30.0625 7.20875 30.0625ZM7.20875 34.5212C6.27767 34.5212 5.52024 33.7848 5.52024 32.8795C5.52024 31.9741 6.27767 31.2372 7.20875 31.2372C8.13994 31.2372 8.89779 31.9741 8.89779 32.8795C8.89779 33.7848 8.13994 34.5212 7.20875 34.5212Z" fill="#B777BE"/>
</g>
<defs>
<clipPath id="clip0">
<rect width="33" height="40" fill="white" transform="translate(0 0.000244141)"/>
</clipPath>
</defs>
</svg>
