<svg width="20" height="20" viewBox="0 0 20 20" fill="none" xmlns="http://www.w3.org/2000/svg">
<g clip-path="url(#clip0)">
<path d="M18.54 1.19003L0.780003 8.16003C0.780003 8.16003 -0.0599966 8.45004 0.0100034 8.98003C0.0800034 9.51003 0.760003 9.75004 0.760003 9.75004L5.23 11.25L15.96 4.44003C15.96 4.44003 16.58 4.06003 16.56 4.44003C16.56 4.44003 16.67 4.51003 16.34 4.82003C16 5.13003 7.9 12.41 7.9 12.41L7.88 12.43L7.87 12.49L7.32 17.38C7.57 17.49 7.79 17.32 7.79 17.32L10.68 14.69L15.18 18.14C16.4 18.67 16.84 17.56 16.84 17.56L20 1.61003C20 0.550035 18.54 1.19003 18.54 1.19003Z" fill="#B777BE"/>
</g>
<defs>
<clipPath id="clip0">
<rect width="20" height="20" fill="white"/>
</clipPath>
</defs>
</svg>
