<svg width="20" height="20" viewBox="0 0 20 20" fill="none" xmlns="http://www.w3.org/2000/svg">
<path d="M17.981 11.2046C17.491 15.2646 14.581 15.5246 14.051 15.7046C13.821 15.7746 11.701 16.3146 9.04102 16.1446L6.15102 19.3446V15.6546L6.13102 15.6446C2.25102 14.5446 2.38102 10.4046 2.43102 8.23456C2.47102 6.06456 2.86102 4.29456 4.05102 3.09456C6.17102 1.12456 10.551 1.41456 10.551 1.41456C14.251 1.43456 16.021 2.57456 16.431 2.95456C17.791 4.15456 18.481 7.01456 17.981 11.2046ZM17.431 1.94456C16.941 1.48456 14.981 0.0245636 10.611 0.0145636C10.611 0.0145636 5.46102 -0.305436 2.95102 2.05456C1.55102 3.48456 1.06102 5.58456 1.01102 8.17456C0.961017 10.7746 0.891017 15.6446 5.47102 16.9646V18.9746C5.47102 18.9746 5.44102 19.7946 5.96102 19.9546C6.59102 20.1546 6.97102 19.5346 7.57102 18.8646C7.90102 18.4946 8.36102 17.9546 8.71102 17.5446C11.841 17.8146 14.261 17.1946 14.531 17.1046C15.161 16.8946 18.741 16.4246 19.331 11.5546C19.941 6.54456 19.051 3.37456 17.431 1.94456Z" fill="#B777BE"/>
<path d="M14.641 11.8146C14.641 11.8146 14.051 11.3146 13.771 11.0946C13.501 10.8946 13.071 10.6146 12.831 10.4846C12.401 10.2346 11.961 10.3946 11.781 10.6346L11.401 11.1246C11.211 11.3746 10.911 11.3346 10.831 11.3146C10.271 11.1746 9.68096 10.8246 9.07096 10.2346C8.44096 9.63461 8.07096 9.01461 7.94096 8.36461L7.93096 8.32461C7.89096 8.05461 7.94096 7.93461 8.05096 7.75461L8.07096 7.73461C8.33096 7.49461 8.80096 7.20461 8.86096 6.93461C9.05096 6.45461 8.24096 5.45461 8.12096 5.28461C8.12096 5.28461 7.53096 4.50461 7.32096 4.35461C7.10096 4.17461 6.75096 4.06461 6.40096 4.28461L6.38096 4.29461C5.37096 4.97461 5.00096 5.37461 5.10096 5.96461L5.15096 6.19461C5.66096 7.81461 6.66096 9.54461 8.13096 11.0746C9.59096 12.5946 11.181 13.5046 12.731 14.1346C13.141 14.2646 13.561 14.1546 13.991 13.7846H14.001C14.331 13.4746 14.591 13.1446 14.791 12.7946V12.7846C14.981 12.4046 14.921 12.0546 14.641 11.8146Z" fill="#B777BE"/>
<path d="M12.211 8.26455C12.151 8.26455 12.101 8.21455 12.091 8.15455C12.071 7.73455 11.961 7.41455 11.751 7.19455C11.551 6.98455 11.251 6.86455 10.851 6.84455C10.791 6.84455 10.741 6.78455 10.741 6.71455C10.741 6.64455 10.801 6.59455 10.861 6.60455C11.311 6.63455 11.671 6.77455 11.911 7.03455C12.151 7.29455 12.291 7.66455 12.311 8.14455C12.331 8.20455 12.281 8.26455 12.211 8.26455Z" fill="#B777BE"/>
<path d="M13.371 8.66456C13.301 8.66456 13.251 8.60456 13.251 8.54456C13.271 7.73456 13.031 7.05456 12.551 6.51456C12.311 6.24456 12.021 6.03456 11.681 5.88456C11.341 5.73456 10.951 5.64456 10.521 5.60456C10.461 5.60456 10.411 5.54456 10.411 5.47456C10.411 5.40456 10.471 5.35456 10.531 5.36456C11.461 5.43456 12.201 5.76456 12.721 6.34456C13.241 6.92456 13.501 7.66456 13.481 8.53456C13.481 8.61456 13.431 8.66456 13.371 8.66456Z" fill="#B777BE"/>
<path d="M14.551 9.13456C14.491 9.13456 14.431 9.08456 14.431 9.01456C14.421 8.30456 14.321 7.65456 14.111 7.09456C13.901 6.54456 13.591 6.05456 13.191 5.64456C12.781 5.23456 12.321 4.92456 11.811 4.72456C11.301 4.52456 10.741 4.41456 10.131 4.41456C10.071 4.41456 10.011 4.36456 10.011 4.29456C10.011 4.22456 10.061 4.17456 10.131 4.17456C11.411 4.18456 12.491 4.62456 13.351 5.48456C13.781 5.91456 14.111 6.43456 14.331 7.02456C14.551 7.60456 14.661 8.28456 14.671 9.02456C14.661 9.08456 14.611 9.13456 14.551 9.13456Z" fill="#B777BE"/>
</svg>
