<svg width="20" height="20" viewBox="0 0 20 20" fill="none" xmlns="http://www.w3.org/2000/svg">
<path d="M16.3782 3.619C14.6876 1.927 12.4365 1 10.0407 1C5.09543 1 1.08137 5.005 1.07233 9.919C1.07233 11.494 1.4882 13.024 2.2657 14.374L1 19L5.7554 17.758C7.0663 18.469 8.53993 18.847 10.0407 18.847C14.9769 18.847 19 14.842 19 9.928C19 7.543 18.0688 5.302 16.3782 3.619ZM10.0407 17.335C8.70266 17.335 7.39176 16.975 6.2436 16.3L5.97238 16.138L3.15168 16.876L3.90206 14.14L3.72125 13.861C2.97991 12.682 2.58212 11.314 2.58212 9.919C2.58212 5.833 5.92717 2.503 10.0316 2.503C12.0206 2.503 13.892 3.277 15.3024 4.681C16.7127 6.085 17.4812 7.948 17.4812 9.928C17.4812 14.014 14.1452 17.335 10.0407 17.335ZM14.1271 11.791C13.9011 11.683 12.7981 11.143 12.5992 11.062C12.3913 10.99 12.2466 10.954 12.0929 11.17C11.9392 11.395 11.5143 11.899 11.3877 12.043C11.2612 12.196 11.1256 12.214 10.8995 12.097C10.6735 11.989 9.95028 11.746 9.10045 10.99C8.43144 10.396 7.98845 9.667 7.85284 9.442C7.71723 9.226 7.83476 9.109 7.94324 9.001C8.05173 8.902 8.16926 8.74 8.28679 8.605C8.39528 8.479 8.43144 8.38 8.50377 8.236C8.57609 8.083 8.53993 7.957 8.48569 7.849C8.43144 7.732 7.98845 6.634 7.79859 6.193C7.61778 5.761 7.42793 5.815 7.29232 5.806C7.16575 5.797 7.01205 5.797 6.8674 5.797C6.71371 5.797 6.47865 5.851 6.27072 6.076C6.06278 6.301 5.48418 6.841 5.48418 7.939C5.48418 9.037 6.2888 10.099 6.39729 10.243C6.50578 10.396 7.97941 12.646 10.2215 13.609C10.7549 13.843 11.1708 13.978 11.4962 14.077C12.0296 14.248 12.5178 14.221 12.9066 14.167C13.3405 14.104 14.2356 13.627 14.4164 13.105C14.6062 12.583 14.6062 12.142 14.5429 12.043C14.4977 11.953 14.344 11.899 14.1271 11.791Z" fill="#B777BE"/>
</svg>
