<svg width="26" height="24" viewBox="0 0 26 24" fill="none" xmlns="http://www.w3.org/2000/svg">
<path d="M13 2.16094C16.4734 2.16094 16.8848 2.175 18.2508 2.23125C19.5203 2.28281 20.2059 2.47969 20.6629 2.64375C21.2672 2.85938 21.7039 3.12188 22.1559 3.53906C22.6129 3.96094 22.8922 4.35938 23.1258 4.91719C23.3035 5.33906 23.5168 5.97656 23.5727 7.14375C23.6336 8.40937 23.6488 8.78906 23.6488 11.9906C23.6488 15.1969 23.6336 15.5766 23.5727 16.8375C23.5168 18.0094 23.3035 18.6422 23.1258 19.0641C22.8922 19.6219 22.6078 20.025 22.1559 20.4422C21.6988 20.8641 21.2672 21.1219 20.6629 21.3375C20.2059 21.5016 19.5152 21.6984 18.2508 21.75C16.8797 21.8062 16.4684 21.8203 13 21.8203C9.52656 21.8203 9.11524 21.8062 7.74922 21.75C6.47969 21.6984 5.79414 21.5016 5.33711 21.3375C4.73281 21.1219 4.29609 20.8594 3.84414 20.4422C3.38711 20.0203 3.10781 19.6219 2.87422 19.0641C2.69648 18.6422 2.4832 18.0047 2.42734 16.8375C2.36641 15.5719 2.35117 15.1922 2.35117 11.9906C2.35117 8.78438 2.36641 8.40469 2.42734 7.14375C2.4832 5.97187 2.69648 5.33906 2.87422 4.91719C3.10781 4.35938 3.39219 3.95625 3.84414 3.53906C4.30117 3.11719 4.73281 2.85938 5.33711 2.64375C5.79414 2.47969 6.48477 2.28281 7.74922 2.23125C9.11524 2.175 9.52656 2.16094 13 2.16094ZM13 0C9.4707 0 9.02891 0.0140625 7.64258 0.0703125C6.26133 0.126563 5.31172 0.332812 4.48906 0.628125C3.63086 0.9375 2.90469 1.34531 2.18359 2.01562C1.45742 2.68125 1.01563 3.35156 0.680469 4.13906C0.360547 4.90313 0.137109 5.775 0.0761719 7.05C0.0152344 8.33437 0 8.74219 0 12C0 15.2578 0.0152344 15.6656 0.0761719 16.9453C0.137109 18.2203 0.360547 19.0969 0.680469 19.8563C1.01563 20.6484 1.45742 21.3188 2.18359 21.9844C2.90469 22.65 3.63086 23.0625 4.48398 23.3672C5.31172 23.6625 6.25625 23.8687 7.6375 23.925C9.02383 23.9812 9.46563 23.9953 12.9949 23.9953C16.5242 23.9953 16.966 23.9812 18.3523 23.925C19.7336 23.8687 20.6832 23.6625 21.5059 23.3672C22.359 23.0625 23.0852 22.65 23.8063 21.9844C24.5273 21.3188 24.9742 20.6484 25.3043 19.8609C25.6242 19.0969 25.8477 18.225 25.9086 16.95C25.9695 15.6703 25.9848 15.2625 25.9848 12.0047C25.9848 8.74688 25.9695 8.33906 25.9086 7.05938C25.8477 5.78438 25.6242 4.90781 25.3043 4.14844C24.9844 3.35156 24.5426 2.68125 23.8164 2.01562C23.0953 1.35 22.3691 0.9375 21.516 0.632812C20.6883 0.3375 19.7438 0.13125 18.3625 0.075C16.9711 0.0140625 16.5293 0 13 0Z" fill="#B777BE"/>
<path d="M13 5.83594C9.31328 5.83594 6.32227 8.59688 6.32227 12C6.32227 15.4031 9.31328 18.1641 13 18.1641C16.6867 18.1641 19.6777 15.4031 19.6777 12C19.6777 8.59688 16.6867 5.83594 13 5.83594ZM13 15.9984C10.6082 15.9984 8.66836 14.2078 8.66836 12C8.66836 9.79219 10.6082 8.00156 13 8.00156C15.3918 8.00156 17.3316 9.79219 17.3316 12C17.3316 14.2078 15.3918 15.9984 13 15.9984Z" fill="#B777BE"/>
<path d="M21.5008 5.59238C21.5008 6.38926 20.8 7.03145 19.9418 7.03145C19.0785 7.03145 18.3828 6.38457 18.3828 5.59238C18.3828 4.79551 19.0836 4.15332 19.9418 4.15332C20.8 4.15332 21.5008 4.8002 21.5008 5.59238Z" fill="#B777BE"/>
</svg>
