<svg width="216" height="84" viewBox="0 0 216 84" fill="none" xmlns="http://www.w3.org/2000/svg">
<g clip-path="url(#clip0)">
<path d="M113.496 22.6474C107.867 28.7405 102.652 35.2069 97.8843 42.0029C92.9753 48.8367 88.2514 55.9613 84.5856 63.5569L86.6845 62.6729C83.4408 59.6428 78.5896 58.7704 74.3687 58.0957C66.985 56.9325 59.399 56.9325 51.9517 57.1652C35.0386 57.7097 18.2058 59.7492 1.64789 63.2603L1.15642 64.1443C46.8346 40.863 93.86 21.1585 143.626 8.77051C144.204 8.63093 145.864 7.36886 144.43 7.72364C94.2937 20.2105 46.8346 40.0546 0.867315 63.5104C0.641815 63.6325 -0.618671 64.6096 0.381623 64.4002C16.2965 61.0614 32.4583 59.05 48.7022 58.3865C55.9108 58.0246 63.1364 58.2191 70.3155 58.9681C74.999 59.509 80.9603 60.3 84.5914 63.6849C85.0539 64.1211 86.4648 63.2719 86.6845 62.8066C90.3156 55.2517 95.0164 48.2725 99.8502 41.4737C104.604 34.6675 109.82 28.2002 115.462 22.1182C115.861 21.6936 113.866 22.2636 113.502 22.6474H113.496Z" fill="#1D1D1B"/>
<path d="M110.061 48.0691C108.811 47.7139 107.502 47.6117 106.212 47.7685C104.922 47.9252 103.675 48.3377 102.545 48.9822C101.174 49.7092 98.902 51.5761 99.1853 53.3965C99.4686 55.2169 102.435 54.3154 103.522 53.9432C106.37 53.0012 108.898 51.2743 110.819 48.9589C111.229 48.4529 109.182 49.1334 108.859 49.4882C107.841 50.5874 106.072 52.3962 106.546 54.0828C106.933 55.467 109.639 54.6993 110.466 54.4957C111.044 54.3561 112.704 53.0941 111.27 53.4547C106.852 54.5597 109.229 50.6746 110.819 48.9589L108.859 49.4882C107.644 51.022 106.049 52.2058 104.233 52.9196C103.505 53.2046 101.92 53.7164 101.388 52.8324C100.955 52.0996 101.683 51.0062 102.088 50.4653C103.528 48.5285 106.054 48.6042 108.147 49.1858C108.778 49.3602 110.345 48.1389 110.09 48.0691H110.061Z" fill="#1D1D1B"/>
<path d="M148.709 49.3718C147.437 50.3257 146.269 51.4714 146.396 53.1813C146.488 54.3445 147.882 54.3445 148.709 54.2572C152.108 54.0188 155.502 51.5063 157.578 48.9589C157.989 48.4529 155.948 49.1334 155.624 49.4882C155.208 49.9418 152.068 53.4721 153.6 54.234C155.132 54.9959 157.231 53.2569 158.284 52.4892C159.469 51.6052 157.434 52.0937 156.977 52.4427C156.098 53.0999 155.144 53.4663 155.502 52.053C155.803 50.8898 156.786 49.8429 157.578 48.9822L155.624 49.5114C154.184 51.2562 152.293 52.8207 149.981 53.1406C147.344 53.507 148.894 50.2675 149.981 49.4474C151.166 48.5634 149.136 49.052 148.674 49.3951L148.709 49.3718Z" fill="#1D1D1B"/>
<path d="M118.15 48.8542C116.023 48.7728 111.09 53.0301 114.479 54.3852C115.866 54.9668 117.711 53.3965 118.578 52.4892C120.538 50.4419 122.007 47.8887 123.51 45.51C125.904 41.7238 128.257 37.9493 130.749 34.2038C137.243 24.5202 144.736 15.331 154.126 8.3518C156.7 6.44724 159.425 4.75879 162.273 3.30354C163.713 2.56491 165.205 1.91353 166.714 1.31448C166.373 1.44825 166.673 0.837571 166.402 1.2854C165.517 2.72776 164.453 4.07706 163.453 5.438C153.496 18.9892 143.216 32.3019 133.27 45.8648C128.882 51.8494 124.459 57.8457 120.446 64.092C119.432 65.5046 118.576 67.026 117.896 68.6285C117.318 70.2744 119.59 69.0821 120.116 68.5122C125.575 62.6497 128.558 54.5538 135.323 49.8313C138.653 47.5049 138.255 52.3554 139.793 53.6465C142.383 55.8275 148.09 50.8549 149.842 49.5347C150.998 48.6448 148.992 49.1392 148.529 49.4881C147.205 50.4827 143.088 54.4491 141.533 52.2449C140.897 51.3434 140.868 50.0988 140.319 49.1334C139.018 46.8419 135.496 48.8193 134.011 49.7789C127.211 54.17 123.331 62.4112 118.491 68.6517C117.786 69.5648 119.879 68.8611 119.891 68.2795C119.912 68.0936 119.958 67.9115 120.03 67.7386C120.326 67.0005 120.69 66.2917 121.117 65.6216C122.493 63.2545 124.054 60.9979 125.603 58.7413C130.42 51.7622 135.485 44.911 140.55 38.0888C149.553 25.9684 159.006 14.1271 167.679 1.74486C167.847 1.50641 169.241 -0.191855 168.182 7.22595e-05C163.245 0.982971 158.064 4.59469 153.987 7.42125C144.777 13.8188 137.341 22.5079 130.9 31.6215C127.35 36.6523 124.152 41.9216 120.845 47.121C119.794 48.8337 118.651 50.4878 117.422 52.0762C117.065 52.588 116.63 53.0396 116.132 53.4139C116.583 53.1347 116.664 53.3325 116.317 53.1929C115.282 52.78 115.433 49.9476 116.485 49.9883C117.011 49.9883 118.798 48.8251 118.15 48.8251V48.8542Z" fill="#1D1D1B"/>
<path d="M159.197 46.964C157.393 51.797 165.222 50.8374 167.523 49.2438L165.887 49.4881C164.153 51.4364 162.586 55.6007 166.766 54.1874C169.559 53.2394 171.698 50.8955 173.959 49.1217C174.872 48.4121 175.208 49.2613 175.422 50.2849C175.757 51.8726 175.618 54.577 177.781 54.7224C182.135 55.0074 187.09 49.0344 189.692 46.4347L187.865 46.8244C177.856 57.6304 169.94 70.821 163.002 83.7441L165.02 82.7961C160.834 80.429 153.936 76.6137 153.918 71.013C153.918 66.7324 159.411 64.6503 162.487 63.1265C166.483 61.1491 170.513 59.2298 174.601 57.4327C178.455 55.7422 182.383 54.2242 186.384 52.8788C188.53 52.1518 190.704 51.5295 192.889 50.9363C193.884 50.6687 194.89 50.4245 195.89 50.186C197.214 49.8661 198.313 49.6044 197.411 51.1398C196.214 53.2743 194.277 55.0714 193.699 57.5141C193.363 58.9623 195.798 57.6072 196.139 57.2989C197.047 56.4847 197.399 55.0365 198.006 54.0187C198.838 52.7033 199.854 51.5161 201.025 50.4942C203.095 48.5866 206.373 46.3242 209.322 46.4231C210.704 46.458 210.293 47.5572 209.507 48.0108C208.303 48.6391 207.054 49.1775 205.772 49.6218C203.661 50.4535 201.111 51.1689 199.359 52.681C197.607 54.1932 200.296 54.6934 201.499 54.8969C205.65 55.6065 210.004 55.4785 214.219 55.5367C214.751 55.5367 216.497 54.3735 215.885 54.3735C211.781 54.4271 207.678 54.2329 203.598 53.7919C203.384 53.7919 199.857 53.2103 201.117 52.4019C203.939 50.6164 207.425 49.9534 210.368 48.3307C211.051 47.9643 212.352 47.2722 212.421 46.3707C212.548 44.6259 209.472 45.3413 208.628 45.5449C205.939 46.1846 203.395 47.6909 201.163 49.2845C199.928 50.1898 198.783 51.2144 197.746 52.3437C197.13 53.0266 196.571 53.76 196.075 54.5363C195.636 55.1994 195.167 57.0721 194.595 57.4443L195.988 57.0605C195.017 56.5312 199.706 50.3605 200.036 49.3252C200.579 47.72 194.208 49.7963 193.722 49.9068C184.777 52.2332 176.22 55.8275 167.87 59.794C163.944 61.6493 159.874 63.3941 156.22 65.7204C154.069 67.0988 152.109 69.1402 151.843 71.7865C151.264 77.3349 159.18 81.6736 163.1 83.907C163.632 84.2094 164.881 83.4126 165.124 82.959C172.005 70.1289 179.88 57.0198 189.825 46.2893C190.253 45.824 188.31 46.3707 188.003 46.6732C186.847 47.8363 180.094 55.7402 178.313 52.7915C177.48 51.4132 177.902 49.587 177.156 48.1737C176.283 46.5394 173.548 48.3947 172.652 49.0519C171.611 49.8196 167.032 54.5189 166.136 52.9951C165.436 51.8319 167.159 49.7033 167.87 48.9239C168.362 48.3772 166.431 49.0286 166.24 49.1624C164.158 50.6047 160.331 48.8251 161.331 46.1497C161.435 45.8647 159.452 46.3242 159.226 46.9291L159.197 46.964Z" fill="#1D1D1B"/>
</g>
<defs>
<clipPath id="clip0">
<rect width="216" height="84" fill="white"/>
</clipPath>
</defs>
</svg>
