<svg width="59" height="61" viewBox="0 0 59 61" fill="none" xmlns="http://www.w3.org/2000/svg">
<g clip-path="url(#clip0_663:1540)">
<path d="M56.7 35.4999H55.8V27.2999C55.8 25.9999 55.2 24.8999 54.2 24.1999V23.0999C54.2 21.4999 52.9 20.1999 51.3 20.1999H50.6L53.2 16.3999C54.1 15.0999 53.7 13.3999 52.5 12.4999L34.9 0.499945C34.3 0.0999453 33.5 -0.100055 32.8 0.0999453C32 0.199945 31.4 0.599945 31 1.19995L15.8 23.4999H11.6L12.6 13.1999C12.6 13.0999 12.7 12.9999 12.8 12.8999C14.1 12.3999 15.2 11.4999 16 10.2999C16.1 10.1999 16.2 10.1999 16.3 10.1999L22.9 10.8999C23.4 10.8999 23.8 10.5999 23.8 10.0999C23.8 9.59995 23.5 9.19995 23 9.19995L16.4 8.49995C15.6 8.39995 14.9 8.79994 14.5 9.39995C13.9 10.2999 13.1 10.8999 12.1 11.2999C11.4 11.5999 10.9 12.1999 10.8 12.9999L9.8 23.4999H8.8L10.4 7.19994C10.5 6.59995 11 6.19994 11.6 6.19994L25 7.49995C25.5 7.49995 25.9 7.19994 25.9 6.69994C25.9 6.19994 25.6 5.79995 25.1 5.79995L11.7 4.49995C10.2 4.29995 8.8 5.49995 8.6 6.99995L7.4 20.0999H5.2C3.6 20.0999 2.3 21.3999 2.3 22.9999V23.7999C0.9 24.3999 0 25.7999 0 27.2999V56.6999C0 58.7999 1.7 60.4999 3.8 60.4999H52C54.1 60.4999 55.8 58.7999 55.8 56.6999V48.4999H56.7C57.8 48.4999 58.6 47.5999 58.6 46.5999V37.3999C58.6 36.2999 57.8 35.4999 56.7 35.4999ZM51.2 21.8999C51.9 21.8999 52.4 22.3999 52.4 23.0999V23.4999C52.2 23.4999 52.1 23.4999 51.9 23.4999H48.2L49.3 21.8999H51.2ZM32.4 2.19995C32.6 1.99995 32.8 1.79995 33.1 1.79995C33.2 1.79995 33.2 1.79995 33.3 1.79995C33.5 1.79995 33.7 1.89995 33.9 1.99995L51.5 13.9999C52 14.2999 52.1 14.9999 51.8 15.4999L46.3 23.5999H45L47.7 19.5999C48.1 18.9999 48.2 18.0999 47.8 17.4999C47.3 16.5999 47.1 15.4999 47.2 14.4999C47.3 13.6999 47 12.9999 46.3 12.5999L37.2 6.39995C36.6 5.99995 35.7 5.89995 35.1 6.29995C34.2 6.79995 33.1 6.99995 32.1 6.89995C31.3 6.79995 30.6 7.09995 30.1 7.79995L19.2 23.4999H17.9L32.4 2.19995ZM32.8 16.7999C29 16.7999 26 19.6999 25.7 23.3999H21.3L31.5 8.49995C31.6 8.39995 31.7 8.39995 31.8 8.39995C33.2 8.59995 34.6 8.29994 35.9 7.69994C36 7.59995 36.1 7.69994 36.2 7.69994L45.3 13.8999C45.4 13.9999 45.4 14.0999 45.4 14.1999C45.2 15.5999 45.5 16.9999 46.2 18.1999C46.3 18.2999 46.2 18.3999 46.2 18.4999L42.8 23.3999H39.9C39.6 19.7999 36.5 16.7999 32.8 16.7999ZM38.1 23.4999H27.4C27.6 20.7999 30 18.5999 32.8 18.5999C35.6 18.5999 37.9 20.6999 38.1 23.4999ZM4 23.0999C4 22.3999 4.5 21.8999 5.2 21.8999H7.2L7 23.4999H4V23.0999ZM1.7 27.2999C1.7 26.0999 2.6 25.1999 3.8 25.1999H52C53.2 25.1999 54.1 26.0999 54.1 27.2999V29.6999H1.7V27.2999ZM54.1 52.5999H11.9C11.4 52.5999 11 52.9999 11 53.4999C11 53.9999 11.4 54.3999 11.9 54.3999H54.1V56.7999C54.1 57.9999 53.2 58.8999 52 58.8999H3.8C2.6 58.8999 1.7 57.9999 1.7 56.7999V54.3999H6.4C6.9 54.3999 7.3 53.9999 7.3 53.4999C7.3 52.9999 6.9 52.5999 6.4 52.5999H1.7V31.3999H54V35.3999H45.8C43.2 35.3999 41 36.8999 39.9 39.0999C39.9 39.0999 39.9 39.0999 39.9 39.1999C39.8 39.4999 39.7 39.6999 39.6 39.9999C39.4 40.5999 39.3 41.2999 39.3 41.8999C39.3 45.4999 42.2 48.3999 45.8 48.3999H54L54.1 52.5999ZM56.9 46.5999C56.9 46.6999 56.8 46.7999 56.7 46.7999H45.9C44.1 46.7999 42.5 45.7999 41.7 44.2999C41.7 44.1999 41.6 44.1999 41.6 44.0999C41.5 43.9999 41.5 43.7999 41.4 43.6999C41.2 43.1999 41.1 42.5999 41.1 41.9999C41.1 41.3999 41.2 40.8999 41.4 40.2999C41.5 40.1999 41.5 39.9999 41.6 39.8999C41.6 39.7999 41.7 39.7999 41.7 39.6999C42.5 38.1999 44.1 37.1999 45.9 37.1999H56.7C56.8 37.1999 56.9 37.2999 56.9 37.3999V46.5999Z" fill="white"/>
<path d="M46.0996 38.5C44.1996 38.5 42.5996 40.1 42.5996 42C42.5996 43.9 44.1996 45.5 46.0996 45.5C47.9996 45.5 49.5996 43.9 49.5996 42C49.5996 40.1 47.9996 38.5 46.0996 38.5ZM46.0996 43.8C45.0996 43.8 44.2996 43 44.2996 42C44.2996 41 45.0996 40.2 46.0996 40.2C47.0996 40.2 47.8996 41 47.8996 42C47.8996 43 47.0996 43.8 46.0996 43.8Z" fill="white"/>
</g>
<defs>
<clipPath id="clip0_663:1540">
<rect width="58.6" height="60.5" fill="white"/>
</clipPath>
</defs>
</svg>
