<svg width="47" height="67" viewBox="0 0 47 67" fill="none" xmlns="http://www.w3.org/2000/svg">
<g clip-path="url(#clip0_663:1538)">
<path d="M45.6324 33.8C45.4324 32.3 44.1324 31 42.5324 30.8C41.5324 30.7 40.4324 30.6 39.3324 30.6C38.1324 30.5 37.2324 31 36.6324 32.1C36.5324 32.3 36.3324 32.6 36.0324 32.6C35.7324 32.6 35.4324 32.4 35.3324 32.2C35.0324 31.8 34.8324 31.4 34.6324 31C34.5324 30.9 34.4324 30.7 34.4324 30.6C33.1324 28.2 31.7324 25.8 30.5324 23.5L30.0324 22.6V22.5C30.3324 22.1 30.5324 21.7 30.8324 21.3C31.4324 20.5 31.9324 19.7 32.4324 18.8C33.6324 16.5 33.5324 13.9 33.5324 11.5C33.4324 9.7 32.0324 8.2 30.1324 8C28.3324 7.9 26.6324 9.2 26.3324 11C26.2324 11.6 26.2324 12.3 26.2324 12.9C26.2324 13.2 26.2324 13.6 26.2324 13.9C26.2324 14.1 26.2324 14.3 26.1324 14.6C26.1324 14.7 26.1324 14.9 26.1324 15V15.3L25.9324 15.1C24.7324 13.9 23.5324 13.6 22.2324 14.3C20.9324 15 20.4324 16.1 20.7324 17.8L20.8324 18.1L20.6324 18C19.8324 17.5 19.3324 16.9 19.1324 16C18.8324 14.6 19.5324 13.4 20.8324 12.7C23.5324 11.3 25.1324 9.1 25.5324 6.2C25.6324 5.2 25.6324 4.1 25.6324 3.1C25.6324 2.5 25.6324 2 25.6324 1.4C25.6324 0.8 25.5324 0.4 25.1324 0H18.8324C18.4324 0.3 18.2324 0.7 18.2324 1.3C18.2324 1.9 18.2324 2.5 18.2324 3.1C18.2324 3.6 18.2324 4.2 18.2324 4.7C18.2324 5.4 17.9324 5.9 17.3324 6.3C16.5324 6.8 15.6324 7.4 14.8324 8.1C14.5324 8.3 14.3324 8.6 14.3324 8.9C14.3324 9.1 14.4324 9.3 14.5324 9.5C15.0324 9.7 15.4324 9.7 16.0324 9.2L16.3324 9C16.8324 8.6 17.3324 8.2 17.9324 7.9C19.4324 7.1 20.1324 6 20.0324 4.2C20.0324 3.7 20.0324 3.1 20.0324 2.6C20.0324 2.4 20.0324 2.1 20.0324 1.9V1.7H23.9324V1.8C23.9324 2.1 23.9324 2.4 23.9324 2.7C23.9324 3.4 23.9324 4 23.9324 4.7C23.8324 7.6 22.5324 9.7 20.0324 11C18.0324 12 17.0324 13.9 17.4324 16.1C17.7324 18.1 19.4324 19.6 21.5324 19.9C21.6324 19.9 22.0324 20 22.1324 20.2C22.6324 21 23.0324 21.8 23.5324 22.7L24.0324 23.6H23.8324C20.1324 24.6 15.8324 22.5 14.2324 18.8C13.3324 16.8 13.2324 14.8 13.9324 12.7L14.0324 12.5C14.2324 12 14.2324 11.4 13.5324 11.2C13.3324 11.1 13.1324 11.1 12.9324 11.2C12.7324 11.3 12.5324 11.6 12.3324 12C11.2324 15.2 11.6324 18.2 13.4324 20.9C13.9324 21.7 14.5324 22.3 15.2324 23C15.5324 23.3 15.8324 23.7 16.1324 24L16.2324 24.1L16.1324 24.2C16.1324 24.3 16.0324 24.4 15.9324 24.6C15.5324 25.3 15.2324 25.9 14.8324 26.6C13.9324 28.3 13.0324 30 12.0324 31.7C11.6324 32.5 11.1324 32.8 10.4324 32.7C10.3324 32.7 10.2324 32.7 10.2324 32.7H10.1324H9.93241V32.6C9.43241 31.3 8.53241 30.7 7.13241 30.7C6.93242 30.7 6.63241 30.7 6.43242 30.8C5.93242 30.9 5.33242 30.9 4.83242 30.9C4.53241 30.9 4.23241 30.9 3.93241 31C2.33241 31.1 1.03241 32.4 0.832415 34C0.532415 37.2 0.332415 40.1 0.132415 43.1C-0.167585 49.2 0.0324147 55.7 0.832415 62.8C1.03241 64.5 2.23241 65.8 3.83241 65.9C4.93241 66 6.03241 66.1 7.23241 66.1C8.43242 66.1 9.23241 65.6 9.73241 64.6C9.93241 64.2 10.1324 64.1 10.5324 64.1C18.9324 64.4 27.4324 64.4 35.9324 64.1C36.3324 64.1 36.5324 64.2 36.7324 64.6C37.2324 65.6 38.0324 66.1 39.1324 66.1H39.2324C40.3324 66.1 41.5324 66 42.6324 65.9C44.1324 65.7 45.4324 64.6 45.6324 63.1C45.7324 62.5 45.7324 61.9 45.8324 61.3C45.8324 60.8 45.5324 60.4 45.1324 60.3C44.6324 60.3 44.2324 60.6 44.2324 61.2C44.2324 61.5 44.1324 61.8 44.1324 62.1C44.1324 62.2 44.1324 62.4 44.1324 62.5C44.0324 63.6 43.4324 64.2 42.4324 64.3C41.8324 64.4 41.1324 64.4 40.4324 64.4C40.2324 64.4 40.0324 64.4 39.8324 64.4C39.1324 64.4 38.8324 64.4 38.5324 64.1C38.3324 63.9 38.2324 63.5 38.2324 62.8C38.2324 61.7 38.3324 60.7 38.4324 59.6C38.5324 57.3 38.6324 54.9 38.7324 52.5C38.7324 48.5 38.7324 44.5 38.6324 40.6V39.5C38.6324 38.3 38.5324 37 38.4324 35.8C38.4324 35 38.3324 34.3 38.3324 33.5C38.3324 33.1 38.4324 32.8 38.6324 32.5C38.8324 32.3 39.1324 32.2 39.5324 32.2C40.6324 32.3 41.6324 32.3 42.5324 32.4C43.4324 32.5 44.0324 33.1 44.1324 34C44.1324 34.4 44.2324 34.8 44.2324 35.2C44.2324 35.4 44.2324 35.6 44.3324 35.8C44.8324 41.2 45.0324 46.6 44.8324 51.8C44.8324 52.7 44.7324 53.7 44.7324 54.6C44.7324 55.4 44.6324 56.2 44.6324 57.1C44.6324 57.7 44.9324 58 45.4324 58C45.9324 58 46.2324 57.7 46.3324 57.2C46.3324 57 46.3324 56.8 46.3324 56.6L46.4324 55.1C46.4324 54.1 46.5324 53 46.5324 52C46.5324 46.4 46.3324 40.5 45.6324 33.8ZM7.33242 64.4C7.33242 64.4 7.23242 64.4 7.33242 64.4C6.33242 64.4 5.23242 64.3 4.03241 64.2C3.23241 64.1 2.63241 63.5 2.53241 62.6C1.73241 55.3 1.53241 48.1 1.93241 41.2C2.03241 39.3 2.23241 37.4 2.33241 35.5L2.43241 34.1C2.53241 33.1 3.13241 32.5 4.13241 32.4C4.83241 32.3 5.53241 32.3 6.23241 32.3H6.93242C7.43242 32.3 7.73241 32.4 8.03241 32.6C8.23241 32.8 8.33241 33.1 8.33241 33.6C8.33241 34.4 8.23241 35.2 8.23241 35.9C8.13241 37 8.03241 38.1 8.03241 39.2C7.93241 41.8 7.93242 44.4 7.83242 47.1C7.83242 48.2 7.73241 49.3 7.73241 50.4L8.33241 62.9C8.33241 63.1 8.33241 63.3 8.33241 63.5C8.33241 64.1 7.93242 64.4 7.33242 64.4ZM27.2324 16.9C27.9324 15.6 28.0324 14.2 27.9324 12.9C27.9324 12.5 27.9324 12.1 27.9324 11.7C28.0324 10.6 28.8324 9.8 29.9324 9.8C31.0324 9.8 31.8324 10.7 31.8324 11.8C31.8324 12.1 31.8324 12.4 31.8324 12.7C31.8324 14.1 31.8324 15.5 31.4324 16.9C30.9324 18.4 30.2324 19.6 29.2324 20.7L29.1324 20.8L28.6324 19.9C28.1324 19.1 27.7324 18.2 27.2324 17.4C27.1324 17.3 27.1324 17.1 27.2324 16.9ZM22.5324 17.6C22.1324 16.9 22.2324 16.2 22.9324 15.9C23.2324 15.7 23.5324 15.7 23.8324 15.8C24.1324 15.9 24.4324 16.1 24.6324 16.5C26.9324 20.6 29.1324 24.7 31.4324 28.7L33.4324 32.3V32.4V32.6H33.3324C33.1324 32.6 32.9324 32.6 32.7324 32.6C32.5324 32.6 32.3324 32.6 32.1324 32.6C31.8324 32.6 31.5324 32.6 31.2324 32.6C31.0324 32.6 30.7324 32.4 30.6324 32.2C28.2324 27.8 25.7324 23.2 22.5324 17.6ZM23.5324 25.4H23.8324C24.8324 25.4 24.9324 25.4 25.5324 26.5L26.2324 27.8C26.9324 29 27.6324 30.3 28.3324 31.5C28.4324 31.6 28.4324 31.7 28.5324 31.9L28.7324 32.3H18.3324L18.4324 32.1C18.7324 31.6 19.0324 31 19.3324 30.5C20.0324 29.3 20.7324 28.1 21.3324 26.9C21.7324 26.1 22.2324 25.5 23.5324 25.4ZM17.8324 24.8L20.1324 25.5L18.4324 28.6C18.2324 28.9 18.1324 29.2 17.9324 29.4C17.5324 30.2 17.0324 31.1 16.5324 31.9C16.4324 32.1 16.0324 32.4 15.7324 32.4C15.4324 32.4 15.1324 32.4 14.9324 32.4C14.7324 32.4 14.5324 32.4 14.3324 32.4C14.1324 32.4 13.9324 32.4 13.7324 32.4H13.5324L17.8324 24.8ZM9.93241 34.5C12.2324 34 33.2324 34 36.4324 34.4H36.5324L36.9324 42.1H9.63241L9.93241 34.5ZM36.8324 55.4C36.8324 56 36.7324 56.6 36.7324 57.3C36.6324 58.7 36.6324 60.2 36.5324 61.7C36.5324 62.4 36.1324 62.5 35.6324 62.5C33.3324 62.5 31.1324 62.5 28.8324 62.6C25.2324 62.6 21.5324 62.7 17.8324 62.7C17.7324 62.7 17.6324 62.7 17.5324 62.7C15.9324 62.7 14.3324 62.6 12.8324 62.6C12.0324 62.6 11.3324 62.5 10.5324 62.5C10.2324 62.5 9.83241 62.5 9.83241 61.9C9.73241 60.3 9.73242 58.8 9.63241 57.2V55C9.63241 54.9 9.63241 54.9 9.63241 54.8C9.63241 54.8 9.63241 54.8 9.63241 54.7V54.6H36.7324V54.9C36.8324 55.1 36.8324 55.3 36.8324 55.4ZM36.9324 52.9H9.63241V43.8H36.9324V52.9Z" fill="white"/>
</g>
<defs>
<clipPath id="clip0_663:1538">
<rect width="46.4" height="66.1" fill="white"/>
</clipPath>
</defs>
</svg>
