<svg width="61" height="61" viewBox="0 0 61 61" fill="none" xmlns="http://www.w3.org/2000/svg">
<g clip-path="url(#clip0_663:1530)">
<path d="M12.5996 11.4001V21.4001C12.5996 21.8001 12.3996 22.1001 11.9996 22.3001C11.6996 22.5001 11.2996 22.4002 10.9996 22.2001L9.99959 21.4001C7.19959 28.0001 7.79959 35.6002 11.5996 41.7001C11.8996 42.1002 11.7996 42.7001 11.3996 43.0001L11.2996 43.1001C10.8996 43.4001 10.1996 43.3001 9.99959 42.8001C5.49959 35.8001 5.09959 26.9001 8.79959 19.5001C8.89959 19.2001 9.19959 19.0001 9.49959 19.0001C9.79959 18.9001 10.0996 19.0001 10.2996 19.2001L10.5996 19.5001V12.8001L4.19959 14.6001L5.19959 15.4001C5.59959 15.7001 5.69959 16.3001 5.49959 16.7001C4.99959 17.6001 4.49959 18.6001 4.09959 19.6001C3.89959 20.0001 3.29959 20.2001 2.79959 20.0001H2.69959C2.19959 19.8001 1.89959 19.3001 2.09959 18.8001C2.39959 18.0001 2.79959 17.2001 3.19959 16.4001L1.29959 14.9001C0.999593 14.7001 0.899594 14.3001 0.899594 13.9001C0.999593 13.5001 1.19959 13.2001 1.59959 13.1001L11.1996 10.3001C11.4996 10.2001 11.7996 10.3001 12.0996 10.5001C12.3996 10.7001 12.5996 11.0001 12.5996 11.4001ZM3.19959 43.5001L4.19959 43.0001C4.69959 42.8001 4.79959 42.2001 4.59959 41.7001C2.29959 36.8001 1.49959 31.4002 2.29959 26.1001C2.39959 25.3001 2.59959 24.4001 2.79959 23.6001C2.89959 23.1001 2.59959 22.6001 2.09959 22.5001H1.99959C1.49959 22.4001 0.899594 22.7001 0.799594 23.2001C0.599594 24.1001 0.399594 25.0001 0.299594 25.9001C-0.600406 31.9001 0.399594 38.0001 3.19959 43.5001ZM24.2996 21.6001C23.7996 21.9001 23.6996 22.6001 23.9996 23.0001L24.0996 23.1001C24.3996 23.5001 24.8996 23.6001 25.3996 23.3001C25.7996 23.0001 25.9996 22.5001 25.7996 22.1001V22.0001C25.3996 21.5001 24.7996 21.3001 24.2996 21.6001ZM19.9996 32.0001C20.5996 32.0001 20.9996 31.6001 20.9996 31.0001C20.9996 29.1001 21.5996 27.2001 22.7996 25.6001C23.0996 25.2001 22.9996 24.7001 22.6996 24.3001L22.5996 24.2001C22.1996 23.8001 21.4996 23.9001 21.1996 24.3001C19.7996 26.3001 18.9996 28.7001 18.9996 31.0001C18.9996 31.6001 19.4996 32.0001 19.9996 32.0001ZM57.0996 59.1001V51.1001C57.0996 50.5001 56.6996 50.1001 56.0996 50.1001C55.4996 50.1001 55.0996 50.5001 55.0996 51.1001V58.1001H45.0996V46.0001H46.0996V45.0001C46.0996 44.4002 45.6996 44.0001 45.0996 44.0001H44.3996C39.7996 41.5001 34.1996 41.5001 29.5996 44.0001H21.9996C20.7996 44.0001 19.5996 44.6001 18.7996 45.6001C17.9996 46.6001 17.7996 47.9001 18.0996 49.1001L14.1996 47.3001C14.2996 47.2001 14.3996 47.0001 14.4996 46.9002L16.6996 44.7001C16.8996 44.5001 16.9996 44.3001 16.9996 44.0001V31.0001C16.9996 25.2001 20.8996 20.0001 26.4996 18.5001C26.7996 18.4001 26.9996 18.2001 27.1996 17.9001C27.2996 17.6001 27.2996 17.3001 27.0996 17.0001L24.6996 13.0001H35.1996L32.7996 17.0001C32.5996 17.3001 32.5996 17.6001 32.6996 17.9001C32.7996 18.2001 33.0996 18.4001 33.3996 18.5001C39.0996 20.1001 42.9996 25.2001 42.9996 31.0001V41.0001C42.9996 41.6001 43.3996 42.0001 43.9996 42.0001C44.5996 42.0001 44.9996 41.6001 44.9996 41.0001V31.0001C44.9996 24.7001 41.0996 19.1001 35.1996 16.9001L37.7996 12.5001C37.9996 12.2001 37.9996 11.8001 37.7996 11.5001C37.6996 11.2001 37.3996 11.0001 36.9996 11.0001H22.9996C22.5996 11.0001 22.2996 11.2001 22.0996 11.5001C21.8996 11.8001 21.8996 12.2001 22.0996 12.5001L24.6996 16.9001C18.8996 19.2001 14.9996 24.8001 14.9996 31.0001V43.6001L13.0996 45.5001C12.7996 45.8001 12.5996 46.1001 12.3996 46.5001L8.99959 45.0001C6.99959 44.1001 4.49959 44.9002 3.49959 46.9002C2.29959 49.0001 3.19959 51.9002 5.29959 53.0001L16.9996 58.7001C18.7996 59.6002 20.7996 60.1001 22.7996 60.1001H36.1996C36.5996 60.1001 36.9996 59.7001 36.9996 59.3001V58.9002C36.9996 58.5001 36.5996 58.1001 36.1996 58.1001H22.8996C21.1996 58.1001 19.4996 57.7001 17.9996 56.9002L6.29959 51.1001C5.09959 50.5001 4.69959 48.9001 5.29959 47.8001C5.89959 46.8001 7.19959 46.3001 8.19959 46.8001L19.5996 52.0001C19.6996 52.1001 19.8996 52.1001 19.9996 52.1001H30.1996C30.5996 52.1001 30.9996 51.7001 30.9996 51.3001V50.9002C30.9996 50.5001 30.5996 50.1001 30.1996 50.1001H22.0996C21.0996 50.1001 20.0996 49.3001 19.9996 48.3001C19.8996 47.1001 20.7996 46.1001 21.9996 46.1001H29.6996C29.8996 46.1001 29.9996 46.1001 30.1996 46.0001L30.4996 45.9002C34.3996 43.8002 39.0996 43.7001 43.0996 45.8001V58.2001H39.8996C39.4996 58.2001 39.0996 58.6001 39.0996 59.0001V59.4002C39.0996 59.8002 39.4996 60.2001 39.8996 60.2001H56.0996C56.5996 60.1002 57.0996 59.6001 57.0996 59.1001ZM51.0996 54.1001C51.0996 53.3001 50.5996 52.6001 49.8996 52.3001C49.1996 52.0001 48.2996 52.2001 47.6996 52.7001C47.0996 53.3001 46.9996 54.1002 47.2996 54.9002C47.5996 55.6002 48.2996 56.1001 49.0996 56.1001C50.1996 56.1001 51.0996 55.2001 51.0996 54.1001ZM33.9996 2.30015C45.6996 4.00015 55.0996 12.8001 57.4996 24.3001C57.5996 24.8001 58.0996 25.2001 58.5996 25.1001C59.1996 25.0001 59.4996 24.5001 59.3996 23.9001C57.3996 14.3001 50.6996 6.20015 41.5996 2.40015C32.0996 -1.59985 21.2996 -0.399852 12.8996 5.40015C12.4996 5.70015 12.3996 6.30015 12.5996 6.80015L15.9996 12.0001C16.0996 12.2001 16.3996 12.4001 16.6996 12.4001C16.9996 12.5001 17.1996 12.4001 17.4996 12.2001C21.9996 9.00015 27.5996 7.60015 33.0996 8.40015C44.9996 10.1001 53.2996 21.2001 51.5996 33.1001C51.2996 35.0001 50.7996 36.9001 50.0996 38.6001L49.0996 37.9002C48.7996 37.7001 48.3996 37.6001 48.0996 37.8001C47.7996 38.0001 47.4996 38.3001 47.4996 38.7001V48.7001C47.4996 49.0001 47.5996 49.3001 47.8996 49.5001C48.1996 49.7001 48.4996 49.8001 48.7996 49.7001L58.3996 46.9002C58.7996 46.8002 58.9996 46.5001 59.0996 46.1001C59.1996 45.7001 58.9996 45.3001 58.6996 45.1001L56.7996 43.7001C59.0996 39.1002 60.1996 34.1001 60.0996 29.0001C60.0996 28.4001 59.5996 28.0001 58.9996 28.0001C58.4996 28.0001 58.0996 28.5001 58.0996 29.0001C58.1996 30.6001 58.0996 32.3002 57.7996 33.9002C57.2996 37.2001 56.2996 40.5001 54.5996 43.4002C54.3996 43.8002 54.4996 44.4002 54.8996 44.7001L55.8996 45.5001L49.4996 47.3001V40.6001L49.8996 40.9002C50.0996 41.1002 50.3996 41.1001 50.6996 41.1001C50.9996 41.0001 51.1996 40.8001 51.3996 40.6001C52.4996 38.3001 53.2996 35.9001 53.5996 33.3001C55.3996 20.3001 46.3996 8.20015 33.3996 6.40015C27.6996 5.60015 21.8996 6.90015 17.0996 10.0001L14.7996 6.40015C20.4996 2.80015 27.2996 1.30015 33.9996 2.30015Z" fill="white"/>
<path d="M27.6992 38.1002V24.6002C27.6992 24.3002 27.8992 24.0002 28.2992 23.9002C29.2992 23.8002 30.2992 23.7002 31.4992 23.7002C33.3992 23.7002 34.7992 24.1002 35.7992 25.0002C36.6992 25.8002 37.1992 26.8002 37.1992 28.2002C37.1992 29.6002 36.7992 30.7002 35.9992 31.5002C34.9992 32.6002 33.3992 33.2002 31.2992 33.2002C30.5992 33.2002 30.0992 33.2002 29.6992 33.1002V38.2002C29.6992 38.7002 29.2992 39.2002 28.6992 39.2002C28.0992 39.0002 27.6992 38.6002 27.6992 38.1002ZM29.6992 25.4002V31.3002C30.0992 31.4002 30.6992 31.5002 31.2992 31.5002C32.4992 31.5002 33.3992 31.2002 34.0992 30.7002C34.7992 30.1002 35.0992 29.3002 35.0992 28.3002C35.0992 27.3002 34.7992 26.6002 34.0992 26.1002C33.4992 25.6002 32.5992 25.3002 31.4992 25.3002C30.6992 25.2002 30.0992 25.3002 29.6992 25.4002Z" fill="white"/>
<path d="M28.7008 33.0002H25.7008C25.2008 33.0002 24.8008 32.6002 24.8008 32.1002C24.8008 31.6002 25.2008 31.2002 25.7008 31.2002H28.7008C29.2008 31.2002 29.6008 31.6002 29.6008 32.1002C29.6008 32.7002 29.2008 33.0002 28.7008 33.0002Z" fill="white"/>
<path d="M31.0008 36.0002H25.7008C25.2008 36.0002 24.8008 35.6002 24.8008 35.1002C24.8008 34.6002 25.2008 34.2002 25.7008 34.2002H31.0008C31.5008 34.2002 31.9008 34.6002 31.9008 35.1002C31.9008 35.6002 31.4008 36.0002 31.0008 36.0002Z" fill="white"/>
</g>
<defs>
<clipPath id="clip0_663:1530">
<rect width="60.1" height="60.1" fill="white"/>
</clipPath>
</defs>
</svg>
