<svg width="65" height="65" viewBox="0 0 65 65" fill="none" xmlns="http://www.w3.org/2000/svg">
<g clip-path="url(#clip0_663:1525)">
<path d="M53.7001 40.0999C54.0001 40.0999 54.4001 39.9999 54.6001 39.6999L64.3001 28.5999C64.6002 28.1999 64.7001 27.5999 64.4001 27.1999L54.0001 11.3999C53.8001 11.0999 53.4001 10.8999 53.0001 10.8999H11.6001C11.2001 10.8999 10.8001 11.0999 10.6001 11.3999L0.200146 27.0999C0.200146 27.1999 0.100146 27.1999 0.100146 27.2999C-0.0998544 27.6999 0.000145584 28.1999 0.300146 28.4999L5.60015 34.4999C5.80015 34.7999 6.00015 34.9999 6.30015 34.9999C6.60015 34.9999 6.90015 34.8999 7.10015 34.6999C7.60015 34.2999 7.60015 33.4999 7.20015 33.0999L3.70015 28.9999H21.0001V29.0999L29.7001 58.6999L29.4001 58.2999L19.7001 47.2999C19.5001 47.0999 19.2001 46.8999 18.9001 46.8999H18.8001C18.5001 46.8999 18.3001 46.9999 18.0001 47.1999C17.8001 47.3999 17.6001 47.6999 17.6001 47.9999C17.6001 48.2999 17.7001 48.5999 17.9001 48.7999L31.3001 64.0999C31.5001 64.3999 31.8001 64.4999 32.2001 64.4999C32.5001 64.4999 32.9001 64.3999 33.1001 64.0999L47.3001 47.7999C47.5001 47.5999 47.6001 47.2999 47.6001 46.9999C47.6001 46.6999 47.4001 46.3999 47.2001 46.1999C47.0001 45.9999 46.7001 45.8999 46.4001 45.8999C46.1001 45.8999 45.8001 46.0999 45.6001 46.2999L34.8001 58.6999L43.5001 28.9999H60.8001L52.8001 38.1999C52.4001 38.6999 52.4001 39.3999 52.9001 39.7999C53.1001 39.9999 53.4001 40.0999 53.7001 40.0999ZM32.3001 14.2999L40.4001 26.6999H24.0001L32.2001 14.1999L32.3001 14.2999ZM3.30015 26.6999L11.6001 14.1999L19.8001 26.6999H3.30015ZM21.8001 25.5999L13.7001 13.1999H30.1001L21.9001 25.6999L21.8001 25.5999ZM32.3001 59.0999L32.2001 58.7999L23.4001 28.9999H41.0001L32.3001 59.0999ZM42.6001 25.6999L42.5001 25.5999L34.4001 13.1999H50.8001L42.6001 25.6999ZM44.8001 26.6999L53.0001 14.0999L53.1001 14.1999L61.2001 26.5999H44.8001V26.6999Z" fill="white"/>
<path d="M19.7992 41.3001C16.4992 41.3001 13.7992 38.6001 13.7992 35.3001C13.7992 34.7001 13.2992 34.1001 12.5992 34.1001C11.9992 34.1001 11.3992 34.6001 11.3992 35.3001C11.3992 38.6001 8.69922 41.3001 5.39922 41.3001C4.79922 41.3001 4.19922 41.8001 4.19922 42.5001C4.19922 43.1001 4.69922 43.7001 5.39922 43.7001C8.69922 43.7001 11.3992 46.4001 11.3992 49.7001C11.3992 50.3001 11.8992 50.9001 12.5992 50.9001C13.1992 50.9001 13.7992 50.4001 13.7992 49.7001C13.7992 46.4001 16.4992 43.7001 19.7992 43.7001C20.3992 43.7001 20.9992 43.2001 20.9992 42.5001C20.8992 41.9001 20.3992 41.3001 19.7992 41.3001ZM15.3992 42.6001C14.2992 43.3001 13.3992 44.2001 12.6992 45.3001L12.5992 45.4001L12.4992 45.3001C11.7992 44.2001 10.8992 43.3001 9.79922 42.6001L9.69922 42.5001L9.79922 42.4001C10.8992 41.7001 11.7992 40.8001 12.4992 39.7001L12.5992 39.6001L12.6992 39.7001C13.3992 40.8001 14.2992 41.7001 15.3992 42.4001L15.4992 42.5001L15.3992 42.6001Z" fill="white"/>
<path d="M63.4 5.1C61.3 5.1 59.5 3.4 59.5 1.2C59.5 0.6 59 0 58.3 0C57.7 0 57.1 0.5 57.1 1.2C57.1 3.3 55.4 5.1 53.2 5.1C52.6 5.1 52 5.6 52 6.3C52 6.9 52.5 7.5 53.2 7.5C55.3 7.5 57.1 9.2 57.1 11.4C57.1 12 57.6 12.6 58.3 12.6C58.9 12.6 59.5 12.1 59.5 11.4C59.5 9.3 61.2 7.5 63.4 7.5C64 7.5 64.6 7 64.6 6.3C64.5 5.6 64 5.1 63.4 5.1ZM59.6 6.3C59.1 6.7 58.7 7.1 58.4 7.5L58.3 7.6L58.2 7.5C57.8 7 57.4 6.6 57 6.3L56.9 6.2L57 6.1C57.5 5.7 57.9 5.3 58.2 4.9L58.3 4.8L58.4 4.9C58.8 5.4 59.2 5.8 59.6 6.1L59.7 6.2L59.6 6.3Z" fill="white"/>
<path d="M49.9008 42C49.6008 42 49.3008 42.1 49.1008 42.3C48.9008 42.5 48.8008 42.8 48.8008 43.1C48.8008 43.4 48.9008 43.7 49.1008 43.9C49.3008 44.1 49.6008 44.2 49.9008 44.2C50.2008 44.2 50.5008 44.1 50.7008 43.9C50.9008 43.7 51.0008 43.4 51.0008 43.1C51.0008 42.8 50.9008 42.5 50.7008 42.3C50.5008 42.1 50.2008 42 49.9008 42Z" fill="white"/>
</g>
<defs>
<clipPath id="clip0_663:1525">
<rect width="64.5" height="64.5" fill="white"/>
</clipPath>
</defs>
</svg>
