<svg width="60" height="60" viewBox="0 0 60 60" fill="none" xmlns="http://www.w3.org/2000/svg">
<path d="M53.943 33.6137C52.473 45.7937 43.743 46.5737 42.153 47.1137C41.4631 47.3237 35.1031 48.9437 27.1231 48.4337L18.4531 58.0337V46.9637L18.3931 46.9337C6.75305 43.6337 7.14305 31.2137 7.29305 24.7037C7.41305 18.1937 8.58305 12.8837 12.1531 9.28369C18.5131 3.37369 31.653 4.24369 31.653 4.24369C42.7531 4.30369 48.063 7.72369 49.2931 8.86369C53.3731 12.4637 55.443 21.0437 53.943 33.6137ZM52.2931 5.83369C50.8231 4.45369 44.943 0.0736907 31.833 0.0436907C31.833 0.0436907 16.3831 -0.916309 8.85305 6.16369C4.65305 10.4537 3.18305 16.7537 3.03305 24.5237C2.88305 32.3237 2.67305 46.9337 16.4131 50.8937V56.9237C16.4131 56.9237 16.3231 59.3837 17.8831 59.8637C19.7731 60.4637 20.9131 58.6037 22.7131 56.5937C23.7031 55.4837 25.0831 53.8637 26.1331 52.6337C35.5231 53.4437 42.7831 51.5837 43.593 51.3137C45.483 50.6837 56.223 49.2737 57.993 34.6637C59.8231 19.6337 57.153 10.1237 52.2931 5.83369Z" fill="#B777BE"/>
<path d="M43.9222 35.4437C43.9222 35.4437 42.1522 33.9437 41.3122 33.2837C40.5022 32.6837 39.2122 31.8437 38.4922 31.4537C37.2022 30.7037 35.8822 31.1837 35.3422 31.9037L34.2022 33.3737C33.6322 34.1237 32.7322 34.0037 32.4922 33.9437C30.8122 33.5237 29.0422 32.4737 27.2122 30.7037C25.3222 28.9037 24.2122 27.0437 23.8222 25.0937L23.7922 24.9737C23.6722 24.1637 23.8222 23.8037 24.1522 23.2637L24.2122 23.2037C24.9922 22.4837 26.4022 21.6137 26.5822 20.8037C27.1522 19.3637 24.7222 16.3637 24.3622 15.8537C24.3622 15.8537 22.5922 13.5137 21.9622 13.0637C21.3022 12.5237 20.2522 12.1937 19.2022 12.8537L19.1422 12.8837C16.1122 14.9237 15.0022 16.1237 15.3022 17.8937L15.4522 18.5837C16.9822 23.4437 19.9822 28.6337 24.3922 33.2237C28.7722 37.7837 33.5422 40.5137 38.1922 42.4037C39.4222 42.7937 40.6822 42.4637 41.9722 41.3537H42.0022C42.9922 40.4237 43.7722 39.4337 44.3722 38.3837V38.3537C44.9422 37.2137 44.7622 36.1637 43.9222 35.4437Z" fill="#B777BE"/>
<path d="M36.6336 24.7937C36.4536 24.7937 36.3036 24.6437 36.2736 24.4637C36.2136 23.2037 35.8836 22.2437 35.2536 21.5837C34.6536 20.9537 33.7536 20.5937 32.5536 20.5337C32.3736 20.5337 32.2236 20.3537 32.2236 20.1437C32.2236 19.9337 32.4036 19.7837 32.5836 19.8137C33.9336 19.9037 35.0136 20.3237 35.7336 21.1037C36.4536 21.8837 36.8736 22.9937 36.9336 24.4337C36.9936 24.6137 36.8436 24.7937 36.6336 24.7937Z" fill="#B777BE"/>
<path d="M40.1134 25.9937C39.9034 25.9937 39.7534 25.8137 39.7534 25.6337C39.8134 23.2037 39.0934 21.1637 37.6534 19.5437C36.9334 18.7337 36.0634 18.1037 35.0434 17.6537C34.0234 17.2037 32.8534 16.9337 31.5634 16.8137C31.3834 16.8137 31.2334 16.6337 31.2334 16.4237C31.2334 16.2137 31.4134 16.0637 31.5934 16.0937C34.3834 16.3037 36.6034 17.2937 38.1634 19.0337C39.7234 20.7737 40.5034 22.9937 40.4434 25.6037C40.4434 25.8437 40.2934 25.9937 40.1134 25.9937Z" fill="#B777BE"/>
<path d="M43.6522 27.4037C43.4722 27.4037 43.2922 27.2537 43.2922 27.0437C43.2622 24.9137 42.9622 22.9637 42.3322 21.2837C41.7022 19.6337 40.7722 18.1637 39.5722 16.9337C38.3422 15.7037 36.9622 14.7737 35.4322 14.1737C33.9022 13.5737 32.2222 13.2437 30.3922 13.2437C30.2122 13.2437 30.0322 13.0937 30.0322 12.8837C30.0322 12.6737 30.1822 12.5237 30.3922 12.5237C34.2322 12.5537 37.4722 13.8737 40.0522 16.4537C41.3422 17.7437 42.3322 19.3037 42.9922 21.0737C43.6522 22.8137 43.9822 24.8537 44.0122 27.0737C43.9822 27.2537 43.8322 27.4037 43.6522 27.4037Z" fill="#B777BE"/>
</svg>
