<svg width="60" height="60" viewBox="0 0 60 60" fill="none" xmlns="http://www.w3.org/2000/svg">
<path d="M49.1346 10.857C44.0628 5.781 37.3094 3 30.122 3C15.2863 3 3.2441 15.015 3.21698 29.757C3.21698 34.482 4.46459 39.072 6.79709 43.122L3 57L17.2662 53.274C21.1989 55.407 25.6198 56.541 30.122 56.541C44.9307 56.541 57 44.526 57 29.784C57 22.629 54.2064 15.906 49.1346 10.857ZM30.122 52.005C26.108 52.005 22.1753 50.925 18.7308 48.9L17.9171 48.414L9.45505 50.628L11.7062 42.42L11.1637 41.583C8.93973 38.046 7.74636 33.942 7.74636 29.757C7.74636 17.499 17.7815 7.509 30.0949 7.509C36.0618 7.509 41.676 9.831 45.9071 14.043C50.1381 18.255 52.4435 23.844 52.4435 29.784C52.4435 42.042 42.4355 52.005 30.122 52.005ZM42.3812 35.373C41.7032 35.049 38.3943 33.429 37.7976 33.186C37.1738 32.97 36.7398 32.862 36.2788 33.51C35.8177 34.185 34.5429 35.697 34.1632 36.129C33.7835 36.588 33.3767 36.642 32.6986 36.291C32.0206 35.967 29.8508 35.238 27.3014 32.97C25.2943 31.188 23.9653 29.001 23.5585 28.326C23.1517 27.678 23.5043 27.327 23.8297 27.003C24.1552 26.706 24.5078 26.22 24.8604 25.815C25.1858 25.437 25.2943 25.14 25.5113 24.708C25.7283 24.249 25.6198 23.871 25.4571 23.547C25.2943 23.196 23.9653 19.902 23.3958 18.579C22.8533 17.283 22.2838 17.445 21.8769 17.418C21.4972 17.391 21.0362 17.391 20.6022 17.391C20.1411 17.391 19.436 17.553 18.8122 18.228C18.1883 18.903 16.4525 20.523 16.4525 23.817C16.4525 27.111 18.8664 30.297 19.1919 30.729C19.5173 31.188 23.9382 37.938 30.6645 40.827C32.2647 41.529 33.5123 41.934 34.4887 42.231C36.0889 42.744 37.5535 42.663 38.7197 42.501C40.0216 42.312 42.7067 40.881 43.2491 39.315C43.8187 37.749 43.8187 36.426 43.6288 36.129C43.4932 35.859 43.0321 35.697 42.3812 35.373Z" fill="#B777BE"/>
</svg>
