<svg width="60" height="53" viewBox="0 0 60 53" fill="none" xmlns="http://www.w3.org/2000/svg">
<path d="M55.62 1.57001L2.34001 22.48C2.34001 22.48 -0.17999 23.35 0.0300101 24.94C0.24001 26.53 2.28001 27.25 2.28001 27.25L15.69 31.75L47.88 11.32C47.88 11.32 49.74 10.18 49.68 11.32C49.68 11.32 50.01 11.53 49.02 12.46C48 13.39 23.7 35.23 23.7 35.23L23.64 35.29L23.61 35.47L21.96 50.14C22.71 50.47 23.37 49.96 23.37 49.96L32.04 42.07L45.54 52.42C49.2 54.01 50.52 50.68 50.52 50.68L60 2.83001C60 -0.349987 55.62 1.57001 55.62 1.57001Z" fill="#B777BE"/>
</svg>
