<svg width="33" height="40" viewBox="0 0 33 40" fill="none" xmlns="http://www.w3.org/2000/svg">
<path d="M32.089 16.1902L29.8656 13.7997C30.2979 13.0896 30.4518 12.262 30.2983 11.4425C30.1292 10.5411 29.6094 9.75791 28.8344 9.23667L25.6267 7.07969C25.6468 6.57594 25.5518 6.0701 25.3409 5.59365C24.9689 4.75219 24.2822 4.10156 23.4067 3.76219L16.313 1.01239C15.453 0.679165 14.5164 0.688022 13.6749 1.02375C13.035 0.392291 12.1461 0 11.1643 0H3.52743C1.58234 0 0 1.53854 0 3.42979V32.8577C0 36.796 3.29559 40 7.34572 40C9.18913 40 10.876 39.3363 12.1671 38.2418C12.1855 38.2292 12.2035 38.2153 12.2211 38.2003L25.9737 26.1661C26.2214 25.9493 26.2415 25.5778 26.0185 25.3365C25.7954 25.0956 25.4129 25.076 25.1656 25.2929L24.599 25.7885L22.758 23.809L25.6481 19.7457L28.2758 22.5713L27.0802 23.6174C26.8324 23.8346 26.8119 24.2057 27.0354 24.447C27.1546 24.576 27.3191 24.6416 27.4844 24.6416C27.6284 24.6416 27.7728 24.5919 27.8883 24.4905L31.8383 21.0344C32.5371 20.4199 32.9477 19.5776 32.9954 18.6629C33.0427 17.7482 32.7209 16.8697 32.089 16.1902ZM29.1098 11.6532C29.2207 12.2457 29.088 12.8447 28.7352 13.3402L27.0952 15.6461L23.3606 13.1352L25.3376 8.31375L28.1473 10.203C28.657 10.5456 28.9985 11.0604 29.1098 11.6532ZM23.3677 20.8867L20.8707 19.2074L22.9016 14.255L26.4076 16.6125L23.3677 20.8867ZM19.6403 26.1271L18.3807 25.28L20.4116 20.3272L22.6806 21.8526L19.6403 26.1271ZM20.5702 16.7684L18.8196 16.0897C18.5096 15.9693 18.1584 16.1161 18.0346 16.4176C17.9112 16.7187 18.0622 17.0605 18.3719 17.1806L20.1228 17.8593L18.0476 22.9199L14.6918 21.6191V15.754L15.9703 16.2496C16.0434 16.2781 16.1192 16.2915 16.1937 16.2915C16.4335 16.2915 16.6607 16.1516 16.7549 15.9217C16.8787 15.6201 16.7277 15.2787 16.4175 15.1583L14.6918 14.4894V8.62385L22.6454 11.7078L20.5702 16.7684ZM13.4836 13.1022H6.64057C6.30696 13.1022 6.03667 13.3655 6.03667 13.6898C6.03667 14.0141 6.30696 14.277 6.64057 14.277H13.4836V19.7253H1.20824V14.277H4.06609C4.39959 14.277 4.67031 14.0141 4.67031 13.6898C4.67031 13.3655 4.39959 13.1022 4.06609 13.1022H1.20824V7.65417H13.4832V13.1022H13.4836V13.1022ZM1.20824 20.9001H13.4832V26.348H1.20824V20.9001ZM14.6918 22.8837L17.6003 24.0112L14.6918 31.104V22.8837ZM18.456 29.8576L19.126 30.5778L15.9949 33.3175L18.456 29.8576ZM15.8456 31.4624L17.9217 26.3994L18.9531 27.0931L15.8456 31.4624ZM15.8656 2.10365L22.9593 4.85354C23.5347 5.07688 23.9863 5.50417 24.2311 6.0575C24.3993 6.43802 24.4559 6.84656 24.4002 7.24646C24.3989 7.25094 24.3985 7.25583 24.3977 7.26031C24.3721 7.43771 24.3244 7.61271 24.2546 7.78323L23.0928 10.6165L14.6918 7.35917V3.42979C14.6918 2.9301 14.5804 2.45562 14.382 2.02719C14.8667 1.89417 15.3844 1.91688 15.8656 2.10365ZM3.52743 1.17469H11.1643C12.4428 1.17469 13.4836 2.18625 13.4836 3.42979V6.47948H1.20824V3.42979C1.20824 2.18625 2.24859 1.17469 3.52743 1.17469ZM1.20824 32.8577V27.5228H13.4832V32.8577C13.4832 36.1482 10.73 38.8253 7.34571 38.8253C3.96142 38.8253 1.20824 36.1482 1.20824 32.8577ZM23.7009 26.5747L20.0241 29.7921L19.162 28.8651L22.052 24.8019L23.7009 26.5747ZM31.7885 18.604C31.7575 19.2053 31.4872 19.7592 31.0289 20.1624L29.1738 21.7855L26.354 18.7532L29.1662 14.7994L31.1926 16.9783C31.6081 17.4251 31.8199 18.0021 31.7885 18.604Z" fill="#B777BE"/>
<path d="M7.20924 30.0623C5.6119 30.0623 4.3125 31.326 4.3125 32.8793C4.3125 34.4324 5.6119 35.6958 7.20924 35.6958C8.80668 35.6958 10.1064 34.4324 10.1064 32.8793C10.1064 31.326 8.80668 30.0623 7.20924 30.0623ZM7.20924 34.521C6.27815 34.521 5.52073 33.7846 5.52073 32.8793C5.52073 31.9738 6.27815 31.237 7.20924 31.237C8.14042 31.237 8.89828 31.9738 8.89828 32.8793C8.89828 33.7846 8.14042 34.521 7.20924 34.521Z" fill="#B777BE"/>
</svg>
