<svg width="44" height="50" viewBox="0 0 44 50" fill="none" xmlns="http://www.w3.org/2000/svg">
<path d="M41.4511 21.091L27.1602 11.8053C26.967 11.68 26.7185 11.68 26.5258 11.8053L24.4787 13.1356L18.2589 9.09394C18.0663 8.96869 17.8178 8.96869 17.625 9.09394L3.47341 18.2892C3.20399 18.4642 3.12756 18.8245 3.30255 19.0939C3.47745 19.3631 3.83789 19.4398 4.10731 19.2649L4.86925 18.7696V30.8394H2.81448C2.3652 30.8394 2 31.205 2 31.6538V40.6333C2 41.0826 2.3652 41.4478 2.81448 41.4478H39.0691C39.6036 41.4478 40.0387 41.0131 40.0387 40.4782V37.7128C40.0387 37.3916 39.7782 37.131 39.4569 37.131C39.1354 37.131 38.8752 37.3916 38.8752 37.7128V40.2843H37.5274V29.5118C37.5274 29.0629 37.1622 28.6973 36.7129 28.6973H16.9731C16.5238 28.6973 16.1586 29.0629 16.1586 29.5118V40.2843H14.8107V20.8049L26.843 12.987L38.8752 20.8049V34.9978C38.8752 35.319 39.1354 35.5796 39.457 35.5796C39.7782 35.5796 40.0387 35.319 40.0387 34.9978V21.5609L40.8169 22.0667C40.9151 22.1301 41.0249 22.1608 41.1336 22.1608C41.3239 22.1608 41.5106 22.0675 41.6217 21.8958C41.797 21.6263 41.7202 21.2659 41.4511 21.091ZM27.4247 29.8608H36.3639V30.8018H27.4247V29.8608ZM27.4247 32.0429H36.3639V33.0614H27.4247V32.0429ZM27.4247 34.2249H36.3639V40.2843H27.4247V34.2249ZM17.3221 29.8608H26.2612V30.8018H17.3221V29.8608ZM17.3221 34.2249H21.0046C21.3258 34.2249 21.5864 33.9644 21.5864 33.6431C21.5864 33.322 21.3258 33.0614 21.0046 33.0614H17.3221V32.0429H26.2612V33.0614H23.7196C23.3984 33.0614 23.1378 33.322 23.1378 33.6431C23.1378 33.9644 23.3984 34.2249 23.7196 34.2249H26.2612V40.2843H17.3221V34.2249ZM6.733 40.2843H3.16355V36.7254H6.733V40.2843ZM6.733 35.5618H3.16355V32.0029H6.733V35.5618ZM12.2348 21.091C11.9657 21.2659 11.8889 21.6263 12.0639 21.8958C12.2392 22.1653 12.5996 22.2416 12.8687 22.0667L13.6472 21.5609V40.2843H12.6299V39.8847C12.6299 39.5636 12.3693 39.3029 12.0481 39.3029C11.7266 39.3029 11.4663 39.5636 11.4663 39.8847V40.2843H7.89655V36.7253H11.4663V37.1698C11.4663 37.4909 11.7269 37.7515 12.0481 37.7515C12.3693 37.7515 12.6299 37.4909 12.6299 37.1698V36.3763C12.6299 35.9274 12.2646 35.5618 11.8154 35.5618H7.89655V31.6538C7.89655 31.205 7.53125 30.8394 7.08206 30.8394H6.03281V18.0136L17.9418 10.2757L23.4109 13.8293L12.2348 21.091Z" fill="#B777BE"/>
<path d="M24.8474 19.1348H28.8399C29.161 19.1348 29.4216 18.8742 29.4216 18.553C29.4216 18.2319 29.161 17.9713 28.8399 17.9713H24.8474C24.5263 17.9713 24.2656 18.2319 24.2656 18.553C24.2656 18.8742 24.5263 19.1348 24.8474 19.1348Z" fill="#B777BE"/>
<path d="M16.9727 22.5119C16.5234 22.5119 16.1582 22.8772 16.1582 23.3264V24.8495C16.1582 25.2988 16.5234 25.664 16.9727 25.664H21.9977C22.4469 25.664 22.8121 25.2988 22.8121 24.8495V23.3264C22.8121 22.8772 22.4469 22.5119 21.9977 22.5119H16.9727ZM21.6486 24.5005H17.3218V23.6754H21.6486V24.5005Z" fill="#B777BE"/>
<path d="M23.5156 23.3264V24.8495C23.5156 25.2988 23.8808 25.664 24.3301 25.664H29.3552C29.8045 25.664 30.1697 25.2988 30.1697 24.8495V23.3264C30.1697 22.8772 29.8045 22.5119 29.3552 22.5119H24.3301C23.8808 22.5119 23.5156 22.8772 23.5156 23.3264ZM24.6792 23.6754H29.0061V24.5005H24.6792V23.6754Z" fill="#B777BE"/>
<path d="M31.6875 22.5119C31.2382 22.5119 30.873 22.8772 30.873 23.3264V24.8495C30.873 25.2988 31.2382 25.664 31.6875 25.664H36.7126C37.1619 25.664 37.5271 25.2988 37.5271 24.8495V23.3264C37.5271 22.8772 37.1619 22.5119 36.7126 22.5119H31.6875ZM36.3635 24.5005H32.0366V23.6754H36.3635V24.5005Z" fill="#B777BE"/>
</svg>
