<svg width="40" height="39" viewBox="0 0 40 39" fill="none" xmlns="http://www.w3.org/2000/svg">
<path d="M5.79064 14.2489H8.62906C9.0349 14.2489 9.21978 13.9402 9.21978 13.6534C9.21978 13.3669 9.0349 13.0586 8.62906 13.0586H5.79064C5.46236 13.0586 5.19531 13.3255 5.19531 13.6536C5.19531 13.9819 5.46236 14.2489 5.79064 14.2489Z" fill="#B777BE"/>
<path d="M5.7899 12.0274H8.62832C9.03416 12.0274 9.21904 11.7187 9.21904 11.432C9.21904 11.1456 9.03416 10.8373 8.62832 10.8373H5.7899C5.38406 10.8373 5.19922 11.1459 5.19922 11.4327C5.19922 11.7191 5.38406 12.0274 5.7899 12.0274Z" fill="#B777BE"/>
<path d="M8.62832 28.0125H5.7899C5.38406 28.0125 5.19922 28.3212 5.19922 28.608C5.19922 28.8945 5.38406 29.2029 5.7899 29.2029H8.62832C9.03416 29.2029 9.21904 28.8942 9.21904 28.6074C9.21904 28.3209 9.03416 28.0125 8.62832 28.0125Z" fill="#B777BE"/>
<path d="M5.19922 26.3868C5.19922 26.6733 5.38406 26.9817 5.7899 26.9817H8.62832C9.03416 26.9817 9.21904 26.673 9.21904 26.3861C9.21904 26.0997 9.03416 25.7913 8.62832 25.7913H5.7899C5.38406 25.7913 5.19922 26.1 5.19922 26.3868Z" fill="#B777BE"/>
<path d="M25.0465 28.0125H22.208C21.8021 28.0125 21.6172 28.3212 21.6172 28.608C21.6172 28.8945 21.8021 29.2029 22.208 29.2029H25.0465C25.4522 29.2029 25.6371 28.8942 25.6371 28.6075C25.6371 28.3209 25.4522 28.0125 25.0465 28.0125Z" fill="#B777BE"/>
<path d="M25.0465 25.7913H22.208C21.8021 25.7913 21.6172 26.1 21.6172 26.3867C21.6172 26.6733 21.8021 26.9817 22.208 26.9817H25.0465C25.4522 26.9817 25.6371 26.673 25.6371 26.3862C25.6371 26.0997 25.4522 25.7913 25.0465 25.7913Z" fill="#B777BE"/>
<path d="M36.9692 30.8927H36.6778V25.4499C36.6778 25.0441 36.3691 24.8592 36.0823 24.8592C35.9268 24.8592 35.7817 24.9117 35.6738 25.0068C35.5519 25.1144 35.4874 25.2676 35.4874 25.4499V30.8927H20.2598V17.1443H24.9858V21.1977C24.9858 21.5899 25.1869 21.9442 25.5237 22.1456C26.1091 22.4956 26.5974 22.2059 27.1629 21.8706C27.3862 21.7381 27.6171 21.6012 27.8728 21.4914C28.2579 21.6865 28.5296 21.839 28.7482 21.9618C29.1786 22.2033 29.3567 22.3033 29.6577 22.3033C30.2661 22.3033 30.7611 21.8073 30.7611 21.1977V17.1443H35.2806C35.3947 17.1443 35.4875 17.2371 35.4875 17.3512V23.1459C35.4875 23.5517 35.7961 23.7366 36.083 23.7366C36.3694 23.7366 36.6778 23.5517 36.6778 23.1459V17.3512C36.6778 16.5807 36.051 15.954 35.2806 15.954H20.2595V2.3972C20.2595 1.62677 19.6327 1 18.8623 1H4.0483C3.27787 1 2.6511 1.62677 2.6511 2.3972V8.17337C2.6511 8.57917 2.95982 8.76402 3.24665 8.76402C3.53315 8.76402 3.84149 8.57918 3.84149 8.17371C3.87993 5.90004 3.85311 4.46189 3.83707 3.60266C3.81981 2.67564 3.81332 2.32877 3.90973 2.23056C3.93806 2.20164 3.97692 2.1904 4.0483 2.1904H8.56779V6.24376C8.56779 6.63585 8.76874 6.99017 9.1053 7.19161C9.69096 7.54151 10.1791 7.25186 10.7445 6.91669C10.9679 6.78416 11.199 6.6472 11.4547 6.53741C11.8398 6.73244 12.1115 6.88499 12.3301 7.0077C12.7605 7.24927 12.9386 7.34924 13.2393 7.34924C13.8477 7.34924 14.3427 6.85332 14.3427 6.24375V2.19081C16.0357 2.22644 17.1208 2.20216 17.8397 2.18613C18.6094 2.16889 18.9279 2.16177 19.0262 2.25781C19.0563 2.28726 19.0691 2.32893 19.0691 2.3972V15.954H3.8415V10.4902C3.8415 10.0843 3.53282 9.8994 3.24602 9.8994C2.95948 9.8994 2.6511 10.0843 2.6511 10.4902V30.8927H2.35973C1.05858 30.8927 0 31.9512 0 33.2524C0 34.5536 1.05858 35.6121 2.35973 35.6121H2.5267V37.6382C2.5267 38.3753 3.12619 38.9749 3.86304 38.9749H4.747C5.48386 38.9749 6.08334 38.3753 6.08334 37.6382V35.6121H33.2455V37.6382C33.2455 38.3753 33.845 38.9749 34.5819 38.9749H35.4659C36.2027 38.9749 36.8022 38.3753 36.8022 37.6382V35.6121H36.9692C38.2704 35.6121 39.3289 34.5536 39.3289 33.2524C39.3289 31.9512 38.2704 30.8927 36.9692 30.8927ZM35.6119 37.6382C35.6119 37.7189 35.5463 37.7845 35.4659 37.7845H34.5819C34.5014 37.7845 34.4359 37.7189 34.4359 37.6382V35.6121H35.6119V37.6382H35.6119ZM4.89446 37.1011C4.90604 37.4896 4.91185 37.6846 4.84612 37.7522C4.82457 37.7745 4.79419 37.7845 4.74769 37.7845C4.53062 37.7693 4.3384 37.7773 4.18384 37.7841C3.97011 37.7932 3.81558 37.7997 3.75214 37.739C3.72857 37.7163 3.71711 37.6834 3.71711 37.6382V35.6121H4.89244C4.87029 36.2893 4.88483 36.7772 4.89446 37.1011ZM9.10583 22.1458C9.44246 22.3469 9.84943 22.3559 10.1947 22.1699L11.4554 21.492L12.7158 22.1699C13.0613 22.3559 13.4686 22.3468 13.8054 22.1455C14.142 21.9444 14.343 21.59 14.343 21.1977V17.1443H19.0691V30.8927H3.8415V17.1443H8.56779V21.1977C8.56779 21.5901 8.76893 21.9446 9.10583 22.1458ZM13.1527 21.0536L11.9784 20.4219C11.4088 20.115 10.9465 20.3888 10.4112 20.7055C10.2054 20.8272 9.99294 20.9528 9.75785 21.0563V17.1443H13.1527V21.0536ZM36.9692 34.4218H2.35973C1.71494 34.4218 1.19039 33.8972 1.19039 33.2524C1.19039 32.6076 1.71494 32.083 2.35973 32.083H36.9692C37.614 32.083 38.1385 32.6076 38.1385 33.2524C38.1385 33.8972 37.614 34.4218 36.9692 34.4218ZM26.1762 21.0536V17.1443H29.5707V21.0563C29.3358 20.9529 29.1234 20.8272 28.9177 20.7055C28.5474 20.4864 28.2121 20.288 27.852 20.288C27.6915 20.288 27.5261 20.3274 27.3506 20.4219L26.1762 21.0536ZM10.9323 5.46782L9.75819 6.09953V2.1904H13.1527V6.10238C12.9178 5.99892 12.7054 5.87325 12.4997 5.75158C12.1293 5.53242 11.7938 5.33397 11.4336 5.33397C11.2732 5.33397 11.1078 5.37336 10.9323 5.46782Z" fill="#B777BE"/>
</svg>
