<svg width="91" height="58" viewBox="0 0 91 58" fill="none" xmlns="http://www.w3.org/2000/svg">
<g clip-path="url(#clip0)">
<path d="M84.63 24.67L82.2677 15.3314C82.9111 15.1957 83.3983 14.6256 83.3983 13.9559V12.4448C83.3983 9.17804 80.7142 6.51762 77.4143 6.51762H66.6782V3.4138C66.6782 1.80306 65.3545 0.5 63.7368 0.5H9.02646C7.39949 0.5 6.08505 1.81211 6.08505 3.4138V29.0045C6.08505 29.7827 6.71929 30.4162 7.5098 30.4162C8.3003 30.4162 8.93455 29.7827 8.93455 29.0045V3.4138C8.93455 3.3595 8.9805 3.32331 9.02646 3.32331H63.7368C63.7919 3.32331 63.8287 3.36855 63.8287 3.4138V29.0045C63.8287 29.7827 64.4629 30.4162 65.2534 30.4162C66.0439 30.4162 66.6782 29.7827 66.6782 29.0045V27.4028H83.4902C85.5584 27.4028 87.314 28.7511 87.9207 30.5972H83.4902C82.6997 30.5972 82.0655 31.2306 82.0655 32.0088V35.0221C82.0655 37.4563 84.0693 39.4471 86.5327 39.4471H88.1505V45.6548H84.4278C83.2052 42.1528 79.841 39.6372 75.8977 39.6372C71.9543 39.6372 68.5901 42.1618 67.3676 45.6548H66.6782V35.0221C66.6782 34.2439 66.0439 33.6105 65.2534 33.6105C64.4629 33.6105 63.8287 34.2439 63.8287 35.0221V45.6548H34.2675C33.0449 42.1528 29.6807 39.6372 25.7374 39.6372C21.794 39.6372 18.4298 42.1618 17.2073 45.6548H9.02646C8.97131 45.6548 8.93455 45.6095 8.93455 45.5643V42.4605H15.1115C15.902 42.4605 16.5363 41.827 16.5363 41.0488C16.5363 40.2706 15.902 39.6372 15.1115 39.6372H1.42475C0.634242 39.6281 0 40.2615 0 41.0398C0 41.818 0.634242 42.4514 1.42475 42.4514H6.07586V45.5552C6.07586 47.166 7.3995 48.469 9.01727 48.469H16.7109C16.7109 48.4962 16.7109 48.5324 16.7109 48.5595C16.7109 53.4913 20.7554 57.5 25.7374 57.5C30.7194 57.5 34.7638 53.4913 34.7638 48.5595C34.7638 48.5324 34.7638 48.4962 34.7638 48.469H66.8712C66.8712 48.4962 66.8712 48.5324 66.8712 48.5595C66.8712 53.4913 70.9157 57.5 75.8977 57.5C80.8705 57.5 84.9241 53.4913 84.9241 48.5595C84.9241 48.5324 84.9241 48.4962 84.9241 48.469H89.5844C90.3749 48.469 91.0092 47.8356 91.0092 47.0574V32.0088C91 28.2987 88.2332 25.213 84.63 24.67ZM66.6782 9.34093H77.4143C79.1424 9.34093 80.5488 10.7345 80.5488 12.4448V12.5352H66.6782V9.34093ZM66.6782 24.5795V15.3585H79.3354L81.661 24.5795H66.6782ZM25.7374 54.6857C22.3364 54.6857 19.5604 51.9439 19.5604 48.5686C19.5604 45.1933 22.3272 42.4514 25.7374 42.4514C29.1384 42.4514 31.9143 45.1933 31.9143 48.5686C31.9143 51.9439 29.1476 54.6857 25.7374 54.6857ZM75.8977 54.6857C72.4967 54.6857 69.7207 51.9439 69.7207 48.5686C69.7207 45.1933 72.4875 42.4514 75.8977 42.4514C79.2987 42.4514 82.0746 45.1933 82.0746 48.5686C82.0655 51.9439 79.2987 54.6857 75.8977 54.6857ZM88.1505 36.6238H86.5327C85.6411 36.6238 84.9149 35.909 84.9149 35.0221V33.4205H88.1413L88.1505 36.6238Z" fill="#B777BE"/>
<path d="M25.7373 45.6548C24.1103 45.6548 22.7959 46.9669 22.7959 48.5686C22.7959 50.1793 24.1195 51.4824 25.7373 51.4824C27.3643 51.4824 28.6787 50.1703 28.6787 48.5686C28.6879 46.9578 27.3643 45.6548 25.7373 45.6548Z" fill="#B777BE"/>
<path d="M75.8977 45.6548C74.2707 45.6548 72.9563 46.9669 72.9563 48.5686C72.9563 50.1793 74.2799 51.4824 75.8977 51.4824C77.5247 51.4824 78.8391 50.1703 78.8391 48.5686C78.8391 46.9578 77.5155 45.6548 75.8977 45.6548Z" fill="#B777BE"/>
<path d="M59.1777 39.6282H37.8984C37.1079 39.6282 36.4736 40.2616 36.4736 41.0398C36.4736 41.818 37.1079 42.4515 37.8984 42.4515H59.1777C59.9682 42.4515 60.6024 41.818 60.6024 41.0398C60.6024 40.2616 59.9682 39.6282 59.1777 39.6282Z" fill="#B777BE"/>
<path d="M22.704 33.6106H4.46723C3.67672 33.6106 3.04248 34.244 3.04248 35.0222C3.04248 35.8005 3.67672 36.4339 4.46723 36.4339H22.704C23.4945 36.4339 24.1287 35.8005 24.1287 35.0222C24.1287 34.244 23.4853 33.6106 22.704 33.6106Z" fill="#B777BE"/>
</g>
<defs>
<clipPath id="clip0">
<rect width="91" height="57" fill="white" transform="translate(0 0.5)"/>
</clipPath>
</defs>
</svg>
