<svg width="24" height="24" viewBox="0 0 24 24" fill="none" xmlns="http://www.w3.org/2000/svg">
<path d="M19.9295 11.8653C19.9295 11.8653 23.0882 7.29352 23.404 5.78996C23.5113 5.2521 23.2789 4.95261 22.7365 4.95261C22.7365 4.95261 20.9128 4.95261 19.995 4.95261C19.3693 4.95261 19.1368 5.23376 18.9461 5.63716C18.9461 5.63716 17.4621 8.87655 15.6563 10.918C15.0782 11.5781 14.7802 11.7798 14.4644 11.7798C14.2081 11.7798 14.0889 11.5597 14.0889 10.9608V5.74106C14.0889 5.01373 14.0055 4.7998 13.4214 4.7998H9.02309C8.68935 4.7998 8.48075 5.0015 8.48075 5.27043C8.48075 5.95498 9.50584 6.1139 9.50584 7.97807V11.8226C9.50584 12.5927 9.46412 12.8983 9.10653 12.8983C8.16489 12.8983 5.92401 9.56721 4.6665 5.78996C4.41619 5.01373 4.148 4.7998 3.43283 4.7998H0.691333C0.292029 4.7998 0 5.08096 0 5.48435C0 6.23614 0.858207 9.7139 4.23144 14.3713C6.49019 17.5068 9.46412 19.1998 12.146 19.1998C13.779 19.1998 14.1783 18.9187 14.1783 18.2097V15.8015C14.1783 15.2025 14.4107 14.9458 14.7445 14.9458C15.1199 14.9458 15.7874 15.0681 17.3429 16.645C19.1845 18.448 19.3097 19.1998 20.3169 19.1998H23.3921C23.708 19.1998 24 19.047 24 18.5153C24 17.8063 23.1001 16.5411 21.7174 15.0375C21.1512 14.2613 20.2334 13.43 19.9354 13.0389C19.5123 12.5927 19.6374 12.336 19.9295 11.8653Z" fill="#B777BE"/>
</svg>
