<svg width="76" height="86" viewBox="0 0 76 86" fill="none" xmlns="http://www.w3.org/2000/svg">
<path d="M75.4549 46.8401C75.4449 46.6801 75.4349 46.5201 75.4249 46.3601C75.4149 46.1801 75.4049 45.2001 75.3849 45.0301L75.3749 44.9501C75.2849 44.1701 74.5749 43.6101 73.7849 43.7001C73.0049 43.7901 72.4349 44.5001 72.5349 45.2801L72.7549 47.1401L70.7449 47.1301C69.9549 47.1301 69.3149 47.7701 69.3149 48.5501C69.3149 49.3401 69.9549 49.9801 70.7449 49.9801L72.6549 49.9901C72.4049 56.0901 70.5749 61.7801 67.5549 66.6701H57.7049C59.2049 62.1101 60.1149 57.0501 60.3749 51.7801C60.0249 51.2901 59.7049 50.7801 59.3849 50.2601C58.5749 49.2901 57.7949 48.2601 57.0649 47.1601H39.4149V30.4601H47.5549L49.9749 30.4701C50.7649 30.4701 51.4049 29.8401 51.4049 29.0601C51.4049 28.2801 50.7649 27.6501 49.9749 27.6501L46.8749 27.6401V27.6501H39.4049V14.0201C43.3049 14.5201 47.0049 17.0701 50.0949 21.3701H50.0849L51.7449 23.9801C52.1649 24.6401 53.0549 24.8401 53.7149 24.4201C54.3849 24.0001 54.5749 23.1101 54.1549 22.4501L53.7949 21.8901C53.4849 21.3801 53.1749 20.8901 52.8449 20.4101L52.5049 19.8501L52.4849 19.8701C51.3349 18.2601 50.1049 16.8501 48.8049 15.6601C51.4949 16.5401 54.0449 17.7601 56.4049 19.2401L57.8649 20.2901C58.5049 20.7501 59.3949 20.6101 59.8649 19.9701C60.3249 19.3301 60.1849 18.4401 59.5449 17.9801C59.5449 17.9801 58.2749 17.0501 56.7449 16.2101C56.7349 16.2101 56.7349 16.2001 56.7249 16.2001C51.2349 13.0601 44.7549 11.1201 38.0149 11.1201C37.2349 11.1201 36.6049 11.7501 36.6049 12.5301V27.6401H28.9949C28.2149 27.6401 27.5849 28.2701 27.5849 29.0501C27.5849 29.8301 28.2149 30.4601 28.9949 30.4601H36.6049V47.1601H18.3749C18.4249 45.1601 18.5649 43.1701 18.8049 41.2301C18.9049 40.4601 18.3549 39.7601 17.5749 39.6601C16.8049 39.5601 16.0949 40.1101 16.0049 40.8801C15.7549 42.9301 15.6049 45.0401 15.5549 47.1501H3.35488C3.37488 46.6101 3.41488 46.0801 3.45488 45.5501C3.46488 45.4701 3.46488 45.3901 3.47488 45.3101C3.57488 44.2201 3.72488 43.1501 3.92488 42.1001C3.92488 42.0901 3.92488 42.0901 3.92488 42.0801C4.02488 41.5301 4.14488 40.9901 4.27488 40.4601C5.21488 36.5501 6.83488 32.8101 9.09488 29.4201C9.52488 28.7701 9.34488 27.9001 8.70488 27.4701C8.05488 27.0401 7.18488 27.2201 6.75488 27.8601C3.81488 32.2801 1.87488 37.2201 1.01488 42.4101C0.994883 42.5401 0.974883 42.6601 0.954883 42.7901C0.914883 43.0301 0.884883 43.2801 0.854883 43.5201C0.824883 43.7101 0.804883 43.9001 0.784883 44.0901C0.754883 44.3101 0.734883 44.5201 0.714883 44.7401C0.694883 44.9701 0.674883 45.2001 0.654883 45.4201C0.634883 45.6101 0.624883 45.8001 0.604883 45.9901C0.584883 46.2601 0.574883 46.5401 0.564883 46.8101C0.554883 46.9601 0.544883 47.1101 0.544883 47.2701C0.514883 47.7001 0.504883 48.1301 0.504883 48.5601C0.504883 50.5001 0.654883 52.4001 0.934883 54.2501C3.59488 71.5801 18.2049 85.0401 36.0749 85.9501C36.7149 85.9801 37.3549 86.0001 38.0049 86.0001C38.6549 86.0001 39.2949 85.9801 39.9349 85.9501C57.8049 85.0401 72.4149 71.5801 75.0749 54.2501C75.3549 52.3901 75.5049 50.4901 75.5049 48.5601C75.4949 47.9801 75.4849 47.4101 75.4549 46.8401ZM3.35488 49.9701H15.5549C15.6849 55.9001 16.6349 61.6001 18.3049 66.6701H8.45488C5.43488 61.7701 3.60488 56.0701 3.35488 49.9701ZM26.2549 81.1301C26.1549 81.1001 26.0649 81.0601 25.9649 81.0301C25.6449 80.9101 25.3349 80.7901 25.0249 80.6601C24.9249 80.6201 24.8249 80.5901 24.7349 80.5501C24.4249 80.4201 24.1149 80.2801 23.8049 80.1501C23.7149 80.1101 23.6149 80.0701 23.5249 80.0201C23.2249 79.8801 22.9249 79.7301 22.6249 79.5801C22.5349 79.5301 22.4349 79.4901 22.3449 79.4401C22.0449 79.2901 21.7549 79.1301 21.4549 78.9701C21.3649 78.9201 21.2749 78.8701 21.1849 78.8301C20.8849 78.6701 20.5949 78.4901 20.3049 78.3201C20.2249 78.2701 20.1349 78.2201 20.0449 78.1701C19.7549 78.0001 19.4749 77.8201 19.1949 77.6301C19.1049 77.5701 19.0249 77.5201 18.9349 77.4601C18.6449 77.2701 18.3549 77.0601 18.0649 76.8601C17.9949 76.8101 17.9249 76.7701 17.8649 76.7201C17.5549 76.5001 17.2549 76.2701 16.9549 76.0401C16.9049 76.0101 16.8649 75.9701 16.8149 75.9401C16.4949 75.6901 16.1849 75.4401 15.8749 75.1901C15.8449 75.1701 15.8249 75.1501 15.7949 75.1301C13.7949 73.4601 11.9749 71.5601 10.3949 69.4901H19.3349C20.0849 71.3501 20.9449 73.1201 21.8949 74.7501C22.2149 75.3001 22.5449 75.8201 22.8749 76.3301C22.8849 76.3401 22.8849 76.3501 22.8949 76.3601C22.9149 76.3901 22.9349 76.4201 22.9549 76.4501C23.2649 76.9201 23.5849 77.3701 23.9049 77.8001C23.9049 77.8101 23.9149 77.8101 23.9249 77.8201C24.9549 79.2001 26.0449 80.4201 27.1949 81.4601C26.8849 81.3601 26.5649 81.2501 26.2549 81.1301ZM36.5949 83.0901C32.7549 82.5901 29.0549 80.0701 25.9849 75.8401C25.9249 75.7601 25.8649 75.6801 25.8149 75.6001C25.6749 75.4101 25.5449 75.2201 25.4149 75.0201C25.0449 74.4801 24.6949 73.9201 24.3449 73.3201C23.6349 72.1101 22.9949 70.8201 22.4049 69.4801H36.6049V83.0901H36.5949ZM36.5949 66.6701H21.2849C19.5149 61.6601 18.5149 55.9501 18.3749 49.9701H36.5849V66.6701H36.5949ZM39.4149 49.9701H57.6249C57.4849 55.9501 56.4849 61.6701 54.7149 66.6701H39.4149V49.9701ZM39.4149 83.0901V69.4901H53.6149C53.0249 70.8401 52.3749 72.1201 51.6749 73.3301C51.3249 73.9201 50.9649 74.4901 50.6049 75.0301C50.4749 75.2301 50.3449 75.4201 50.2049 75.6101C50.1449 75.6901 50.0849 75.7701 50.0349 75.8501C46.9449 80.0701 43.2549 82.6001 39.4149 83.0901ZM60.2149 75.1301C60.1849 75.1501 60.1649 75.1701 60.1349 75.1901C59.8249 75.4401 59.5149 75.7001 59.1949 75.9401C59.1549 75.9701 59.1049 76.0101 59.0549 76.0401C58.7549 76.2701 58.4549 76.5001 58.1449 76.7201C58.0749 76.7701 58.0049 76.8101 57.9449 76.8601C57.6549 77.0601 57.3649 77.2701 57.0749 77.4601C56.9849 77.5201 56.9049 77.5701 56.8149 77.6301C56.5349 77.8101 56.2549 77.9901 55.9649 78.1701C55.8849 78.2201 55.7949 78.2701 55.7049 78.3201C55.4149 78.4901 55.1249 78.6701 54.8249 78.8301C54.7349 78.8801 54.6449 78.9301 54.5549 78.9701C54.2649 79.1301 53.9649 79.2901 53.6649 79.4401C53.5749 79.4901 53.4749 79.5301 53.3849 79.5801C53.0849 79.7301 52.7849 79.8801 52.4849 80.0201C52.3949 80.0601 52.2949 80.1001 52.2049 80.1501C51.8949 80.2901 51.5949 80.4301 51.2749 80.5501C51.1749 80.5901 51.0849 80.6301 50.9849 80.6601C50.6749 80.7901 50.3549 80.9101 50.0449 81.0301C49.9449 81.0701 49.8549 81.1001 49.7549 81.1301C49.4449 81.2401 49.1249 81.3501 48.8149 81.4601C49.9649 80.4201 51.0549 79.2001 52.0849 77.8201C52.0949 77.8101 52.0949 77.8101 52.1049 77.8001C52.4249 77.3701 52.7449 76.9101 53.0549 76.4501C53.0749 76.4201 53.0949 76.3901 53.1149 76.3601C53.1249 76.3501 53.1249 76.3401 53.1349 76.3301C53.4749 75.8201 53.8049 75.3001 54.1249 74.7501C55.0849 73.1101 55.9349 71.3501 56.6849 69.4901H65.6249C64.0249 71.5601 62.2149 73.4601 60.2149 75.1301Z" fill="#B777BE"/>
<path d="M18.2249 38.19L19.2149 36.95C19.7349 36.3 31.9549 20.95 31.9549 13.72C31.9549 6.15 25.7949 0 18.2249 0C10.6449 0 4.48486 6.15 4.48486 13.71C4.48486 20.94 16.7049 36.29 17.2249 36.94L18.2249 38.19ZM18.2249 2.54C24.3949 2.54 29.4149 7.55 29.4149 13.71C29.4149 18.52 22.0749 29.07 18.2249 34.09C14.3649 29.08 7.02486 18.53 7.02486 13.71C7.02486 7.55 12.0549 2.54 18.2249 2.54Z" fill="#B777BE"/>
<path d="M24.5348 13.6701C24.5348 10.1901 21.7048 7.36011 18.2148 7.36011C14.7248 7.36011 11.8948 10.1901 11.8948 13.6701C11.8948 17.1501 14.7248 19.9801 18.2148 19.9801C21.7048 19.9801 24.5348 17.1501 24.5348 13.6701ZM14.4448 13.6701C14.4448 11.5901 16.1348 9.90011 18.2248 9.90011C20.3048 9.90011 22.0048 11.5901 22.0048 13.6701C22.0048 15.7501 20.3148 17.4401 18.2248 17.4401C16.1448 17.4401 14.4448 15.7501 14.4448 13.6701Z" fill="#B777BE"/>
<path d="M52.5449 32.09C52.5449 37.95 61.8749 49.78 62.9449 51.11L63.9349 52.35L64.9249 51.11C65.9849 49.78 75.3249 37.95 75.3249 32.09C75.3249 25.82 70.2149 20.72 63.9349 20.72C57.6549 20.72 52.5449 25.82 52.5449 32.09ZM63.9349 23.26C68.8149 23.26 72.7849 27.22 72.7849 32.1C72.7849 35.87 67.0949 44.12 63.9349 48.26C60.7749 44.12 55.0849 35.87 55.0849 32.1C55.0849 27.22 59.0549 23.26 63.9349 23.26Z" fill="#B777BE"/>
<path d="M63.9349 37.4199C66.8949 37.4199 69.3049 35.01 69.3049 32.06C69.3049 29.1 66.8949 26.7 63.9349 26.7C60.9749 26.7 58.5649 29.11 58.5649 32.06C58.5649 35.02 60.9749 37.4199 63.9349 37.4199ZM63.9349 29.24C65.4949 29.24 66.7649 30.51 66.7649 32.06C66.7649 33.62 65.4949 34.88 63.9349 34.88C62.3749 34.88 61.1049 33.61 61.1049 32.06C61.1149 30.5 62.3749 29.24 63.9349 29.24Z" fill="#B777BE"/>
</svg>
